<?xml version="1.0" encoding="UTF-8"?>
<!DOCTYPE svg PUBLIC "-//W3C//DTD SVG 1.1//EN" "http://www.w3.org/Graphics/SVG/1.1/DTD/svg11.dtd">
<svg xmlns="http://www.w3.org/2000/svg" version="1.1" width="250px" height="150px" style="shape-rendering:geometricPrecision; text-rendering:geometricPrecision; image-rendering:optimizeQuality; fill-rule:evenodd; clip-rule:evenodd" xmlns:xlink="http://www.w3.org/1999/xlink">
<g><path style="opacity:1" fill="#4e4e4e" d="M 67.5,31.5 C 65.2181,30.6103 62.8848,30.4436 60.5,31C 62.0581,31.21 63.3915,31.71 64.5,32.5C 61.5,32.1667 60.1667,33.5 60.5,36.5C 59.8423,35.6016 59.1757,34.6016 58.5,33.5C 57.8302,35.2914 57.1635,36.9581 56.5,38.5C 55.6239,33.2064 57.7905,29.8731 63,28.5C 64.9812,28.8985 66.4812,29.8985 67.5,31.5 Z"/></g>
<g><path style="opacity:1" fill="#696969" d="M 64.5,32.5 C 65.6491,32.7911 66.3158,33.6244 66.5,35C 66.6667,37.5 65.5,38.6667 63,38.5C 61.6244,38.3158 60.7911,37.6491 60.5,36.5C 64.8333,38.1667 66.1667,36.8333 64.5,32.5 Z"/></g>
<g><path style="opacity:1" fill="#777777" d="M 67.5,31.5 C 68.1174,31.6107 68.6174,31.944 69,32.5C 69.4955,34.4727 69.6621,36.4727 69.5,38.5C 68.5933,36.3432 67.9267,34.0098 67.5,31.5 Z"/></g>
<g><path style="opacity:1" fill="#0f0f0f" d="M 67.5,31.5 C 67.9267,34.0098 68.5933,36.3432 69.5,38.5C 69.9175,39.2216 70.5842,39.7216 71.5,40C 65.4121,39.8744 59.7455,40.7077 54.5,42.5C 53.448,42.6495 52.448,42.4828 51.5,42C 52.3805,41.2917 53.0472,40.4584 53.5,39.5C 54.209,38.596 55.209,38.2627 56.5,38.5C 57.1635,36.9581 57.8302,35.2914 58.5,33.5C 59.1757,34.6016 59.8423,35.6016 60.5,36.5C 60.7911,37.6491 61.6244,38.3158 63,38.5C 65.5,38.6667 66.6667,37.5 66.5,35C 66.3158,33.6244 65.6491,32.7911 64.5,32.5C 63.3915,31.71 62.0581,31.21 60.5,31C 62.8848,30.4436 65.2181,30.6103 67.5,31.5 Z"/></g>
<g><path style="opacity:1" fill="#444444" d="M 69.5,38.5 C 72.4056,38.9565 75.0722,39.9565 77.5,41.5C 75.6238,42.2583 73.9571,42.2583 72.5,41.5C 74.3439,45.2174 75.0106,49.2174 74.5,53.5C 72.0065,53.1307 71.3398,53.7973 72.5,55.5C 66.1539,52.836 59.8206,52.836 53.5,55.5C 54.4293,54.6851 55.4293,53.8518 56.5,53C 61.3514,52.8255 66.0181,52.3255 70.5,51.5C 71.5,51.5 72.5,51.5 73.5,51.5C 74.1856,47.713 73.1856,44.5463 70.5,42C 65.0833,41.2185 59.7499,41.3852 54.5,42.5C 59.7455,40.7077 65.4121,39.8744 71.5,40C 70.5842,39.7216 69.9175,39.2216 69.5,38.5 Z"/></g>
<g><path style="opacity:1" fill="#5a5a5a" d="M 97.5,42.5 C 94.1667,39.8333 90.8333,39.8333 87.5,42.5C 87.4142,41.5041 87.7476,40.6708 88.5,40C 91.1667,39.3333 93.8333,39.3333 96.5,40C 97.2524,40.6708 97.5858,41.5041 97.5,42.5 Z"/></g>
<g><path style="opacity:1" fill="#505050" d="M 38.5,41.5 C 36.2181,40.6103 33.8848,40.4436 31.5,41C 35.4658,40.9638 37.2991,42.7971 37,46.5C 36.6174,47.056 36.1174,47.3893 35.5,47.5C 36.9323,45.2014 36.2656,43.5347 33.5,42.5C 31.7826,43.6685 31.1159,45.3352 31.5,47.5C 31.0276,45.4687 30.0276,43.8021 28.5,42.5C 28.4142,41.5041 28.7476,40.6708 29.5,40C 32.1667,39.3333 34.8333,39.3333 37.5,40C 38.056,40.3826 38.3893,40.8826 38.5,41.5 Z M 35.5,47.5 C 34.1667,47.5 32.8333,47.5 31.5,47.5C 31.1159,45.3352 31.7826,43.6685 33.5,42.5C 36.2656,43.5347 36.9323,45.2014 35.5,47.5 Z"/></g>
<g><path style="opacity:1" fill="#737373" d="M 42.5,41.5 C 43.5676,40.5655 44.901,40.2322 46.5,40.5C 46.5,41.8333 46.5,43.1667 46.5,44.5C 45.0413,44.4326 43.7079,44.7659 42.5,45.5C 43.0065,44.1411 44.0065,43.1411 45.5,42.5C 44.675,41.6143 43.675,41.281 42.5,41.5 Z"/></g>
<g><path style="opacity:1" fill="#1d1d1d" d="M 77.5,41.5 C 79.6112,40.2584 81.6112,40.2584 83.5,41.5C 81.5,42.8333 79.5,44.1667 77.5,45.5C 76.8902,46.391 76.5569,47.391 76.5,48.5C 77.8333,49.1667 79.1667,49.8333 80.5,50.5C 79.8333,51.8333 78.8333,52.8333 77.5,53.5C 76.2209,54.968 74.5542,55.6347 72.5,55.5C 71.3398,53.7973 72.0065,53.1307 74.5,53.5C 75.0106,49.2174 74.3439,45.2174 72.5,41.5C 73.9571,42.2583 75.6238,42.2583 77.5,41.5 Z"/></g>
<g><path style="opacity:1" fill="#515151" d="M 83.5,41.5 C 84.8333,41.8333 86.1667,42.1667 87.5,42.5C 86.0998,43.1001 85.0998,44.1001 84.5,45.5C 82.1256,44.3139 79.7922,44.3139 77.5,45.5C 79.5,44.1667 81.5,42.8333 83.5,41.5 Z"/></g>
<g><path style="opacity:1" fill="#404040" d="M 53.5,39.5 C 53.0472,40.4584 52.3805,41.2917 51.5,42C 52.448,42.4828 53.448,42.6495 54.5,42.5C 52.7319,45.1625 52.0653,48.1625 52.5,51.5C 53.5,51.5 54.5,51.5 55.5,51.5C 54.7455,53.4663 53.5788,53.7996 52,52.5C 51.6667,49.5 51.3333,46.5 51,43.5C 50.6174,44.056 50.1174,44.3893 49.5,44.5C 49.6696,41.796 51.0029,40.1293 53.5,39.5 Z"/></g>
<g><path style="opacity:1" fill="#2f2f2f" d="M 38.5,41.5 C 39.7024,42.4054 41.0357,42.4054 42.5,41.5C 43.675,41.281 44.675,41.6143 45.5,42.5C 44.0065,43.1411 43.0065,44.1411 42.5,45.5C 38.8333,48.5 35.5,51.8333 32.5,55.5C 34.1241,52.6416 33.4574,51.9749 30.5,53.5C 30.7163,51.3193 29.883,49.6526 28,48.5C 27.2109,46.2884 27.3775,44.2884 28.5,42.5C 30.0276,43.8021 31.0276,45.4687 31.5,47.5C 32.8333,47.5 34.1667,47.5 35.5,47.5C 36.1174,47.3893 36.6174,47.056 37,46.5C 37.2991,42.7971 35.4658,40.9638 31.5,41C 33.8848,40.4436 36.2181,40.6103 38.5,41.5 Z M 35.5,47.5 C 34.1667,47.5 32.8333,47.5 31.5,47.5C 31.1159,45.3352 31.7826,43.6685 33.5,42.5C 36.2656,43.5347 36.9323,45.2014 35.5,47.5 Z"/></g>
<g><path style="opacity:1" fill="#595959" d="M 93.5,42.5 C 94.9986,43.6782 95.9986,45.3449 96.5,47.5C 97.4519,45.9547 97.7852,44.288 97.5,42.5C 99.1839,45.718 98.5172,48.3846 95.5,50.5C 94.1979,48.9724 92.5313,47.9724 90.5,47.5C 91.8333,47.5 93.1667,47.5 94.5,47.5C 94.634,45.7085 94.3007,44.0418 93.5,42.5 Z"/></g>
<g><path style="opacity:1" fill="#6d6d6d" d="M 49.5,48.5 C 48.0998,49.1001 47.0998,50.1001 46.5,51.5C 43.7704,50.0086 43.937,48.6752 47,47.5C 47.6708,48.2524 48.5041,48.5858 49.5,48.5 Z"/></g>
<g><path style="opacity:1" fill="#707070" d="M 80.5,50.5 C 79.1667,49.8333 77.8333,49.1667 76.5,48.5C 78.4241,47.0404 80.0908,47.3737 81.5,49.5C 81.3764,50.1067 81.0431,50.44 80.5,50.5 Z"/></g>
<g><path style="opacity:1" fill="#191919" d="M 55.5,51.5 C 55.5,49.5 55.5,47.5 55.5,45.5C 56.5,45.5 57.5,45.5 58.5,45.5C 58.5,47.1667 58.5,48.8333 58.5,50.5C 61.5,50.5 64.5,50.5 67.5,50.5C 67.5,48.8333 67.5,47.1667 67.5,45.5C 68.5,45.5 69.5,45.5 70.5,45.5C 70.5,47.5 70.5,49.5 70.5,51.5C 66.0181,52.3255 61.3514,52.8255 56.5,53C 55.4293,53.8518 54.4293,54.6851 53.5,55.5C 51.4862,55.6085 49.8195,54.9418 48.5,53.5C 47.5,53.1667 46.8333,52.5 46.5,51.5C 47.0998,50.1001 48.0998,49.1001 49.5,48.5C 49.5,47.1667 49.5,45.8333 49.5,44.5C 50.1174,44.3893 50.6174,44.056 51,43.5C 51.3333,46.5 51.6667,49.5 52,52.5C 53.5788,53.7996 54.7455,53.4663 55.5,51.5 Z"/></g>
<g><path style="opacity:1" fill="#535353" d="M 95.5,50.5 C 96.3597,54.4338 96.693,58.4338 96.5,62.5C 96.1667,62.5 95.8333,62.5 95.5,62.5C 95.4127,58.5277 95.4127,54.5277 95.5,50.5 Z"/></g>
<g><path style="opacity:1" fill="#474747" d="M 48.5,53.5 C 49.8195,54.9418 51.4862,55.6085 53.5,55.5C 50.8587,57.8044 48.192,60.1377 45.5,62.5C 44.1667,61.5 42.8333,60.5 41.5,59.5C 44.8305,58.6674 47.1639,56.6674 48.5,53.5 Z"/></g>
<g><path style="opacity:1" fill="#494949" d="M 41.5,59.5 C 39.0767,61.1372 36.41,61.6372 33.5,61C 32.7476,60.3292 32.4142,59.4959 32.5,58.5C 36.474,61.6434 37.8073,60.9767 36.5,56.5C 38.9328,56.2729 40.5994,57.2729 41.5,59.5 Z"/></g>
<g><path style="opacity:1" fill="#3d3d3d" d="M 77.5,53.5 C 78.9499,55.818 80.7833,57.818 83,59.5C 84.8603,57.7991 87.027,56.7991 89.5,56.5C 89.67,57.8221 89.3366,58.9887 88.5,60C 89.7932,60.49 91.1266,60.6567 92.5,60.5C 88.9231,60.9789 85.2564,61.3123 81.5,61.5C 81.5,62.5 81.5,63.5 81.5,64.5C 78.8333,61.1667 75.8333,58.1667 72.5,55.5C 74.5542,55.6347 76.2209,54.968 77.5,53.5 Z"/></g>
<g><path style="opacity:1" fill="#141414" d="M 32.5,55.5 C 32.5,56.5 32.5,57.5 32.5,58.5C 32.4142,59.4959 32.7476,60.3292 33.5,61C 36.41,61.6372 39.0767,61.1372 41.5,59.5C 42.8333,60.5 44.1667,61.5 45.5,62.5C 45.6716,63.4916 45.3382,64.1583 44.5,64.5C 43.1667,64.5 41.8333,64.5 40.5,64.5C 39.2067,63.8418 37.7067,63.5085 36,63.5C 34.0145,63.5687 32.5145,64.2353 31.5,65.5C 29.9519,65.8212 29.2852,66.8212 29.5,68.5C 29.5,72.5 29.5,76.5 29.5,80.5C 28.6522,81.625 27.6522,81.625 26.5,80.5C 25.3915,79.71 24.0581,79.21 22.5,79C 26.426,78.4198 27.926,76.2531 27,72.5C 26.3292,71.7476 25.4959,71.4142 24.5,71.5C 22.2901,71.894 20.9568,73.2273 20.5,75.5C 20.4142,76.4959 20.7476,77.3292 21.5,78C 20.9056,78.4643 20.2389,78.631 19.5,78.5C 18.1667,75.8333 18.1667,73.1667 19.5,70.5C 22.0098,70.0733 24.3432,69.4067 26.5,68.5C 26.2627,67.209 26.596,66.209 27.5,65.5C 29.1454,64.5213 30.4787,63.188 31.5,61.5C 30.6072,58.9159 30.2739,56.2492 30.5,53.5C 33.4574,51.9749 34.1241,52.6416 32.5,55.5 Z M 24.5,71.5 C 27.3083,73.9158 26.975,75.9158 23.5,77.5C 22.4822,76.8075 21.4822,76.1408 20.5,75.5C 20.9568,73.2273 22.2901,71.894 24.5,71.5 Z"/></g>
<g><path style="opacity:1" fill="#252525" d="M 191.5,61.5 C 193.199,61.3398 194.866,61.5065 196.5,62C 197.813,65.692 196.48,67.3587 192.5,67C 190.572,65.3195 190.239,63.4862 191.5,61.5 Z"/></g>
<g><path style="opacity:1" fill="#5d5d5d" d="M 30.5,53.5 C 30.2739,56.2492 30.6072,58.9159 31.5,61.5C 30.4787,63.188 29.1454,64.5213 27.5,65.5C 28.9315,61.5569 29.9315,57.5569 30.5,53.5 Z"/></g>
<g><path style="opacity:1" fill="#777777" d="M 40.5,64.5 C 37.3915,64.2641 34.3915,64.5975 31.5,65.5C 32.5145,64.2353 34.0145,63.5687 36,63.5C 37.7067,63.5085 39.2067,63.8418 40.5,64.5 Z"/></g>
<g><path style="opacity:1" fill="#767676" d="M 85.5,64.5 C 88.2869,63.5233 91.2869,63.19 94.5,63.5C 95.6005,64.6049 96.2671,65.9382 96.5,67.5C 93.4193,64.8075 89.7527,63.8075 85.5,64.5 Z"/></g>
<g><path style="opacity:1" fill="#111111" d="M 128.5,73.5 C 128.44,72.9569 128.107,72.6236 127.5,72.5C 126.508,76.7828 126.174,81.1161 126.5,85.5C 125.116,86.8009 123.616,86.8009 122,85.5C 121.333,78.1667 121.333,70.8333 122,63.5C 123.388,62.4464 124.888,62.2797 126.5,63C 128.979,66.3132 131.645,69.4798 134.5,72.5C 137.048,69.2407 139.714,66.074 142.5,63C 144.112,62.2797 145.612,62.4464 147,63.5C 147.667,70.8333 147.667,78.1667 147,85.5C 145.333,86.8333 143.667,86.8333 142,85.5C 141.667,81.5 141.333,77.5 141,73.5C 136.633,82.8147 132.467,82.8147 128.5,73.5 Z"/></g>
<g><path style="opacity:1" fill="#151515" d="M 211.5,74.5 C 210.167,74.5 208.833,74.5 207.5,74.5C 207.205,76.7354 207.539,78.7354 208.5,80.5C 211.966,81.109 212.966,82.9423 211.5,86C 208.001,87.1201 205.167,86.2868 203,83.5C 202.815,79.2316 201.648,75.3983 199.5,72C 201.926,69.7535 202.926,66.9202 202.5,63.5C 207.5,62.5 209.5,64.5 208.5,69.5C 213.508,69.2582 214.508,70.9249 211.5,74.5 Z"/></g>
<g><path style="opacity:1" fill="#101010" d="M 61.5,64.5 C 62.209,65.404 63.209,65.7373 64.5,65.5C 64.5,66.5 64.5,67.5 64.5,68.5C 62.5,67.5 60.5,66.5 58.5,65.5C 58.1667,65.5 57.8333,65.5 57.5,65.5C 56.3915,64.71 55.0581,64.21 53.5,64C 56.2205,63.3985 58.8872,63.5651 61.5,64.5 Z"/></g>
<g><path style="opacity:1" fill="#4d4d4d" d="M 66.5,63.5 C 66.5,64.8333 67.1667,65.5 68.5,65.5C 67.205,66.4884 65.8717,67.4884 64.5,68.5C 64.5,67.5 64.5,66.5 64.5,65.5C 63.209,65.7373 62.209,65.404 61.5,64.5C 63.2161,64.3713 64.8828,64.038 66.5,63.5 Z"/></g>
<g><path style="opacity:1" fill="#5d5d5d" d="M 58.5,65.5 C 60.5,66.5 62.5,67.5 64.5,68.5C 61.8044,69.5694 59.8044,68.5694 58.5,65.5 Z"/></g>
<g><path style="opacity:1" fill="#717171" d="M 72.5,65.5 C 74.5,65.5 75.5,66.5 75.5,68.5C 74.1667,67.8333 73.1667,66.8333 72.5,65.5 Z"/></g>
<g><path style="opacity:1" fill="#808080" d="M 31.5,65.5 C 31.0679,66.7095 30.4013,67.7095 29.5,68.5C 29.2852,66.8212 29.9519,65.8212 31.5,65.5 Z"/></g>
<g><path style="opacity:1" fill="#797979" d="M 40.5,66.5 C 38.9581,67.1635 37.2914,67.8302 35.5,68.5C 36.6016,69.1757 37.6016,69.8423 38.5,70.5C 37.1667,70.5 35.8333,70.5 34.5,70.5C 34.5,69.1667 34.5,67.8333 34.5,66.5C 36.5,66.5 38.5,66.5 40.5,66.5 Z"/></g>
<g><path style="opacity:1" fill="#2e2e2e" d="M 76.5,78.5 C 75.7611,78.631 75.0944,78.4643 74.5,78C 75.2524,77.3292 75.5858,76.4959 75.5,75.5C 76.6861,73.1256 76.6861,70.7922 75.5,68.5C 75.5,66.5 74.5,65.5 72.5,65.5C 71.1667,65.5 69.8333,65.5 68.5,65.5C 67.1667,65.5 66.5,64.8333 66.5,63.5C 76.5214,61.0164 80.688,65.0164 79,75.5C 78.6232,76.9423 77.7899,77.9423 76.5,78.5 Z"/></g>
<g><path style="opacity:1" fill="#3b3b3b" d="M 95.5,62.5 C 95.8333,62.5 96.1667,62.5 96.5,62.5C 98.539,63.911 99.539,65.911 99.5,68.5C 101.527,68.3379 103.527,68.5045 105.5,69C 106.056,69.3826 106.389,69.8826 106.5,70.5C 103.311,70.2866 100.478,69.2866 98,67.5C 97.3333,72.5 97.3333,77.5 98,82.5C 98.2784,81.5842 98.7784,80.9175 99.5,80.5C 99.539,83.089 98.539,85.089 96.5,86.5C 96.1667,86.5 95.8333,86.5 95.5,86.5C 92.1667,85.8333 88.8333,85.1667 85.5,84.5C 88.7766,84.7839 91.9433,84.4505 95,83.5C 96.3967,78.2919 96.8967,72.9586 96.5,67.5C 96.2671,65.9382 95.6005,64.6049 94.5,63.5C 95.1667,63.5 95.5,63.1667 95.5,62.5 Z"/></g>
<g><path style="opacity:1" fill="#383838" d="M 61.5,64.5 C 58.8872,63.5651 56.2205,63.3985 53.5,64C 55.0581,64.21 56.3915,64.71 57.5,65.5C 53.4239,65.5713 50.7572,67.5713 49.5,71.5C 51.2319,74.8706 52.8986,78.204 54.5,81.5C 47.6024,79.38 45.1024,74.7134 47,67.5C 47.8333,65.3333 49.3333,63.8333 51.5,63C 54.5,62.3333 57.5,62.3333 60.5,63C 61.056,63.3826 61.3893,63.8826 61.5,64.5 Z"/></g>
<g><path style="opacity:1" fill="#585858" d="M 26.5,68.5 C 24.3432,69.4067 22.0098,70.0733 19.5,70.5C 19.6107,69.8826 19.944,69.3826 20.5,69C 22.4727,68.5045 24.4727,68.3379 26.5,68.5 Z"/></g>
<g><path style="opacity:1" fill="#151515" d="M 150.5,69.5 C 152.467,69.2606 154.301,69.5939 156,70.5C 156.333,73.5 156.667,76.5 157,79.5C 158.333,80.8333 159.667,80.8333 161,79.5C 161.333,76.5 161.667,73.5 162,70.5C 163.699,69.5939 165.533,69.2606 167.5,69.5C 167.5,75.1667 167.5,80.8333 167.5,86.5C 164.252,85.8677 161.085,85.8677 158,86.5C 154.599,86.3017 152.266,84.6351 151,81.5C 150.501,77.5138 150.334,73.5138 150.5,69.5 Z"/></g>
<g><path style="opacity:1" fill="#171717" d="M 171.5,69.5 C 174.641,70.0893 177.641,70.0893 180.5,69.5C 184.612,69.4739 187.112,71.4739 188,75.5C 188.667,78.8333 188.667,82.1667 188,85.5C 186.301,86.4061 184.467,86.7394 182.5,86.5C 182.665,83.4816 182.498,80.4816 182,77.5C 180.688,75.3424 179.022,75.0091 177,76.5C 176.667,79.5 176.333,82.5 176,85.5C 174.333,86.8333 172.667,86.8333 171,85.5C 170.219,80.0833 170.385,74.7499 171.5,69.5 Z"/></g>
<g><path style="opacity:1" fill="#262626" d="M 191.5,69.5 C 193.467,69.2606 195.301,69.5939 197,70.5C 197.667,75.1667 197.667,79.8333 197,84.5C 195,87.1667 193,87.1667 191,84.5C 190.274,79.4477 190.441,74.4477 191.5,69.5 Z"/></g>
<g><path style="opacity:1" fill="#181818" d="M 216.5,68.5 C 217.239,68.369 217.906,68.5357 218.5,69C 220.631,71.448 222.631,73.948 224.5,76.5C 225.702,73.9296 227.035,71.4296 228.5,69C 230.894,68.7 232.561,69.7 233.5,72C 230.139,79.0835 226.972,86.2502 224,93.5C 221.218,95.0111 219.385,94.1777 218.5,91C 219.363,88.7735 220.363,86.6068 221.5,84.5C 219.033,80.3982 216.7,76.2315 214.5,72C 214.978,70.6974 215.645,69.5307 216.5,68.5 Z"/></g>
<g><path style="opacity:1" fill="#1a1a1a" d="M 97.5,42.5 C 97.7852,44.288 97.4519,45.9547 96.5,47.5C 95.9986,45.3449 94.9986,43.6782 93.5,42.5C 92.8333,42.5 92.1667,42.5 91.5,42.5C 90.3509,42.7911 89.6842,43.6244 89.5,45C 89.528,46.0698 89.8614,46.9032 90.5,47.5C 92.5313,47.9724 94.1979,48.9724 95.5,50.5C 95.4127,54.5277 95.4127,58.5277 95.5,62.5C 95.5,63.1667 95.1667,63.5 94.5,63.5C 91.2869,63.19 88.2869,63.5233 85.5,64.5C 86.9179,66.3079 88.9179,66.9746 91.5,66.5C 91.5,67.8333 91.5,69.1667 91.5,70.5C 90.1667,70.5 88.8333,70.5 87.5,70.5C 86.5233,73.2869 86.19,76.2869 86.5,79.5C 87.8333,79.5 89.1667,79.5 90.5,79.5C 88.8333,80.8333 87.1667,82.1667 85.5,83.5C 85.5,83.8333 85.5,84.1667 85.5,84.5C 88.8333,85.1667 92.1667,85.8333 95.5,86.5C 95.81,89.7131 95.4767,92.7131 94.5,95.5C 94.6716,94.5084 94.3382,93.8417 93.5,93.5C 93.5,92.5 93.5,91.5 93.5,90.5C 93.4413,88.2776 92.2747,87.2776 90,87.5C 89.1667,87.8333 88.3333,88.1667 87.5,88.5C 87.6236,89.1067 87.9569,89.44 88.5,89.5C 88.5,90.8333 87.8333,91.5 86.5,91.5C 85.5,91.1667 84.8333,90.5 84.5,89.5C 83.5,88.1667 82.5,86.8333 81.5,85.5C 81.3284,84.5084 81.6618,83.8417 82.5,83.5C 83.2216,83.0825 83.7216,82.4158 84,81.5C 84.6667,76.8333 84.6667,72.1667 84,67.5C 83.6174,66.944 83.1174,66.6107 82.5,66.5C 82.1667,65.8333 81.8333,65.1667 81.5,64.5C 81.5,63.5 81.5,62.5 81.5,61.5C 85.2564,61.3123 88.9231,60.9789 92.5,60.5C 93.9738,58.0731 93.8071,55.7398 92,53.5C 89.295,50.9638 86.795,48.2971 84.5,45.5C 85.0998,44.1001 86.0998,43.1001 87.5,42.5C 90.8333,39.8333 94.1667,39.8333 97.5,42.5 Z M 91.5,42.5 C 92.1667,42.5 92.8333,42.5 93.5,42.5C 94.3007,44.0418 94.634,45.7085 94.5,47.5C 93.1667,47.5 91.8333,47.5 90.5,47.5C 89.8614,46.9032 89.528,46.0698 89.5,45C 89.6842,43.6244 90.3509,42.7911 91.5,42.5 Z"/></g>
<g><path style="opacity:1" fill="#8a8a8a" d="M 91.5,42.5 C 90.6993,44.0418 90.366,45.7085 90.5,47.5C 90.366,45.7085 90.6993,44.0418 91.5,42.5 Z"/></g>
<g><path style="opacity:1" fill="#161616" d="M 106.5,70.5 C 107.519,72.5405 107.519,74.5405 106.5,76.5C 105.893,76.3764 105.56,76.0431 105.5,75.5C 103.5,70.1667 101.5,70.1667 99.5,75.5C 99.4142,76.4959 99.7476,77.3292 100.5,78C 101.833,78.3333 103.167,78.6667 104.5,79C 102.618,79.1981 100.952,79.6981 99.5,80.5C 98.7784,80.9175 98.2784,81.5842 98,82.5C 97.3333,77.5 97.3333,72.5 98,67.5C 100.478,69.2866 103.311,70.2866 106.5,70.5 Z"/></g>
<g><path style="opacity:1" fill="#767676" d="M 40.5,64.5 C 41.8333,64.5 43.1667,64.5 44.5,64.5C 42.8495,69.3241 42.1828,74.3241 42.5,79.5C 42.1667,79.5 41.8333,79.5 41.5,79.5C 41.2281,75.0983 41.5614,70.7649 42.5,66.5C 42.0302,65.537 41.3635,65.537 40.5,66.5C 40.5,65.8333 40.5,65.1667 40.5,64.5 Z"/></g>
<g><path style="opacity:1" fill="#555555" d="M 68.5,71.5 C 67.596,70.791 67.2627,69.791 67.5,68.5C 72.5,67.5 74.5,69.5 73.5,74.5C 71.3364,74.2785 69.6697,73.2785 68.5,71.5 Z"/></g>
<g><path style="opacity:1" fill="#111111" d="M 68.5,71.5 C 69.9225,68.8991 71.2558,69.0658 72.5,72C 72.3333,72.5 72.1667,73 72,73.5C 71.2904,72.0267 70.1238,71.3601 68.5,71.5 Z"/></g>
<g><path style="opacity:1" fill="#797979" d="M 82.5,66.5 C 83.1174,66.6107 83.6174,66.944 84,67.5C 84.6667,72.1667 84.6667,76.8333 84,81.5C 83.7216,82.4158 83.2216,83.0825 82.5,83.5C 83.7683,77.8251 83.7683,72.1584 82.5,66.5 Z"/></g>
<g><path style="opacity:1" fill="#555555" d="M 19.5,70.5 C 18.1667,73.1667 18.1667,75.8333 19.5,78.5C 18.0069,77.6879 17.3402,76.3545 17.5,74.5C 17.3402,72.6455 18.0069,71.3121 19.5,70.5 Z"/></g>
<g><path style="opacity:1" fill="#787878" d="M 38.5,70.5 C 39.4767,73.2869 39.81,76.2869 39.5,79.5C 38.1667,79.5 36.8333,79.5 35.5,79.5C 36.209,78.596 37.209,78.2627 38.5,78.5C 38.5,75.8333 38.5,73.1667 38.5,70.5 Z"/></g>
<g><path style="opacity:1" fill="#696969" d="M 87.5,70.5 C 87.5,73.1667 87.5,75.8333 87.5,78.5C 88.791,78.2627 89.791,78.596 90.5,79.5C 89.1667,79.5 87.8333,79.5 86.5,79.5C 86.19,76.2869 86.5233,73.2869 87.5,70.5 Z"/></g>
<g><path style="opacity:1" fill="#373737" d="M 128.5,73.5 C 127.833,77.5 127.167,81.5 126.5,85.5C 126.174,81.1161 126.508,76.7828 127.5,72.5C 128.107,72.6236 128.44,72.9569 128.5,73.5 Z"/></g>
<g><path style="opacity:1" fill="#0e0e0e" d="M 41.5,79.5 C 41.0296,80.6935 40.0296,81.3601 38.5,81.5C 36.9704,81.3601 35.9704,80.6935 35.5,79.5C 36.8333,79.5 38.1667,79.5 39.5,79.5C 39.81,76.2869 39.4767,73.2869 38.5,70.5C 37.6016,69.8423 36.6016,69.1757 35.5,68.5C 37.2914,67.8302 38.9581,67.1635 40.5,66.5C 41.3635,65.537 42.0302,65.537 42.5,66.5C 41.5614,70.7649 41.2281,75.0983 41.5,79.5 Z"/></g>
<g><path style="opacity:1" fill="#3c3c3c" d="M 106.5,70.5 C 109.312,73.8386 108.979,77.0053 105.5,80C 103.527,80.4955 101.527,80.6621 99.5,80.5C 100.952,79.6981 102.618,79.1981 104.5,79C 103.167,78.6667 101.833,78.3333 100.5,78C 99.7476,77.3292 99.4142,76.4959 99.5,75.5C 100.482,76.1408 101.482,76.8075 102.5,77.5C 103.518,76.8075 104.518,76.1408 105.5,75.5C 105.56,76.0431 105.893,76.3764 106.5,76.5C 107.519,74.5405 107.519,72.5405 106.5,70.5 Z"/></g>
<g><path style="opacity:1" fill="#494949" d="M 75.5,75.5 C 75.5858,76.4959 75.2524,77.3292 74.5,78C 75.0944,78.4643 75.7611,78.631 76.5,78.5C 75.8333,79.8333 74.8333,80.8333 73.5,81.5C 73.631,80.7611 73.4643,80.0944 73,79.5C 70.5644,82.4468 67.7311,84.7801 64.5,86.5C 67.8333,82.5 71.5,78.8333 75.5,75.5 Z"/></g>
<g><path style="opacity:1" fill="#848484" d="M 211.5,74.5 C 210.791,75.404 209.791,75.7373 208.5,75.5C 208.5,77.1667 208.5,78.8333 208.5,80.5C 207.539,78.7354 207.205,76.7354 207.5,74.5C 208.833,74.5 210.167,74.5 211.5,74.5 Z"/></g>
<g><path style="opacity:1" fill="#3e3e3e" d="M 24.5,71.5 C 25.4959,71.4142 26.3292,71.7476 27,72.5C 27.926,76.2531 26.426,78.4198 22.5,79C 24.0581,79.21 25.3915,79.71 26.5,80.5C 24.4727,80.6621 22.4727,80.4955 20.5,80C 19.944,79.6174 19.6107,79.1174 19.5,78.5C 20.2389,78.631 20.9056,78.4643 21.5,78C 20.7476,77.3292 20.4142,76.4959 20.5,75.5C 21.4822,76.1408 22.4822,76.8075 23.5,77.5C 26.975,75.9158 27.3083,73.9158 24.5,71.5 Z"/></g>
<g><path style="opacity:1" fill="#3a3a3a" d="M 35.5,79.5 C 35.9704,80.6935 36.9704,81.3601 38.5,81.5C 40.0296,81.3601 41.0296,80.6935 41.5,79.5C 41.8333,79.5 42.1667,79.5 42.5,79.5C 43.3627,81.4214 44.0293,83.4214 44.5,85.5C 43.2976,84.5946 41.9643,84.5946 40.5,85.5C 40.5,85.1667 40.5,84.8333 40.5,84.5C 39.0821,82.6921 37.0821,82.0254 34.5,82.5C 34.2627,81.209 34.596,80.209 35.5,79.5 Z"/></g>
<g><path style="opacity:1" fill="#5f5f5f" d="M 90.5,79.5 C 91.404,80.209 91.7373,81.209 91.5,82.5C 89.3792,82.3253 87.3792,82.6586 85.5,83.5C 87.1667,82.1667 88.8333,80.8333 90.5,79.5 Z"/></g>
<g><path style="opacity:1" fill="#979797" d="M 31.5,83.5 C 34.3915,84.4025 37.3915,84.7359 40.5,84.5C 40.5,84.8333 40.5,85.1667 40.5,85.5C 37.5,85.5 34.5,85.5 31.5,85.5C 31.5,84.8333 31.5,84.1667 31.5,83.5 Z"/></g>
<g><path style="opacity:1" fill="#090909" d="M 44.5,85.5 C 44.4142,86.4959 44.7476,87.3292 45.5,88C 43.9419,88.21 42.6085,88.71 41.5,89.5C 38.4164,87.8986 35.083,87.2319 31.5,87.5C 30.4937,86.6043 30.4937,85.9377 31.5,85.5C 34.5,85.5 37.5,85.5 40.5,85.5C 41.9643,84.5946 43.2976,84.5946 44.5,85.5 Z"/></g>
<g><path style="opacity:1" fill="#404040" d="M 64.5,86.5 C 63.3915,87.29 62.0581,87.79 60.5,88C 61.056,88.3826 61.3893,88.8826 61.5,89.5C 58.9308,88.6044 56.9308,86.9377 55.5,84.5C 57.8249,82.1798 59.8249,82.6798 61.5,86C 62.448,86.4828 63.448,86.6495 64.5,86.5 Z"/></g>
<g><path style="opacity:1" fill="#2e2e2e" d="M 73.5,81.5 C 70.7694,85.3972 67.2694,88.3972 63,90.5C 62.2352,90.4301 61.7352,90.0967 61.5,89.5C 61.3893,88.8826 61.056,88.3826 60.5,88C 62.0581,87.79 63.3915,87.29 64.5,86.5C 67.7311,84.7801 70.5644,82.4468 73,79.5C 73.4643,80.0944 73.631,80.7611 73.5,81.5 Z"/></g>
<g><path style="opacity:1" fill="#525252" d="M 81.5,85.5 C 82.5,86.8333 83.5,88.1667 84.5,89.5C 82.8561,89.7135 81.3561,89.3802 80,88.5C 79.4153,87.0024 79.9153,86.0024 81.5,85.5 Z"/></g>
<g><path style="opacity:1" fill="#575757" d="M 93.5,90.5 C 92.4693,89.645 91.3026,88.9783 90,88.5C 89.2352,88.5699 88.7352,88.9033 88.5,89.5C 87.9569,89.44 87.6236,89.1067 87.5,88.5C 88.3333,88.1667 89.1667,87.8333 90,87.5C 92.2747,87.2776 93.4413,88.2776 93.5,90.5 Z"/></g>
<g><path style="opacity:1" fill="#5b5b5b" d="M 95.5,86.5 C 95.8333,86.5 96.1667,86.5 96.5,86.5C 96.693,90.5662 96.3597,94.5662 95.5,98.5C 94.596,97.791 94.2627,96.791 94.5,95.5C 95.4767,92.7131 95.81,89.7131 95.5,86.5 Z"/></g>
<g><path style="opacity:1" fill="#484848" d="M 44.5,85.5 C 47.8761,88.8782 51.5428,91.8782 55.5,94.5C 53.4176,94.528 51.5843,93.8613 50,92.5C 49.6667,93.8333 49.3333,95.1667 49,96.5C 48.3292,97.2524 47.4959,97.5858 46.5,97.5C 46.9528,96.5416 47.6195,95.7083 48.5,95C 46.5199,92.4971 44.1865,90.6638 41.5,89.5C 42.6085,88.71 43.9419,88.21 45.5,88C 44.7476,87.3292 44.4142,86.4959 44.5,85.5 Z"/></g>
<g><path style="opacity:1" fill="#646464" d="M 88.5,89.5 C 89.404,90.209 89.7373,91.209 89.5,92.5C 88.209,92.7373 87.209,92.404 86.5,91.5C 87.8333,91.5 88.5,90.8333 88.5,89.5 Z"/></g>
<g><path style="opacity:1" fill="#505050" d="M 26.5,80.5 C 27.6522,81.625 28.6522,81.625 29.5,80.5C 30.1667,81.5 30.8333,82.5 31.5,83.5C 31.5,84.1667 31.5,84.8333 31.5,85.5C 30.4937,85.9377 30.4937,86.6043 31.5,87.5C 30.4357,91.4409 30.4357,95.4409 31.5,99.5C 32.1571,100.316 33.4905,100.983 35.5,101.5C 32.0897,101.384 30.7564,103.05 31.5,106.5C 31.0276,104.469 30.0276,102.802 28.5,101.5C 28.7031,99.9557 29.3698,98.6223 30.5,97.5C 29.7382,93.8889 29.2382,90.2222 29,86.5C 27.3375,84.8421 26.5041,82.8421 26.5,80.5 Z"/></g>
<g><path style="opacity:1" fill="#434343" d="M 76.5,100.5 C 77.5463,98.2151 77.5463,95.8817 76.5,93.5C 75.325,93.281 74.325,93.6143 73.5,94.5C 74.1008,98.1594 74.7675,101.826 75.5,105.5C 76.3857,104.675 76.719,103.675 76.5,102.5C 78.1417,104.081 80.1417,104.747 82.5,104.5C 80.4687,104.972 78.8021,105.972 77.5,107.5C 75.9382,107.733 74.6049,108.4 73.5,109.5C 73.5,108.167 72.8333,107.5 71.5,107.5C 73.9484,103.911 73.9484,100.578 71.5,97.5C 70.8166,95.8235 69.4832,95.1568 67.5,95.5C 70.7415,93.8793 74.0748,92.2126 77.5,90.5C 78.7472,92.0064 78.7472,93.5064 77.5,95C 79.019,96.3513 80.3523,97.8513 81.5,99.5C 80.286,101.754 78.6194,102.087 76.5,100.5 Z"/></g>
<g><path style="opacity:1" fill="#161616" d="M 55.5,94.5 C 55.6107,95.1174 55.944,95.6174 56.5,96C 60.3575,96.8099 64.0242,96.6433 67.5,95.5C 69.4832,95.1568 70.8166,95.8235 71.5,97.5C 69.8829,98.5893 69.0496,100.256 69,102.5C 68.7266,100.899 68.2266,99.3988 67.5,98C 65.2028,97.9822 62.8695,98.1489 60.5,98.5C 58.7868,99.6354 58.1201,101.302 58.5,103.5C 57.5,103.5 56.5,103.5 55.5,103.5C 55.7947,101.265 55.4614,99.2646 54.5,97.5C 53.791,96.596 52.791,96.2627 51.5,96.5C 52.0545,100.012 51.3878,103.012 49.5,105.5C 49.5,103.833 49.5,102.167 49.5,100.5C 48.0998,99.8999 47.0998,98.8999 46.5,97.5C 47.4959,97.5858 48.3292,97.2524 49,96.5C 49.3333,95.1667 49.6667,93.8333 50,92.5C 51.5843,93.8613 53.4176,94.528 55.5,94.5 Z"/></g>
<g><path style="opacity:1" fill="#050505" d="M 76.5,100.5 C 76.5,101.167 76.5,101.833 76.5,102.5C 76.719,103.675 76.3857,104.675 75.5,105.5C 74.7675,101.826 74.1008,98.1594 73.5,94.5C 74.325,93.6143 75.325,93.281 76.5,93.5C 77.5463,95.8817 77.5463,98.2151 76.5,100.5 Z"/></g>
<g><path style="opacity:1" fill="#2f2f2f" d="M 31.5,87.5 C 35.083,87.2319 38.4164,87.8986 41.5,89.5C 40.5994,91.7271 38.9328,92.7271 36.5,92.5C 36.33,91.1779 36.6634,90.0113 37.5,89C 34.8751,88.2765 33.2084,89.2765 32.5,92C 33.1242,94.0851 34.1242,95.9184 35.5,97.5C 34.5041,97.5858 33.6708,97.2524 33,96.5C 32.7679,97.7375 32.2679,98.7375 31.5,99.5C 30.4357,95.4409 30.4357,91.4409 31.5,87.5 Z"/></g>
<g><path style="opacity:1" fill="#484848" d="M 55.5,94.5 C 59.4517,95.2721 63.4517,95.6054 67.5,95.5C 64.0242,96.6433 60.3575,96.8099 56.5,96C 55.944,95.6174 55.6107,95.1174 55.5,94.5 Z"/></g>
<g><path style="opacity:1" fill="#454545" d="M 54.5,97.5 C 53.2749,98.1522 52.6083,99.3189 52.5,101C 52.6962,102.878 53.0295,104.712 53.5,106.5C 52.7611,106.369 52.0944,106.536 51.5,107C 52.2524,107.671 52.5858,108.504 52.5,109.5C 50.7376,108.738 49.7376,107.404 49.5,105.5C 51.3878,103.012 52.0545,100.012 51.5,96.5C 52.791,96.2627 53.791,96.596 54.5,97.5 Z"/></g>
<g><path style="opacity:1" fill="#626262" d="M 46.5,97.5 C 47.0998,98.8999 48.0998,99.8999 49.5,100.5C 47.3806,102.087 45.714,101.754 44.5,99.5C 44.8555,98.4777 45.5222,97.811 46.5,97.5 Z"/></g>
<g><path style="opacity:1" fill="#535353" d="M 71.5,97.5 C 70.6586,99.3792 70.3253,101.379 70.5,103.5C 69.5,103.5 68.5,103.5 67.5,103.5C 67.7692,101.571 67.2692,99.9047 66,98.5C 64.0565,99.807 62.2232,99.807 60.5,98.5C 62.8695,98.1489 65.2028,97.9822 67.5,98C 68.2266,99.3988 68.7266,100.899 69,102.5C 69.0496,100.256 69.8829,98.5893 71.5,97.5 Z"/></g>
<g><path style="opacity:1" fill="#2c2c2c" d="M 93.5,93.5 C 94.3382,93.8417 94.6716,94.5084 94.5,95.5C 94.2627,96.791 94.596,97.791 95.5,98.5C 96.5,98.8333 97.1667,99.5 97.5,100.5C 97.3144,107.887 96.3144,108.221 94.5,101.5C 93.1667,101.5 91.8333,101.5 90.5,101.5C 90.5,103.167 90.5,104.833 90.5,106.5C 91.9516,107.302 93.6183,107.802 95.5,108C 92.7795,108.602 90.1128,108.435 87.5,107.5C 84.2676,108.356 80.9343,108.356 77.5,107.5C 78.8021,105.972 80.4687,104.972 82.5,104.5C 86.5271,101.14 90.1938,97.4729 93.5,93.5 Z M 94.5,101.5 C 94.5,103.167 94.5,104.833 94.5,106.5C 93.1667,106.5 91.8333,106.5 90.5,106.5C 90.5,104.833 90.5,103.167 90.5,101.5C 91.8333,101.5 93.1667,101.5 94.5,101.5 Z"/></g>
<g><path style="opacity:1" fill="#232323" d="M 28.5,101.5 C 30.0276,102.802 31.0276,104.469 31.5,106.5C 31.8333,106.5 32.1667,106.5 32.5,106.5C 33.6085,107.29 34.9419,107.79 36.5,108C 33.7795,108.602 31.1128,108.435 28.5,107.5C 27.2584,105.389 27.2584,103.389 28.5,101.5 Z"/></g>
<g><path style="opacity:1" fill="#1c1c1c" d="M 35.5,97.5 C 38.1667,99.8333 40.8333,102.167 43.5,104.5C 46.3382,106.306 46.0048,107.306 42.5,107.5C 41.5084,107.672 40.8417,107.338 40.5,106.5C 39.352,105.836 38.0187,105.669 36.5,106C 37.9156,104.085 37.5822,102.585 35.5,101.5C 33.4905,100.983 32.1571,100.316 31.5,99.5C 32.2679,98.7375 32.7679,97.7375 33,96.5C 33.6708,97.2524 34.5041,97.5858 35.5,97.5 Z"/></g>
<g><path style="opacity:1" fill="#4f4f4f" d="M 35.5,101.5 C 37.5822,102.585 37.9156,104.085 36.5,106C 38.0187,105.669 39.352,105.836 40.5,106.5C 38.646,108.596 36.3127,109.929 33.5,110.5C 31.3076,110.243 29.6409,109.243 28.5,107.5C 31.1128,108.435 33.7795,108.602 36.5,108C 34.9419,107.79 33.6085,107.29 32.5,106.5C 35.8659,106.091 36.8659,104.425 35.5,101.5 Z"/></g>
<g><path style="opacity:1" fill="#545454" d="M 97.5,100.5 C 99.9204,105.775 98.2537,109.108 92.5,110.5C 90.4024,110.043 88.7358,109.043 87.5,107.5C 90.1128,108.435 92.7795,108.602 95.5,108C 93.6183,107.802 91.9516,107.302 90.5,106.5C 91.8333,106.5 93.1667,106.5 94.5,106.5C 94.5,104.833 94.5,103.167 94.5,101.5C 96.3144,108.221 97.3144,107.887 97.5,100.5 Z"/></g>
<g><path style="opacity:1" fill="#6d6d6d" d="M 43.5,104.5 C 46.5,104.167 47.8333,105.5 47.5,108.5C 45.5853,108.784 43.9187,108.451 42.5,107.5C 46.0048,107.306 46.3382,106.306 43.5,104.5 Z"/></g>
<g><path style="opacity:1" fill="#6f6f6f" d="M 53.5,106.5 C 59.4406,107.413 65.4406,107.746 71.5,107.5C 66.0154,108.652 60.3487,108.818 54.5,108C 53.944,107.617 53.6107,107.117 53.5,106.5 Z"/></g>
<g><path style="opacity:1" fill="#1d1d1d" d="M 53.5,106.5 C 53.6107,107.117 53.944,107.617 54.5,108C 60.3487,108.818 66.0154,108.652 71.5,107.5C 72.8333,107.5 73.5,108.167 73.5,109.5C 73.1583,110.338 72.4916,110.672 71.5,110.5C 70.0222,110.238 68.6888,110.571 67.5,111.5C 68.3094,113.071 68.6427,114.738 68.5,116.5C 67.1667,114.833 65.8333,113.167 64.5,111.5C 60.7162,111.525 59.7162,113.192 61.5,116.5C 63.2191,117.022 64.5525,118.022 65.5,119.5C 61.9657,121.244 59.2991,120.244 57.5,116.5C 57.5,114.5 57.5,112.5 57.5,110.5C 56.5,110.5 55.5,110.5 54.5,110.5C 53.5084,110.672 52.8417,110.338 52.5,109.5C 52.5858,108.504 52.2524,107.671 51.5,107C 52.0944,106.536 52.7611,106.369 53.5,106.5 Z M 64.5,111.5 C 66.2838,114.808 65.2838,116.475 61.5,116.5C 59.7162,113.192 60.7162,111.525 64.5,111.5 Z"/></g>
<g><path style="opacity:1" fill="#8c8c8c" d="M 54.5,110.5 C 55.5,110.5 56.5,110.5 57.5,110.5C 57.5,112.5 57.5,114.5 57.5,116.5C 56.8419,114.361 55.8419,112.361 54.5,110.5 Z"/></g>
<g><path style="opacity:1" fill="#717171" d="M 71.5,110.5 C 70.1581,112.361 69.1581,114.361 68.5,116.5C 68.6427,114.738 68.3094,113.071 67.5,111.5C 68.6888,110.571 70.0222,110.238 71.5,110.5 Z"/></g>
<g><path style="opacity:1" fill="#505050" d="M 64.5,111.5 C 65.8333,113.167 67.1667,114.833 68.5,116.5C 67.8333,117.833 66.8333,118.833 65.5,119.5C 64.5525,118.022 63.2191,117.022 61.5,116.5C 65.2838,116.475 66.2838,114.808 64.5,111.5 Z"/></g>
</svg>
