<?xml version="1.0" encoding="UTF-8"?>
<svg version="1.1" xmlns="http://www.w3.org/2000/svg" width="104" height="104">
<path d="M0 0 C34.32 0 68.64 0 104 0 C104 34.32 104 68.64 104 104 C69.68 104 35.36 104 0 104 C0 69.68 0 35.36 0 0 Z " fill="#FCFCFC" transform="translate(0,0)"/>
<path d="M0 0 C2.375 1.1875 2.375 1.1875 4 3 C4.25 5.6875 4.25 5.6875 4 8 C5.32 8 6.64 8 8 8 C8 8.66 8 9.32 8 10 C13.445 10.495 13.445 10.495 19 11 C19 11.66 19 12.32 19 13 C19.99 13 20.98 13 22 13 C22.33 12.01 22.66 11.02 23 10 C29.625 9.75 29.625 9.75 33 12 C33.40843923 14.71203652 33.13336867 17.2437142 33 20 C31.68 20.33 30.36 20.66 29 21 C29.99 22.485 29.99 22.485 31 24 C31.0962283 26.30947912 30.93484619 28.53883623 30.77734375 30.84375 C31.05917973 33.57310896 32.0529105 34.16983755 34 36 C34 36.99 34 37.98 34 39 C34.928125 38.938125 35.85625 38.87625 36.8125 38.8125 C40 39 40 39 41.875 40.125 C43.52854531 42.88090884 43.39365568 44.85075452 43 48 C41.875 49.875 41.875 49.875 40 51 C36.8125 51.1875 36.8125 51.1875 34 51 C34 51.99 34 52.98 34 54 C33.34 54 32.68 54 32 54 C31.67 59.28 31.34 64.56 31 70 C31.66 70.33 32.32 70.66 33 71 C33.09765625 77.15234375 33.09765625 77.15234375 33 79 C32 80 32 80 30.0390625 80.1328125 C29.24242188 80.13023438 28.44578125 80.12765625 27.625 80.125 C26.83351563 80.12757812 26.04203125 80.13015625 25.2265625 80.1328125 C23 80 23 80 20 79 C17.24510752 79.24683383 14.54760419 79.5529133 11.8125 79.9375 C11.06291016 80.03740234 10.31332031 80.13730469 9.54101562 80.24023438 C7.69318518 80.48739641 5.8464734 80.74289611 4 81 C4.04125 82.093125 4.0825 83.18625 4.125 84.3125 C4 88 4 88 2 91 C-1.4375 91.4375 -1.4375 91.4375 -5 91 C-6.9375 89.25 -6.9375 89.25 -8 87 C-8 85.68 -8 84.36 -8 83 C-7.34 83 -6.68 83 -6 83 C-6 83.99 -6 84.98 -6 86 C-4.35 86 -2.7 86 -1 86 C-1 84.35 -1 82.7 -1 81 C-1.67546875 81.01160156 -2.3509375 81.02320312 -3.046875 81.03515625 C-3.93890625 81.04417969 -4.8309375 81.05320312 -5.75 81.0625 C-6.63171875 81.07410156 -7.5134375 81.08570312 -8.421875 81.09765625 C-11 81 -11 81 -15 80 C-15.495 75.545 -15.495 75.545 -16 71 C-17.65 71 -19.3 71 -21 71 C-20.649375 70.443125 -20.29875 69.88625 -19.9375 69.3125 C-18.78154007 66.46113217 -19.19032562 64.91482778 -20 62 C-21.485 61.505 -21.485 61.505 -23 61 C-23.99 61.66 -24.98 62.32 -26 63 C-26.99 63 -27.98 63 -29 63 C-29 62.01 -29 61.02 -29 60 C-29.99 60 -30.98 60 -32 60 C-32.5513099 63.74890735 -32.06375655 64.91074083 -29.8125 68.0625 C-26.62850025 71.56219378 -23.54520762 74.48493079 -19 76 C-19 76.66 -19 77.32 -19 78 C-21.64 78 -24.28 78 -27 78 C-27.33 78.66 -27.66 79.32 -28 80 C-35.75 80.125 -35.75 80.125 -38 79 C-38 76.36 -38 73.72 -38 71 C-37.34 71 -36.68 71 -36 71 C-36.11402064 68.72858891 -36.24158505 66.45785448 -36.375 64.1875 C-36.44460937 62.92292969 -36.51421875 61.65835938 -36.5859375 60.35546875 C-36.76102939 56.87244766 -36.76102939 56.87244766 -39 54 C-39 53.01 -39 52.02 -39 51 C-39.928125 51.061875 -40.85625 51.12375 -41.8125 51.1875 C-45 51 -45 51 -46.875 49.875 C-48.52854531 47.11909116 -48.39365568 45.14924548 -48 42 C-46.875 40.125 -46.875 40.125 -45 39 C-41.8125 38.8125 -41.8125 38.8125 -39 39 C-38.855625 38.195625 -38.71125 37.39125 -38.5625 36.5625 C-38 34 -38 34 -37 33 C-36.08448636 26.55071504 -35.6920252 20.39454346 -37 14 C-36.34 13.67 -35.68 13.34 -35 13 C-35 14.65 -35 16.3 -35 18 C-33.02 18 -31.04 18 -29 18 C-29.19471111 16.05000871 -29.19471111 16.05000871 -30 14 C-31.9837767 12.71563266 -31.9837767 12.71563266 -34 12 C-34 11.67 -34 11.34 -34 11 C-30.436421 10.91900957 -27.43418621 11.1137584 -24 12 C-22.33376361 12.03786901 -20.66602403 12.04627845 -19 12 C-19 12.99 -19 13.98 -19 15 C-20.32 15 -21.64 15 -23 15 C-23.309375 15.8353125 -23.309375 15.8353125 -23.625 16.6875 C-25.57683032 19.97012371 -27.94230994 21.70673246 -31 24 C-31.66 24 -32.32 24 -33 24 C-32.67 25.98 -32.34 27.96 -32 30 C-31.01 30 -30.02 30 -29 30 C-29 29.01 -29 28.02 -29 27 C-26.07120629 27.62759865 -23.63904371 28.58622659 -21 30 C-21 29.34 -21 28.68 -21 28 C-20.01 27.34 -19.02 26.68 -18 26 C-18.309375 25.401875 -18.61875 24.80375 -18.9375 24.1875 C-20 22 -20 22 -21 19 C-19.35 19 -17.7 19 -16 19 C-16.12375 17.6696875 -16.12375 17.6696875 -16.25 16.3125 C-15.94482878 12.26898131 -14.87603114 10.79385882 -12 8 C-11.01 8 -10.02 8 -9 8 C-9.061875 7.236875 -9.12375 6.47375 -9.1875 5.6875 C-9 3 -9 3 -7.875 1.1875 C-5.11646047 -0.55957504 -3.20161236 -0.39203417 0 0 Z " fill="#383838" transform="translate(54,8)"/>
<path d="M0 0 C3.563579 -0.08099043 6.56581379 0.1137584 10 1 C11.66623639 1.03786901 13.33397597 1.04627845 15 1 C15 1.99 15 2.98 15 4 C13.68 4 12.36 4 11 4 C10.690625 4.8353125 10.690625 4.8353125 10.375 5.6875 C8.42316968 8.97012371 6.05769006 10.70673246 3 13 C2.34 13 1.68 13 1 13 C1.33 14.98 1.66 16.96 2 19 C2.99 19 3.98 19 5 19 C5 18.01 5 17.02 5 16 C6.9375 16.3125 6.9375 16.3125 9 17 C9.33 17.99 9.66 18.98 10 20 C11.32 20 12.64 20 14 20 C13.67 21.051875 13.34 22.10375 13 23.1875 C11.14634631 30.54952883 11.28948741 38.62426973 13 46 C13.66 46 14.32 46 15 46 C15.639375 46.804375 16.27875 47.60875 16.9375 48.4375 C18.81035932 51.23720732 18.81035932 51.23720732 22 52 C22 52.66 22 53.32 22 54 C24.54232342 54.08152344 27.08199202 54.14073716 29.625 54.1875 C30.33785156 54.21263672 31.05070312 54.23777344 31.78515625 54.26367188 C36.67596541 54.33097659 39.64898626 53.43069829 44 51 C44.99 51 45.98 51 47 51 C46.79375 51.5775 46.5875 52.155 46.375 52.75 C45.91338739 55.51967567 46.57055055 56.64561267 48 59 C47.01 59 46.02 59 45 59 C45.495 60.98 45.495 60.98 46 63 C49.69734787 63.35901784 51.46349596 63.37653724 54.5546875 61.20703125 C55.32039063 60.41683594 56.08609375 59.62664062 56.875 58.8125 C57.65617187 58.03519531 58.43734375 57.25789063 59.2421875 56.45703125 C61.23586947 53.6703069 61.39231744 52.34658663 61 49 C59.515 48.505 59.515 48.505 58 48 C58 49.32 58 50.64 58 52 C57.01 52 56.02 52 55 52 C54.34 51.01 53.68 50.02 53 49 C50.94074861 48.27617533 50.94074861 48.27617533 49 48 C49.144375 47.39414063 49.28875 46.78828125 49.4375 46.1640625 C51.41004134 37.26023005 52.59269782 29.20124611 48 21 C45.0990461 17.27020213 41.57283167 15.11274945 37 14 C31.18237733 13.5043965 26.21220391 13.19857991 21 16 C20.01 16 19.02 16 18 16 C18 14.35 18 12.7 18 11 C18.66 10.67 19.32 10.34 20 10 C20 10.66 20 11.32 20 12 C21.32 12 22.64 12 24 12 C24 10.02 24 8.04 24 6 C24.99 6 25.98 6 27 6 C27 7.32 27 8.64 27 10 C29.97 10 32.94 10 36 10 C36 8.35 36 6.7 36 5 C36.99 5 37.98 5 39 5 C39 7.31 39 9.62 39 12 C39.61875 12.12375 40.2375 12.2475 40.875 12.375 C43 13 43 13 45 15 C45.33 14.34 45.66 13.68 46 13 C46.78375 13.99 47.5675 14.98 48.375 16 C49.24125 16.99 50.1075 17.98 51 19 C51.66 19 52.32 19 53 19 C53.99 17.515 53.99 17.515 55 16 C55.99 16 56.98 16 58 16 C58 16.99 58 17.98 58 19 C58.99 19 59.98 19 61 19 C61.66 16.69 62.32 14.38 63 12 C63.99 12.495 63.99 12.495 65 13 C64.94779297 13.92232422 64.94779297 13.92232422 64.89453125 14.86328125 C64.85392578 16.07564453 64.85392578 16.07564453 64.8125 17.3125 C64.77769531 18.11300781 64.74289063 18.91351563 64.70703125 19.73828125 C65.06743493 22.52059766 66.00656846 23.13213895 68 25 C68 25.99 68 26.98 68 28 C68.928125 27.938125 69.85625 27.87625 70.8125 27.8125 C74 28 74 28 75.875 29.125 C77.52854531 31.88090884 77.39365568 33.85075452 77 37 C75.875 38.875 75.875 38.875 74 40 C70.8125 40.1875 70.8125 40.1875 68 40 C68 40.99 68 41.98 68 43 C67.34 43 66.68 43 66 43 C65.67 48.28 65.34 53.56 65 59 C65.66 59.33 66.32 59.66 67 60 C67.09765625 66.15234375 67.09765625 66.15234375 67 68 C66 69 66 69 64.0390625 69.1328125 C63.24242188 69.13023438 62.44578125 69.12765625 61.625 69.125 C60.83351563 69.12757812 60.04203125 69.13015625 59.2265625 69.1328125 C57 69 57 69 54 68 C51.24510752 68.24683383 48.54760419 68.5529133 45.8125 68.9375 C45.06291016 69.03740234 44.31332031 69.13730469 43.54101562 69.24023438 C41.69318518 69.48739641 39.8464734 69.74289611 38 70 C38.04125 71.093125 38.0825 72.18625 38.125 73.3125 C38 77 38 77 36 80 C32.5625 80.4375 32.5625 80.4375 29 80 C27.0625 78.25 27.0625 78.25 26 76 C26 74.68 26 73.36 26 72 C26.66 72 27.32 72 28 72 C28 72.99 28 73.98 28 75 C29.65 75 31.3 75 33 75 C33 73.35 33 71.7 33 70 C32.32453125 70.01160156 31.6490625 70.02320312 30.953125 70.03515625 C30.06109375 70.04417969 29.1690625 70.05320312 28.25 70.0625 C27.36828125 70.07410156 26.4865625 70.08570312 25.578125 70.09765625 C23 70 23 70 19 69 C18.505 64.545 18.505 64.545 18 60 C16.35 60 14.7 60 13 60 C13.350625 59.443125 13.70125 58.88625 14.0625 58.3125 C15.21845993 55.46113217 14.80967438 53.91482778 14 51 C12.515 50.505 12.515 50.505 11 50 C10.01 50.66 9.02 51.32 8 52 C7.01 52 6.02 52 5 52 C5 51.01 5 50.02 5 49 C4.01 49 3.02 49 2 49 C1.4486901 52.74890735 1.93624345 53.91074083 4.1875 57.0625 C7.37149975 60.56219378 10.45479238 63.48493079 15 65 C15 65.66 15 66.32 15 67 C12.36 67 9.72 67 7 67 C6.67 67.66 6.34 68.32 6 69 C-1.75 69.125 -1.75 69.125 -4 68 C-4 65.36 -4 62.72 -4 60 C-3.34 60 -2.68 60 -2 60 C-2.11402064 57.72858891 -2.24158505 55.45785448 -2.375 53.1875 C-2.44460937 51.92292969 -2.51421875 50.65835938 -2.5859375 49.35546875 C-2.76102939 45.87244766 -2.76102939 45.87244766 -5 43 C-5 42.01 -5 41.02 -5 40 C-5.928125 40.061875 -6.85625 40.12375 -7.8125 40.1875 C-11 40 -11 40 -12.875 38.875 C-14.52854531 36.11909116 -14.39365568 34.14924548 -14 31 C-12.875 29.125 -12.875 29.125 -11 28 C-7.8125 27.8125 -7.8125 27.8125 -5 28 C-4.855625 27.195625 -4.71125 26.39125 -4.5625 25.5625 C-4 23 -4 23 -3 22 C-2.08448636 15.55071504 -1.6920252 9.39454346 -3 3 C-2.34 2.67 -1.68 2.34 -1 2 C-1 3.65 -1 5.3 -1 7 C0.98 7 2.96 7 5 7 C4.80528889 5.05000871 4.80528889 5.05000871 4 3 C2.0162233 1.71563266 2.0162233 1.71563266 0 1 C0 0.67 0 0.34 0 0 Z " fill="#2C2C2C" transform="translate(20,19)"/>
<path d="M0 0 C0.33 1.32 0.66 2.64 1 4 C2.0725 3.9175 3.145 3.835 4.25 3.75 C8 4 8 4 10.3125 6 C10.869375 6.66 11.42625 7.32 12 8 C12.66 8 13.32 8 14 8 C14 6.68 14 5.36 14 4 C12.68 3.67 11.36 3.34 10 3 C10 2.01 10 1.02 10 0 C12.74086056 -0.22223194 14.43963721 -0.34781139 16.8125 1.125 C18.60865875 3.96104013 18.43812207 5.6805346 18 9 C16.38544999 11.46900703 14.38199009 13.41210942 12.25 15.4375 C11.71117188 15.99115234 11.17234375 16.54480469 10.6171875 17.11523438 C9.015625 18.68359375 9.015625 18.68359375 6 21 C2.81889206 20.54440064 -0.0424257 19.23232262 -3 18 C-0.68950414 20.75482198 0.57385872 21.89772609 4.125 22.75 C6.85110535 23.02887654 6.85110535 23.02887654 9 23 C9 22.34 9 21.68 9 21 C10.6796875 19.37890625 10.6796875 19.37890625 12.875 17.5625 C15.46193722 15.41599116 17.11184374 13.83223438 19 11 C19.99 11 20.98 11 22 11 C22.33 8.36 22.66 5.72 23 3 C23.66 3 24.32 3 25 3 C25.41640288 10.2484945 24.44166784 16.16914355 22 23 C23.65 23.33 25.3 23.66 27 24 C27.495 25.485 27.495 25.485 28 27 C28.99 27 29.98 27 31 27 C31 25.68 31 24.36 31 23 C32.32 23.33 33.64 23.66 35 24 C35.4716021 27.53701573 35.18287784 28.75242822 33.0234375 31.67578125 C32.14945313 32.54589844 31.27546875 33.41601562 30.375 34.3125 C29.51648438 35.19550781 28.65796875 36.07851562 27.7734375 36.98828125 C24.53860363 39.33467483 22.90571493 39.4295141 19 39 C18.67 37.35 18.34 35.7 18 34 C18.99 34 19.98 34 21 34 C20.01 32.35 19.02 30.7 18 29 C18.66 28.01 19.32 27.02 20 26 C19.50113281 26.28875 19.00226563 26.5775 18.48828125 26.875 C11.70986797 30.37981692 5.53900896 30.63695228 -2 30 C-2.99 29.67 -3.98 29.34 -5 29 C-5 28.34 -5 27.68 -5 27 C-5.598125 26.896875 -6.19625 26.79375 -6.8125 26.6875 C-9.31258286 25.90175967 -10.37535082 25.03081147 -12 23 C-12 22.34 -12 21.68 -12 21 C-12.66 21 -13.32 21 -14 21 C-16.26113102 16.61905865 -16.88614956 11.85000134 -16 7 C-15.01 6.34 -14.02 5.68 -13 5 C-12.67 6.98 -12.34 8.96 -12 11 C-11.01 11.33 -10.02 11.66 -9 12 C-8.01 13.485 -8.01 13.485 -7 15 C-6.01 15.33 -5.02 15.66 -4 16 C-5.52206009 13.37098712 -6.84365964 11.15634036 -9 9 C-9.33015665 5.89652746 -9.50531294 3.84218824 -7.875 1.125 C-5.21965017 -0.4682099 -3.03210482 -0.20214032 0 0 Z " fill="#EBEBEB" transform="translate(47,44)"/>
<path d="M0 0 C3.98633548 2.37341567 7.42409857 5.30431109 9.625 9.4375 C9.5625 13.0625 9.5625 13.0625 8.625 16.4375 C8.3465625 17.8915625 8.3465625 17.8915625 8.0625 19.375 C7.918125 20.055625 7.77375 20.73625 7.625 21.4375 C6.635 21.7675 5.645 22.0975 4.625 22.4375 C2.95432867 24.43415598 1.28747014 26.43401034 -0.375 28.4375 C-1.035 28.4375 -1.695 28.4375 -2.375 28.4375 C-2.705 29.4275 -3.035 30.4175 -3.375 31.4375 C-4.035 31.4375 -4.695 31.4375 -5.375 31.4375 C-5.375 32.0975 -5.375 32.7575 -5.375 33.4375 C-9.46645526 34.60648722 -10.91864303 34.68258059 -14.75 32.625 C-15.61625 31.903125 -16.4825 31.18125 -17.375 30.4375 C-17.375 29.7775 -17.375 29.1175 -17.375 28.4375 C-12.47586957 29.3901087 -12.47586957 29.3901087 -10.5625 30.2890625 C-8.085992 30.69620149 -8.085992 30.69620149 -5.578125 28.33984375 C-4.58055393 27.3648843 -3.59655844 26.37588369 -2.625 25.375 C-2.11839844 24.89611328 -1.61179687 24.41722656 -1.08984375 23.92382812 C1.45075199 21.36611247 2.57520113 19.79424883 3.078125 16.19140625 C2.8773796 13.30126488 2.8773796 13.30126488 0.625 11.4375 C-1.94561311 10.78982207 -1.94561311 10.78982207 -4.375 10.4375 C-4.375 11.4275 -4.375 12.4175 -4.375 13.4375 C-1.9 13.9325 -1.9 13.9325 0.625 14.4375 C0.295 16.0875 -0.035 17.7375 -0.375 19.4375 C-2.8125 18.625 -2.8125 18.625 -5.375 17.4375 C-5.705 16.4475 -6.035 15.4575 -6.375 14.4375 C-8.685 14.4375 -10.995 14.4375 -13.375 14.4375 C-13.705 13.1175 -14.035 11.7975 -14.375 10.4375 C-18.70729715 11.2979139 -18.70729715 11.2979139 -22.375 13.4375 C-22.79246608 16.31114791 -22.79246608 16.31114791 -22.375 19.4375 C-20.4374994 21.62527466 -20.4374994 21.62527466 -18.375 23.4375 C-18.375 24.4275 -18.375 25.4175 -18.375 26.4375 C-21.82652861 26.18183121 -22.61988569 25.17552926 -25.0625 22.5625 C-27.375 19.4375 -27.375 19.4375 -28.375 16.4375 C-29.035 16.7675 -29.695 17.0975 -30.375 17.4375 C-29.5 9.6875 -29.5 9.6875 -28.375 7.4375 C-27.715 7.4375 -27.055 7.4375 -26.375 7.4375 C-26.148125 6.86 -25.92125 6.2825 -25.6875 5.6875 C-20.61787771 -3.00328106 -8.56011741 -3.87440517 0 0 Z " fill="#E5E5E5" transform="translate(61.375,33.5625)"/>
<path d="M0 0 C3.563579 -0.08099043 6.56581379 0.1137584 10 1 C11.66623639 1.03786901 13.33397597 1.04627845 15 1 C15 1.99 15 2.98 15 4 C13.68 4 12.36 4 11 4 C10.690625 4.8353125 10.690625 4.8353125 10.375 5.6875 C8.42316968 8.97012371 6.05769006 10.70673246 3 13 C2.34 13 1.68 13 1 13 C1.33 14.98 1.66 16.96 2 19 C2.99 19 3.98 19 5 19 C5 18.01 5 17.02 5 16 C6.9375 16.3125 6.9375 16.3125 9 17 C9.33 17.99 9.66 18.98 10 20 C11.32 20 12.64 20 14 20 C12.125 25.875 12.125 25.875 11 27 C10.76472227 29.34987262 10.58613583 31.70556039 10.4375 34.0625 C10.35371094 35.35285156 10.26992188 36.64320312 10.18359375 37.97265625 C10.09271484 39.47119141 10.09271484 39.47119141 10 41 C8.02 41 6.04 41 4 41 C4 40.34 4 39.68 4 39 C5.32 39 6.64 39 8 39 C7.67 36.03 7.34 33.06 7 30 C5.68 29.67 4.36 29.34 3 29 C3 28.34 3 27.68 3 27 C4.98 27 6.96 27 9 27 C9 26.01 9 25.02 9 24 C5.37 24.33 1.74 24.66 -2 25 C-1.85919445 27.77117304 -1.71256882 30.54182641 -1.5625 33.3125 C-1.52318359 34.09818359 -1.48386719 34.88386719 -1.44335938 35.69335938 C-1.38051758 36.8293457 -1.38051758 36.8293457 -1.31640625 37.98828125 C-1.27974854 38.68477783 -1.24309082 39.38127441 -1.20532227 40.09887695 C-1.04418847 42.2216572 -1.04418847 42.2216572 0 45 C2.97 45 5.94 45 9 45 C8.67 45.66 8.34 46.32 8 47 C-1.2519084 47.30839695 -1.2519084 47.30839695 -4 45 C-4.75 42.375 -4.75 42.375 -5 40 C-5.928125 40.061875 -6.85625 40.12375 -7.8125 40.1875 C-11 40 -11 40 -12.875 38.875 C-14.52854531 36.11909116 -14.39365568 34.14924548 -14 31 C-12.875 29.125 -12.875 29.125 -11 28 C-7.8125 27.8125 -7.8125 27.8125 -5 28 C-4.855625 27.195625 -4.71125 26.39125 -4.5625 25.5625 C-4 23 -4 23 -3 22 C-2.08448636 15.55071504 -1.6920252 9.39454346 -3 3 C-2.34 2.67 -1.68 2.34 -1 2 C-1 3.65 -1 5.3 -1 7 C0.98 7 2.96 7 5 7 C4.80528889 5.05000871 4.80528889 5.05000871 4 3 C2.0162233 1.71563266 2.0162233 1.71563266 0 1 C0 0.67 0 0.34 0 0 Z " fill="#1B1B1B" transform="translate(20,19)"/>
<path d="M0 0 C0.33 0 0.66 0 1 0 C1 4.29 1 8.58 1 13 C1.66 13.33 2.32 13.66 3 14 C3.09765625 20.15234375 3.09765625 20.15234375 3 22 C2 23 2 23 0.0390625 23.1328125 C-0.75757813 23.13023438 -1.55421875 23.12765625 -2.375 23.125 C-3.16648438 23.12757812 -3.95796875 23.13015625 -4.7734375 23.1328125 C-7 23 -7 23 -10 22 C-12.59069971 22.24632882 -15.11836247 22.55128978 -17.6875 22.9375 C-18.7403418 23.08735352 -18.7403418 23.08735352 -19.81445312 23.24023438 C-21.54386527 23.48729325 -23.2720627 23.74282852 -25 24 C-25 23.34 -25 22.68 -25 22 C-26.04800781 22.03480469 -27.09601562 22.06960937 -28.17578125 22.10546875 C-29.55467147 22.13360937 -30.93357902 22.16090924 -32.3125 22.1875 C-33.34793945 22.22520508 -33.34793945 22.22520508 -34.40429688 22.26367188 C-39.469107 22.33707492 -39.469107 22.33707492 -41.96875 20.75 C-43.83268814 17.58695347 -43.17676458 14.59421313 -43 11 C-42.01 11 -41.02 11 -40 11 C-40 12.98 -40 14.96 -40 17 C-39.01 17 -38.02 17 -37 17 C-37 15.35 -37 13.7 -37 12 C-34.03 12 -31.06 12 -28 12 C-28 13.65 -28 15.3 -28 17 C-27.01 17 -26.02 17 -25 17 C-25 15.02 -25 13.04 -25 11 C-24.01 11 -23.02 11 -22 11 C-22 13.64 -22 16.28 -22 19 C-21.01 19 -20.02 19 -19 19 C-18.67 18.34 -18.34 17.68 -18 17 C-17.11957031 17.103125 -16.23914063 17.20625 -15.33203125 17.3125 C-10.88371487 16.89530737 -9.66175658 15.24956713 -6.6875 12 C-5.13243829 10.32639099 -3.57192818 8.65777737 -2 7 C-1.67 7 -1.34 7 -1 7 C-0.67 4.69 -0.34 2.38 0 0 Z " fill="#4F4F4F" transform="translate(84,65)"/>
<path d="M0 0 C0.33 1.32 0.66 2.64 1 4 C2.60875 3.87625 2.60875 3.87625 4.25 3.75 C8 4 8 4 10.3125 6 C10.869375 6.66 11.42625 7.32 12 8 C12.66 8 13.32 8 14 8 C14 6.68 14 5.36 14 4 C12.68 3.67 11.36 3.34 10 3 C10 2.01 10 1.02 10 0 C12.74086056 -0.22223194 14.43963721 -0.34781139 16.8125 1.125 C18.60865875 3.96104013 18.43812207 5.6805346 18 9 C16.38544999 11.46900703 14.38199009 13.41210942 12.25 15.4375 C11.71117188 15.99115234 11.17234375 16.54480469 10.6171875 17.11523438 C9.015625 18.68359375 9.015625 18.68359375 6 21 C2.81889206 20.54440064 -0.0424257 19.23232262 -3 18 C-3.33 18.66 -3.66 19.32 -4 20 C-4.12375 18.39125 -4.12375 18.39125 -4.25 16.75 C-4.64464519 12.97399843 -4.64464519 12.97399843 -7.0625 10.9375 C-9 9 -9 9 -9.4375 5.9375 C-9 3 -9 3 -7.875 1.125 C-5.21965017 -0.4682099 -3.03210482 -0.20214032 0 0 Z " fill="#F4F4F4" transform="translate(47,44)"/>
<path d="M0 0 C0.99 0 1.98 0 3 0 C3 2.31 3 4.62 3 7 C3.61875 7.12375 4.2375 7.2475 4.875 7.375 C7 8 7 8 9 10 C9.33 9.34 9.66 8.68 10 8 C10.78375 8.99 11.5675 9.98 12.375 11 C13.24125 11.99 14.1075 12.98 15 14 C15.66 14 16.32 14 17 14 C17.66 13.01 18.32 12.02 19 11 C19.99 11 20.98 11 22 11 C22 11.99 22 12.98 22 14 C22.99 14 23.98 14 25 14 C25.66 11.69 26.32 9.38 27 7 C27.66 7.33 28.32 7.66 29 8 C28.98839844 8.62648438 28.97679687 9.25296875 28.96484375 9.8984375 C28.95582031 10.71570312 28.94679687 11.53296875 28.9375 12.375 C28.92589844 13.18710937 28.91429687 13.99921875 28.90234375 14.8359375 C28.85533666 17.04937142 28.85533666 17.04937142 30 19 C29.34 19.66 28.68 20.32 28 21 C27.67 20.67 27.34 20.34 27 20 C25.48530552 19.76807135 23.96245438 19.58784762 22.4375 19.4375 C21.61121094 19.35371094 20.78492188 19.26992188 19.93359375 19.18359375 C18.97646484 19.09271484 18.97646484 19.09271484 18 19 C18 19.99 18 20.98 18 22 C19.98 22 21.96 22 24 22 C24 22.66 24 23.32 24 24 C22.68 24 21.36 24 20 24 C20 26.97 20 29.94 20 33 C21.32 33 22.64 33 24 33 C24 34.32 24 35.64 24 37 C22.35 37 20.7 37 19 37 C19 37.66 19 38.32 19 39 C21.31 39 23.62 39 26 39 C26 39.33 26 39.66 26 40 C23.36 40 20.72 40 18 40 C18 38.68 18 37.36 18 36 C19.65 36 21.3 36 23 36 C23 35.34 23 34.68 23 34 C21.68 34 20.36 34 19 34 C18.67 33.01 18.34 32.02 18 31 C17.34 32.98 16.68 34.96 16 37 C15.08427817 33.93585388 14.97458034 31.37138281 15.125 28.1875 C15.17715048 22.28580414 13.92879603 18.47988061 10.25 13.75 C3.68624627 8.64485821 -2.86551672 8.11656529 -11 9 C-12.34986579 9.63252239 -13.68692986 10.29425995 -15 11 C-15.99 11 -16.98 11 -18 11 C-18 9.35 -18 7.7 -18 6 C-17.34 5.67 -16.68 5.34 -16 5 C-16 5.66 -16 6.32 -16 7 C-14.68 7 -13.36 7 -12 7 C-12 5.02 -12 3.04 -12 1 C-11.01 1 -10.02 1 -9 1 C-9 2.32 -9 3.64 -9 5 C-6.03 5 -3.06 5 0 5 C0 3.35 0 1.7 0 0 Z " fill="#3A3A3A" transform="translate(56,24)"/>
<path d="M0 0 C2.31049784 1.11156304 3.97849628 2.38279702 6 4 C6.33 2.68 6.66 1.36 7 0 C15.03956273 -0.77303488 15.03956273 -0.77303488 18.5625 2.0625 C20.42249448 5.86335829 20.71126343 7.80354574 20 12 C17.66033601 16.1145815 15.57908416 19.47363861 11 21 C10.67 21.99 10.34 22.98 10 24 C9.34 24 8.68 24 8 24 C8 24.66 8 25.32 8 26 C3.90854474 27.16898722 2.45635697 27.24508059 -1.375 25.1875 C-2.24125 24.465625 -3.1075 23.74375 -4 23 C-4 22.34 -4 21.68 -4 21 C0.89913043 21.9526087 0.89913043 21.9526087 2.8125 22.8515625 C5.289008 23.25870149 5.289008 23.25870149 7.796875 20.90234375 C8.79444607 19.9273843 9.77844156 18.93838369 10.75 17.9375 C11.25660156 17.45861328 11.76320313 16.97972656 12.28515625 16.48632812 C14.82575199 13.92861247 15.95020113 12.35674883 16.453125 8.75390625 C16.2523796 5.86376488 16.2523796 5.86376488 14 4 C11.42938689 3.35232207 11.42938689 3.35232207 9 3 C9 3.99 9 4.98 9 6 C11.475 6.495 11.475 6.495 14 7 C13.67 8.65 13.34 10.3 13 12 C10.5625 11.1875 10.5625 11.1875 8 10 C7.67 9.01 7.34 8.02 7 7 C4.69 7 2.38 7 0 7 C-0.33 5.68 -0.66 4.36 -1 3 C-5.33229715 3.8604139 -5.33229715 3.8604139 -9 6 C-9.41746608 8.87364791 -9.41746608 8.87364791 -9 12 C-7.0624994 14.18777466 -7.0624994 14.18777466 -5 16 C-5 16.99 -5 17.98 -5 19 C-7.55390984 18.63515574 -9.0891745 17.94055033 -11.25 16.5 C-13.81254765 12.83921764 -13.51185155 9.34654271 -13 5 C-12.67 4.34 -12.34 3.68 -12 3 C-11.34 3 -10.68 3 -10 3 C-10 2.34 -10 1.68 -10 1 C-6.7932882 -0.6033559 -3.47875318 -0.49604443 0 0 Z " fill="#333333" transform="translate(48,41)"/>
<path d="M0 0 C12.96577947 -0.20912548 12.96577947 -0.20912548 19 1 C19.66 1.66 20.32 2.32 21 3 C20.625 6.125 20.625 6.125 20 9 C18.35 9 16.7 9 15 9 C16.32 10.65 17.64 12.3 19 14 C18.34 15.32 17.68 16.64 17 18 C16.34 18 15.68 18 15 18 C15 18.66 15 19.32 15 20 C12.07120629 19.37240135 9.63904371 18.41377341 7 17 C7.33 18.32 7.66 19.64 8 21 C6.35 20.67 4.7 20.34 3 20 C2.4375 17.4375 2.4375 17.4375 3 14 C5.17436121 11.91623718 7.46171888 10.23317186 9.93359375 8.515625 C12.10950299 7.16160384 12.10950299 7.16160384 13 5 C14.32 5 15.64 5 17 5 C17 4.01 17 3.02 17 2 C15.0509375 2.2784375 15.0509375 2.2784375 13.0625 2.5625 C10.84765625 2.87890625 10.84765625 2.87890625 9 3 C8.67 2.67 8.34 2.34 8 2 C6.33382885 1.95936168 4.66611905 1.957279 3 2 C4.32 2.66 5.64 3.32 7 4 C7 5.32 7 6.64 7 8 C5.02 8 3.04 8 1 8 C0.67 6.68 0.34 5.36 0 4 C0 5.98 0 7.96 0 10 C-0.66 10 -1.32 10 -2 10 C-2 7.36 -2 4.72 -2 2 C-1.34 2 -0.68 2 0 2 C0 1.34 0 0.68 0 0 Z " fill="#DADADA" transform="translate(18,18)"/>
<path d="M0 0 C0.66 0 1.32 0 2 0 C2 0.66 2 1.32 2 2 C3.65 2.33 5.3 2.66 7 3 C7.33 3.99 7.66 4.98 8 6 C8.99 6 9.98 6 11 6 C11 4.68 11 3.36 11 2 C12.32 2.33 13.64 2.66 15 3 C15.4716021 6.53701573 15.18287784 7.75242822 13.0234375 10.67578125 C12.14945313 11.54589844 11.27546875 12.41601562 10.375 13.3125 C9.51648438 14.19550781 8.65796875 15.07851562 7.7734375 15.98828125 C4.53860363 18.33467483 2.90571493 18.4295141 -1 18 C-1.33 16.35 -1.66 14.7 -2 13 C-1.01 13 -0.02 13 1 13 C0.01 11.35 -0.98 9.7 -2 8 C-1.34 7.01 -0.68 6.02 0 5 C-1.32 5.33 -2.64 5.66 -4 6 C-4 5.34 -4 4.68 -4 4 C-2.68 3.67 -1.36 3.34 0 3 C0 2.01 0 1.02 0 0 Z " fill="#E3E3E3" transform="translate(67,65)"/>
<path d="M0 0 C2.0625 0.4375 2.0625 0.4375 4 1 C3.67 1.99 3.34 2.98 3 4 C3.9075 3.46375 4.815 2.9275 5.75 2.375 C9 1 9 1 11.3125 1.5 C13 3 13 3 13.9375 5.375 C14.01450945 8.60939697 13.15650737 9.67097204 11 12 C12.65 12 14.3 12 16 12 C16.33 14.31 16.66 16.62 17 19 C14.04335481 20.4783226 11.25770263 20.06032783 8 20 C8 19.67 8 19.34 8 19 C9.65 19 11.3 19 13 19 C13 18.34 13 17.68 13 17 C12.42507812 16.90460938 11.85015625 16.80921875 11.2578125 16.7109375 C8.50200233 15.84319105 7.01492872 14.55337683 4.875 12.625 C4.19179688 12.01914063 3.50859375 11.41328125 2.8046875 10.7890625 C0.40708441 8.41221788 -0.94289297 6.79949847 -1.1875 3.375 C-1 1 -1 1 0 0 Z " fill="#E6E6E6" transform="translate(22,67)"/>
<path d="M0 0 C3.73935806 -0.36187336 5.55469539 -0.28223531 8.7734375 1.7578125 C9.63195312 2.53898437 10.49046875 3.32015625 11.375 4.125 C12.24898437 4.89070313 13.12296875 5.65640625 14.0234375 6.4453125 C16.41791546 9.5401516 16.40966678 11.18013412 16 15 C14.35 15.33 12.7 15.66 11 16 C11.33 14.68 11.66 13.36 12 12 C8.72226496 12.75150023 8.72226496 12.75150023 7 16 C4.15616877 14.7251791 1.86245982 13.54862922 0 11 C0.3125 8.8125 0.3125 8.8125 1 7 C1.66 7 2.32 7 3 7 C3 6.01 3 5.02 3 4 C1.68 4.33 0.36 4.66 -1 5 C-0.67 3.35 -0.34 1.7 0 0 Z " fill="#EEEEEE" transform="translate(66,23)"/>
<path d="M0 0 C1.22589844 0.01353516 1.22589844 0.01353516 2.4765625 0.02734375 C3.41628906 0.04474609 3.41628906 0.04474609 4.375 0.0625 C4.375 1.0525 4.375 2.0425 4.375 3.0625 C2.395 3.0625 0.415 3.0625 -1.625 3.0625 C-1.625 3.7225 -1.625 4.3825 -1.625 5.0625 C-0.305 5.0625 1.015 5.0625 2.375 5.0625 C2.375 8.0325 2.375 11.0025 2.375 14.0625 C1.055 14.0625 -0.265 14.0625 -1.625 14.0625 C-1.625 15.3825 -1.625 16.7025 -1.625 18.0625 C0.025 18.0625 1.675 18.0625 3.375 18.0625 C3.375 18.7225 3.375 19.3825 3.375 20.0625 C-2.6796875 20.2578125 -2.6796875 20.2578125 -4.625 20.0625 C-6.625 18.0625 -6.625 18.0625 -6.8203125 14.1484375 C-6.80700376 12.57800649 -6.78313602 11.00763779 -6.75 9.4375 C-6.74097656 8.63570312 -6.73195313 7.83390625 -6.72265625 7.0078125 C-6.69906223 5.02591477 -6.66319065 3.04417019 -6.625 1.0625 C-4.21954362 -0.14022819 -2.67503047 -0.03821472 0 0 Z " fill="#F8F8F8" transform="translate(24.625,42.9375)"/>
<path d="M0 0 C1.09924805 0.00483398 1.09924805 0.00483398 2.22070312 0.00976562 C2.94966797 -0.00634766 3.67863281 -0.02246094 4.4296875 -0.0390625 C9.71729678 -0.04390907 9.71729678 -0.04390907 12.27539062 1.61132812 C13.9228691 4.40821019 13.46182647 7.16658658 13.28320312 10.32226562 C12.29320313 10.32226562 11.30320312 10.32226562 10.28320312 10.32226562 C10.28320312 8.34226562 10.28320312 6.36226562 10.28320312 4.32226562 C9.29320313 4.32226562 8.30320312 4.32226562 7.28320312 4.32226562 C7.28320312 5.97226562 7.28320312 7.62226563 7.28320312 9.32226562 C4.31320313 9.32226562 1.34320313 9.32226562 -1.71679688 9.32226562 C-1.71679688 8.00226562 -1.71679688 6.68226562 -1.71679688 5.32226562 C-2.70679688 5.32226562 -3.69679688 5.32226562 -4.71679688 5.32226562 C-4.71679688 6.97226562 -4.71679688 8.62226563 -4.71679688 10.32226562 C-5.70679688 10.32226562 -6.69679687 10.32226562 -7.71679688 10.32226562 C-7.91210938 4.26757812 -7.91210938 4.26757812 -7.71679688 2.32226562 C-5.17479392 -0.21973733 -3.47455304 0.0350965 0 0 Z " fill="#FCFCFC" transform="translate(48.716796875,19.677734375)"/>
<path d="M0 0 C0.99 0 1.98 0 3 0 C3 1.98 3 3.96 3 6 C3.99 6 4.98 6 6 6 C6 4.35 6 2.7 6 1 C8.97 1 11.94 1 15 1 C15 2.65 15 4.3 15 6 C15.99 6 16.98 6 18 6 C18 4.02 18 2.04 18 0 C18.99 0 19.98 0 21 0 C21.29296875 6.0546875 21.29296875 6.0546875 21 8 C17.24986585 10.50008943 14.27488094 10.29601996 9.9375 10.25 C9.20466797 10.25773437 8.47183594 10.26546875 7.71679688 10.2734375 C2.25336982 10.25336982 2.25336982 10.25336982 0 8 C-0.26991906 5.31160615 -0.08737357 2.70858064 0 0 Z " fill="#F2F2F2" transform="translate(41,76)"/>
<path d="M0 0 C1.45792884 -0.05399736 2.91642712 -0.09279177 4.375 -0.125 C5.18710938 -0.14820313 5.99921875 -0.17140625 6.8359375 -0.1953125 C9 0 9 0 11 2 C11.19852102 4.70922801 11.27839477 7.29303179 11.25 10 C11.25773437 10.73734375 11.26546875 11.4746875 11.2734375 12.234375 C11.2533196 17.7466804 11.2533196 17.7466804 9 20 C6.31160615 20.26991906 3.70858064 20.08737357 1 20 C1 19.34 1 18.68 1 18 C2.65 18 4.3 18 6 18 C6 16.68 6 15.36 6 14 C4.68 14 3.36 14 2 14 C2 11.03 2 8.06 2 5 C3.32 5 4.64 5 6 5 C6 4.34 6 3.68 6 3 C4.02 3 2.04 3 0 3 C0 2.01 0 1.02 0 0 Z " fill="#EEEEEE" transform="translate(74,43)"/>
<path d="M0 0 C-0.309375 0.86625 -0.309375 0.86625 -0.625 1.75 C-1.08661261 4.51967567 -0.42944945 5.64561267 1 8 C0.01 8 -0.98 8 -2 8 C-2 9.98 -2 11.96 -2 14 C-2.99 14 -3.98 14 -5 14 C-5 11.36 -5 8.72 -5 6 C-5.99 6 -6.98 6 -8 6 C-8 7.98 -8 9.96 -8 12 C-8.99 12 -9.98 12 -11 12 C-11 10.35 -11 8.7 -11 7 C-13.97 7 -16.94 7 -20 7 C-20 8.65 -20 10.3 -20 12 C-20.99 12 -21.98 12 -23 12 C-23.66 9.03 -24.32 6.06 -25 3 C-23.37191406 3.05220703 -23.37191406 3.05220703 -21.7109375 3.10546875 C-20.26564058 3.13362388 -18.82032679 3.16092219 -17.375 3.1875 C-16.66214844 3.21263672 -15.94929688 3.23777344 -15.21484375 3.26367188 C-9.48586562 3.34251102 -5.35747516 0 0 0 Z " fill="#2B2B2B" transform="translate(67,70)"/>
<path d="M0 0 C2.31049784 1.11156304 3.97849628 2.38279702 6 4 C5.67 4.66 5.34 5.32 5 6 C2.83125748 5.49396008 1.00032373 5.00016187 -1 4 C-4 3.75 -4 3.75 -7 4 C-9.280721 5.87424716 -9.280721 5.87424716 -9.375 8.875 C-8.91891282 12.67572646 -7.7607391 13.49808019 -5 16 C-5 16.99 -5 17.98 -5 19 C-7.55390984 18.63515574 -9.0891745 17.94055033 -11.25 16.5 C-13.81254765 12.83921764 -13.51185155 9.34654271 -13 5 C-12.67 4.34 -12.34 3.68 -12 3 C-11.34 3 -10.68 3 -10 3 C-10 2.34 -10 1.68 -10 1 C-6.7932882 -0.6033559 -3.47875318 -0.49604443 0 0 Z " fill="#3E3E3E" transform="translate(48,41)"/>
<path d="M0 0 C0.99 0.495 0.99 0.495 2 1 C2 1.99 2 2.98 2 4 C2.928125 3.938125 3.85625 3.87625 4.8125 3.8125 C8 4 8 4 9.875 5.125 C11.52854531 7.88090884 11.39365568 9.85075452 11 13 C9.875 14.875 9.875 14.875 8 16 C6.02 16 4.04 16 2 16 C1.34 10.72 0.68 5.44 0 0 Z " fill="#323232" transform="translate(86,43)"/>
<path d="M0 0 C0.66 0.66 1.32 1.32 2 2 C1.34 2.66 0.68 3.32 0 4 C-0.33 3.67 -0.66 3.34 -1 3 C-2.51469448 2.76807135 -4.03754562 2.58784762 -5.5625 2.4375 C-6.38878906 2.35371094 -7.21507813 2.26992188 -8.06640625 2.18359375 C-8.70449219 2.12300781 -9.34257813 2.06242187 -10 2 C-10 2.99 -10 3.98 -10 5 C-8.02 5 -6.04 5 -4 5 C-4 5.66 -4 6.32 -4 7 C-5.32 7 -6.64 7 -8 7 C-8 9.97 -8 12.94 -8 16 C-6.68 16 -5.36 16 -4 16 C-4 17.32 -4 18.64 -4 20 C-5.65 20 -7.3 20 -9 20 C-9 20.66 -9 21.32 -9 22 C-6.69 22 -4.38 22 -2 22 C-2 22.33 -2 22.66 -2 23 C-4.64 23 -7.28 23 -10 23 C-10 21.68 -10 20.36 -10 19 C-8.35 19 -6.7 19 -5 19 C-5 18.34 -5 17.68 -5 17 C-6.32 17 -7.64 17 -9 17 C-9.33 16.01 -9.66 15.02 -10 14 C-10.66 15.98 -11.32 17.96 -12 20 C-13.14941049 16.11175981 -13.03693803 12.55618147 -12.9375 8.53515625 C-13.00210013 5.91481364 -13.41595527 3.55063283 -14 1 C-11.70954632 0.77872902 -9.41755236 0.5733496 -7.125 0.375 C-5.84882812 0.25898437 -4.57265625 0.14296875 -3.2578125 0.0234375 C-2.18273437 0.01570313 -1.10765625 0.00796875 0 0 Z " fill="#535353" transform="translate(84,41)"/>
<path d="M0 0 C2.97 0.495 2.97 0.495 6 1 C4.125 6.875 4.125 6.875 3 8 C2.76472227 10.34987262 2.58613583 12.70556039 2.4375 15.0625 C2.35371094 16.35285156 2.26992188 17.64320312 2.18359375 18.97265625 C2.12300781 19.97167969 2.06242187 20.97070312 2 22 C0.02 22 -1.96 22 -4 22 C-4 21.34 -4 20.68 -4 20 C-2.68 20 -1.36 20 0 20 C-0.33 17.03 -0.66 14.06 -1 11 C-2.32 10.67 -3.64 10.34 -5 10 C-5 9.34 -5 8.68 -5 8 C-3.02 8 -1.04 8 1 8 C1 6.68 1 5.36 1 4 C-1.97 4 -4.94 4 -8 4 C-7.67 3.01 -7.34 2.02 -7 1 C-4.69 1.33 -2.38 1.66 0 2 C0 1.34 0 0.68 0 0 Z " fill="#0F0F0F" transform="translate(28,38)"/>
<path d="M0 0 C0.93423645 3.01031744 1.04449911 3.86650268 0 7 C-1.03861443 11.10916123 -1.03861443 11.10916123 0 15 C-5.4 15.36 -5.4 15.36 -7.875 13.875 C-9.52854531 11.11909116 -9.39365568 9.14924548 -9 6 C-7.875 4.125 -7.875 4.125 -6 3 C-2.8125 2.8125 -2.8125 2.8125 0 3 C0 2.01 0 1.02 0 0 Z " fill="#373737" transform="translate(15,44)"/>
<path d="M0 0 C3.9174715 2.13680263 7.07064633 4.71131182 10.3515625 7.6953125 C12.08086945 9.21628944 12.08086945 9.21628944 15 10 C15 10.66 15 11.32 15 12 C12.36 12 9.72 12 7 12 C6.67 12.66 6.34 13.32 6 14 C3.36 14 0.72 14 -2 14 C-3.35439668 11.29120665 -3.06501451 8.99066732 -3 6 C-2.34 6 -1.68 6 -1 6 C-1 7.65 -1 9.3 -1 11 C0.98 11 2.96 11 5 11 C4.67 9.35 4.34 7.7 4 6 C3.01 5.67 2.02 5.34 1 5 C0.67 3.35 0.34 1.7 0 0 Z " fill="#262626" transform="translate(20,74)"/>
<path d="M0 0 C0.29648437 0.62390625 0.59296875 1.2478125 0.8984375 1.890625 C2.01982926 4.03797092 3.21905418 5.38095835 5 7 C4.34 8.32 3.68 9.64 3 11 C2.34 11 1.68 11 1 11 C1 11.66 1 12.32 1 13 C0.443125 12.855625 -0.11375 12.71125 -0.6875 12.5625 C-5.42442992 11.08246474 -5.42442992 11.08246474 -10 12 C-8.52278578 8.54798361 -6.56205999 6.35038064 -3.875 3.75 C-3.15054687 3.04359375 -2.42609375 2.3371875 -1.6796875 1.609375 C-1.12539063 1.07828125 -0.57109375 0.5471875 0 0 Z " fill="#F3F3F3" transform="translate(32,25)"/>
<path d="M0 0 C1.88370884 3.76741768 1.03017661 8.61935922 0.9609375 12.79101562 C0.92645032 16.12765021 0.93666743 18.81000229 2 22 C4.97 22 7.94 22 11 22 C10.67 22.66 10.34 23.32 10 24 C0.62773723 24.31240876 0.62773723 24.31240876 -2 22 C-2.75 18.875 -2.75 18.875 -3 16 C-4.32 15.67 -5.64 15.34 -7 15 C-6.01 15 -5.02 15 -4 15 C-4.061875 13.80375 -4.12375 12.6075 -4.1875 11.375 C-4.20212946 7.25680815 -3.16371399 4.54849094 -1 1 C-0.67 0.67 -0.34 0.34 0 0 Z " fill="#0F0F0F" transform="translate(18,42)"/>
<path d="M0 0 C0.99 0 1.98 0 3 0 C3 2.31 3 4.62 3 7 C2.20335938 7.03738281 1.40671875 7.07476563 0.5859375 7.11328125 C-5.34196223 7.48107065 -9.78947164 7.9271243 -15 11 C-15.99 11 -16.98 11 -18 11 C-18 9.35 -18 7.7 -18 6 C-17.34 5.67 -16.68 5.34 -16 5 C-16 5.66 -16 6.32 -16 7 C-14.68 7 -13.36 7 -12 7 C-12 5.02 -12 3.04 -12 1 C-11.01 1 -10.02 1 -9 1 C-9 2.32 -9 3.64 -9 5 C-6.03 5 -3.06 5 0 5 C0 3.35 0 1.7 0 0 Z " fill="#212121" transform="translate(56,24)"/>
<path d="M0 0 C0.33 0 0.66 0 1 0 C1.09765625 6.15234375 1.09765625 6.15234375 1 8 C0 9 0 9 -1.9609375 9.1328125 C-2.75757812 9.13023438 -3.55421875 9.12765625 -4.375 9.125 C-5.16648437 9.12757812 -5.95796875 9.13015625 -6.7734375 9.1328125 C-9 9 -9 9 -12 8 C-14.06587115 8.08573227 -16.12946525 8.23833535 -18.1875 8.4375 C-19.27417969 8.53933594 -20.36085938 8.64117187 -21.48046875 8.74609375 C-22.31191406 8.82988281 -23.14335938 8.91367188 -24 9 C-23.34 8.01 -22.68 7.02 -22 6 C-19.9765625 5.7421875 -19.9765625 5.7421875 -17.625 5.875 C-14.50733316 6.03140469 -12.00196651 5.89099463 -9 5 C-8.67 3.68 -8.34 2.36 -8 1 C-6.02 1 -4.04 1 -2 1 C-2 2.65 -2 4.3 -2 6 C-2.99 6.495 -2.99 6.495 -4 7 C-3.01 7 -2.02 7 -1 7 C-0.67 4.69 -0.34 2.38 0 0 Z " fill="#8C8C8C" transform="translate(86,79)"/>
<path d="M0 0 C0.33 0 0.66 0 1 0 C1 2.31 1 4.62 1 7 C2.32 7 3.64 7 5 7 C5 7.66 5 8.32 5 9 C3.35 9 1.7 9 0 9 C0.33 10.65 0.66 12.3 1 14 C3.97 14.495 3.97 14.495 7 15 C6.01 15.33 5.02 15.66 4 16 C4 17.32 4 18.64 4 20 C3.01 20 2.02 20 1 20 C0.34 19.01 -0.32 18.02 -1 17 C-3.05925139 16.27617533 -3.05925139 16.27617533 -5 16 C-4.34159688 11.6545394 -2.75132584 8.01345504 -1 4 C-0.62691369 2.67723944 -0.26953585 1.34767923 0 0 Z " fill="#212121" transform="translate(74,51)"/>
<path d="M0 0 C3.625 0.1875 3.625 0.1875 6.625 2.1875 C7.03343923 4.89953652 6.75836867 7.4312142 6.625 10.1875 C5.635 10.5175 4.645 10.8475 3.625 11.1875 C3.625 10.5275 3.625 9.8675 3.625 9.1875 C1.975 9.1875 0.325 9.1875 -1.375 9.1875 C-2 6.8125 -2 6.8125 -2.375 4.1875 C-1.715 3.5275 -1.055 2.8675 -0.375 2.1875 C-1.695 1.8575 -3.015 1.5275 -4.375 1.1875 C-3.375 0.1875 -3.375 0.1875 0 0 Z " fill="#474747" transform="translate(80.375,17.8125)"/>
<path d="M0 0 C1.65 0 3.3 0 5 0 C5.25 6.625 5.25 6.625 3 10 C-0.4375 10.4375 -0.4375 10.4375 -4 10 C-5.9375 8.25 -5.9375 8.25 -7 6 C-7 4.68 -7 3.36 -7 2 C-6.34 2 -5.68 2 -5 2 C-5 2.99 -5 3.98 -5 5 C-3.35 5 -1.7 5 0 5 C0 3.35 0 1.7 0 0 Z " fill="#5A5A5A" transform="translate(53,89)"/>
<path d="M0 0 C0.66 0 1.32 0 2 0 C2.06058594 0.74765625 2.12117188 1.4953125 2.18359375 2.265625 C2.26738281 3.25046875 2.35117187 4.2353125 2.4375 5.25 C2.51871094 6.22453125 2.59992187 7.1990625 2.68359375 8.203125 C2.95074584 10.56461753 3.35371968 12.71901065 4 15 C5.32 15.33 6.64 15.66 8 16 C8 17.65 8 19.3 8 21 C6.02 21 4.04 21 2 21 C2 19.35 2 17.7 2 16 C1.34 16 0.68 16 0 16 C0.33 18.31 0.66 20.62 1 23 C0.34 23 -0.32 23 -1 23 C-1 20.36 -1 17.72 -1 15 C-0.34 15 0.32 15 1 15 C0.67 10.05 0.34 5.1 0 0 Z " fill="#676767" transform="translate(17,64)"/>
<path d="M0 0 C3.0625 0.1875 3.0625 0.1875 5.0625 2.1875 C4.6875 5.8125 4.6875 5.8125 4.0625 9.1875 C1.7525 9.1875 -0.5575 9.1875 -2.9375 9.1875 C-3.81640625 3.03515625 -3.81640625 3.03515625 -3.9375 1.1875 C-2.9375 0.1875 -2.9375 0.1875 0 0 Z " fill="#393939" transform="translate(50.9375,7.8125)"/>
<path d="M0 0 C1.47668858 0.0133035 2.95331108 0.03716415 4.4296875 0.0703125 C5.18378906 0.07933594 5.93789063 0.08835937 6.71484375 0.09765625 C8.57826004 0.1212438 10.44151343 0.15711531 12.3046875 0.1953125 C12.3046875 0.5253125 12.3046875 0.8553125 12.3046875 1.1953125 C5.8696875 1.6903125 5.8696875 1.6903125 -0.6953125 2.1953125 C-0.0353125 2.8553125 0.6246875 3.5153125 1.3046875 4.1953125 C1.3046875 5.5153125 1.3046875 6.8353125 1.3046875 8.1953125 C3.9446875 8.1953125 6.5846875 8.1953125 9.3046875 8.1953125 C9.3046875 8.5253125 9.3046875 8.8553125 9.3046875 9.1953125 C6.3346875 9.1953125 3.3646875 9.1953125 0.3046875 9.1953125 C0.3046875 7.8753125 0.3046875 6.5553125 0.3046875 5.1953125 C-0.6853125 5.1953125 -1.6753125 5.1953125 -2.6953125 5.1953125 C-2.6953125 6.8453125 -2.6953125 8.4953125 -2.6953125 10.1953125 C-3.6853125 10.1953125 -4.6753125 10.1953125 -5.6953125 10.1953125 C-5.890625 4.140625 -5.890625 4.140625 -5.6953125 2.1953125 C-3.6953125 0.1953125 -3.6953125 0.1953125 0 0 Z " fill="#D8D8D8" transform="translate(46.6953125,19.8046875)"/>
<path d="M0 0 C1.80397977 3.60795953 1.00913492 7.86915355 0.9375 11.8359375 C0.88564677 15.17535186 0.88564677 15.17535186 2 19 C-2.29 19 -6.58 19 -11 19 C-11 18.67 -11 18.34 -11 18 C-8.36 18 -5.72 18 -3 18 C-3 17.34 -3 16.68 -3 16 C-4.65 16 -6.3 16 -8 16 C-8 14.68 -8 13.36 -8 12 C-6.68 12 -5.36 12 -4 12 C-4 9.36 -4 6.72 -4 4 C-3.67 4 -3.34 4 -3 4 C-3 6.97 -3 9.94 -3 13 C-4.32 13 -5.64 13 -7 13 C-7 13.66 -7 14.32 -7 15 C-5.02 15 -3.04 15 -1 15 C-1.01160156 14.00097656 -1.02320313 13.00195312 -1.03515625 11.97265625 C-1.04417969 10.68230469 -1.05320312 9.39195313 -1.0625 8.0625 C-1.07410156 6.77472656 -1.08570313 5.48695312 -1.09765625 4.16015625 C-1 1 -1 1 0 0 Z " fill="#818181" transform="translate(31,45)"/>
<path d="M0 0 C2.64 0 5.28 0 8 0 C8 1.32 8 2.64 8 4 C7.40832031 3.96519531 6.81664063 3.93039063 6.20703125 3.89453125 C1.2398924 3.72436825 -1.90728689 3.83144791 -6 7 C-6 6.34 -6 5.68 -6 5 C-10.95 5 -15.9 5 -21 5 C-21 4.67 -21 4.34 -21 4 C-19.98679688 3.93941406 -18.97359375 3.87882812 -17.9296875 3.81640625 C-16.57811486 3.73193296 -15.22655291 3.64728843 -13.875 3.5625 C-12.87726562 3.50352539 -12.87726562 3.50352539 -11.859375 3.44335938 C-7.84981183 3.187848 -3.95005804 2.73217587 0 2 C0 1.34 0 0.68 0 0 Z " fill="#414141" transform="translate(65,82)"/>
<path d="M0 0 C3 2 3 2 3.6875 4.125 C3.790625 4.74375 3.89375 5.3625 4 6 C4.99 6 5.98 6 7 6 C7 5.01 7 4.02 7 3 C8.9375 3.375 8.9375 3.375 11 4 C11.33 4.66 11.66 5.32 12 6 C11.34 6 10.68 6 10 6 C10 6.66 10 7.32 10 8 C7.69 8 5.38 8 3 8 C2.67 8.66 2.34 9.32 2 10 C4.97 10 7.94 10 11 10 C11 10.33 11 10.66 11 11 C9.39602723 11.16852247 7.7918131 11.33474886 6.1875 11.5 C5.29417969 11.5928125 4.40085937 11.685625 3.48046875 11.78125 C1 12 1 12 -2 12 C-1.34 8.04 -0.68 4.08 0 0 Z " fill="#545454" transform="translate(18,32)"/>
<path d="M0 0 C0.33 0 0.66 0 1 0 C1.04241723 2.33294775 1.04092937 4.66702567 1 7 C0.67 7.33 0.34 7.66 0 8 C0.12375 9.36125 0.12375 9.36125 0.25 10.75 C0 14 0 14 -2.5 16.875 C-3.325 17.57625 -4.15 18.2775 -5 19 C-5 18.34 -5 17.68 -5 17 C-6.32 16.67 -7.64 16.34 -9 16 C-8.01 16 -7.02 16 -6 16 C-6 15.34 -6 14.68 -6 14 C-5.01 13.34 -4.02 12.68 -3 12 C-3.309375 11.401875 -3.61875 10.80375 -3.9375 10.1875 C-5 8 -5 8 -6 5 C-4.35 5 -2.7 5 -1 5 C-0.67 3.35 -0.34 1.7 0 0 Z " fill="#3A3A3A" transform="translate(39,22)"/>
<path d="M0 0 C2 2 2 2 2.125 4.625 C2.08375 5.40875 2.0425 6.1925 2 7 C2.99 7 3.98 7 5 7 C5 7.66 5 8.32 5 9 C-0.61 9 -6.22 9 -12 9 C-12 8.34 -12 7.68 -12 7 C-11.01 7 -10.02 7 -9 7 C-9 5.35 -9 3.7 -9 2 C-8.34 2 -7.68 2 -7 2 C-7 3.65 -7 5.3 -7 7 C-4.69 7 -2.38 7 0 7 C0 4.69 0 2.38 0 0 Z " fill="#0C0C0C" transform="translate(55,10)"/>
<path d="M0 0 C0.99 0.495 0.99 0.495 2 1 C2 2.65 2 4.3 2 6 C3.32 6 4.64 6 6 6 C6 6.66 6 7.32 6 8 C9.63 8.33 13.26 8.66 17 9 C17 9.33 17 9.66 17 10 C12.545 10.495 12.545 10.495 8 11 C7.67 14.3 7.34 17.6 7 21 C5.68 20.67 4.36 20.34 3 20 C3.99 20 4.98 20 6 20 C5.52286643 15.86484243 4.90800255 12.6797192 3 9 C3.33 8.34 3.66 7.68 4 7 C3.01 7 2.02 7 1 7 C0.67 4.69 0.34 2.38 0 0 Z " fill="#727272" transform="translate(56,10)"/>
<path d="M0 0 C2.31 0 4.62 0 7 0 C5.02 0.99 5.02 0.99 3 2 C4.32 2.66 5.64 3.32 7 4 C7 5.32 7 6.64 7 8 C5.02 8 3.04 8 1 8 C0.67 6.68 0.34 5.36 0 4 C0 5.98 0 7.96 0 10 C-0.66 10 -1.32 10 -2 10 C-2 7.36 -2 4.72 -2 2 C-1.34 2 -0.68 2 0 2 C0 1.34 0 0.68 0 0 Z " fill="#636363" transform="translate(18,18)"/>
<path d="M0 0 C0.33 0.99 0.66 1.98 1 3 C2.65 3.33 4.3 3.66 6 4 C5.67 5.65 5.34 7.3 5 9 C2.5625 8.1875 2.5625 8.1875 0 7 C-0.33 6.01 -0.66 5.02 -1 4 C-3.31 4 -5.62 4 -8 4 C-8.33 3.01 -8.66 2.02 -9 1 C-8.071875 1.20625 -7.14375 1.4125 -6.1875 1.625 C-2.84826598 2.36692966 -2.84826598 2.36692966 0 0 Z " fill="#7E7E7E" transform="translate(56,44)"/>
<path d="M0 0 C1.22589844 0.01353516 1.22589844 0.01353516 2.4765625 0.02734375 C3.41628906 0.04474609 3.41628906 0.04474609 4.375 0.0625 C4.375 1.0525 4.375 2.0425 4.375 3.0625 C2.395 3.0625 0.415 3.0625 -1.625 3.0625 C-1.625 3.7225 -1.625 4.3825 -1.625 5.0625 C-0.305 5.3925 1.015 5.7225 2.375 6.0625 C0.725 6.0625 -0.925 6.0625 -2.625 6.0625 C-2.625 4.7425 -2.625 3.4225 -2.625 2.0625 C-3.615 2.5575 -3.615 2.5575 -4.625 3.0625 C-4.93741371 5.61191373 -5.13803421 8.06611513 -5.25 10.625 C-5.28867187 11.33591797 -5.32734375 12.04683594 -5.3671875 12.77929688 C-5.46171783 14.53992425 -5.54445817 16.30117728 -5.625 18.0625 C-5.955 18.0625 -6.285 18.0625 -6.625 18.0625 C-6.625 12.4525 -6.625 6.8425 -6.625 1.0625 C-4.21954362 -0.14022819 -2.67503047 -0.03821472 0 0 Z " fill="#BCBCBC" transform="translate(24.625,42.9375)"/>
<path d="M0 0 C3.96 0.33 7.92 0.66 12 1 C12.33 2.65 12.66 4.3 13 6 C9.25 7.125 9.25 7.125 7 6 C7 5.01 7 4.02 7 3 C6.34 3 5.68 3 5 3 C4.67 4.32 4.34 5.64 4 7 C4 5.35 4 3.7 4 2 C2.68 1.67 1.36 1.34 0 1 C0 0.67 0 0.34 0 0 Z " fill="#6A6A6A" transform="translate(41,88)"/>
<path d="M0 0 C0.66 0.33 1.32 0.66 2 1 C2.125 4.375 2.125 4.375 2 8 C1.34 8.66 0.68 9.32 0 10 C-0.33 9.67 -0.66 9.34 -1 9 C-2.7015625 9.0309375 -2.7015625 9.0309375 -4.4375 9.0625 C-8 9 -8 9 -10 7 C-9.34 6.01 -8.68 5.02 -8 4 C-7.01 4 -6.02 4 -5 4 C-5 4.99 -5 5.98 -5 7 C-4.01 7 -3.02 7 -2 7 C-1.34 4.69 -0.68 2.38 0 0 Z " fill="#3B3B3B" transform="translate(83,31)"/>
<path d="M0 0 C0.33 0 0.66 0 1 0 C1.268125 0.969375 1.53625 1.93875 1.8125 2.9375 C2.204375 3.948125 2.59625 4.95875 3 6 C3.99 6.33 4.98 6.66 6 7 C5.67 8.32 5.34 9.64 5 11 C4.34 11 3.68 11 3 11 C2.67 12.98 2.34 14.96 2 17 C1.67 17 1.34 17 1 17 C0.93941406 16.43152344 0.87882812 15.86304688 0.81640625 15.27734375 C0.40684957 11.5031214 -0.02483229 7.74909956 -0.625 4 C-0.74875 3.01 -0.8725 2.02 -1 1 C-0.67 0.67 -0.34 0.34 0 0 Z " fill="#212121" transform="translate(18,21)"/>
<path d="M0 0 C0.50015625 0.15339844 1.0003125 0.30679688 1.515625 0.46484375 C4.90327766 1.19457396 8.29961519 1.36356477 11.75 1.5625 C12.44738281 1.60568359 13.14476562 1.64886719 13.86328125 1.69335938 C15.57531922 1.79889596 17.28763561 1.8998991 19 2 C19 2.66 19 3.32 19 4 C16.39555652 4.05394705 13.79223002 4.09364469 11.1875 4.125 C10.44951172 4.14175781 9.71152344 4.15851563 8.95117188 4.17578125 C5.08753574 4.21074628 3.29096332 4.19397555 0 2 C0 1.34 0 0.68 0 0 Z " fill="#0A0A0A" transform="translate(40,85)"/>
<path d="M0 0 C0.66 0 1.32 0 2 0 C2 1.98 2 3.96 2 6 C3.32 5.67 4.64 5.34 6 5 C6 5.99 6 6.98 6 8 C5.34 8 4.68 8 4 8 C4 8.66 4 9.32 4 10 C3.34 10 2.68 10 2 10 C2 10.66 2 11.32 2 12 C0.35 11.67 -1.3 11.34 -3 11 C-2.01 10.67 -1.02 10.34 0 10 C0 6.7 0 3.4 0 0 Z " fill="#131313" transform="translate(63,22)"/>
<path d="M0 0 C4.875 0.875 4.875 0.875 6 2 C9.63194641 2.19149081 9.63194641 2.19149081 13 1 C12.67 2.32 12.34 3.64 12 5 C7.90854474 6.16898722 6.45635697 6.24508059 2.625 4.1875 C1.75875 3.465625 0.8925 2.74375 0 2 C0 1.34 0 0.68 0 0 Z " fill="#222222" transform="translate(44,62)"/>
<path d="M0 0 C2.97 0.495 2.97 0.495 6 1 C5.67 2.32 5.34 3.64 5 5 C0.71 4.67 -3.58 4.34 -8 4 C-7.67 3.01 -7.34 2.02 -7 1 C-4.69 1.33 -2.38 1.66 0 2 C0 1.34 0 0.68 0 0 Z " fill="#090909" transform="translate(28,38)"/>
<path d="M0 0 C2.68092691 2.68092691 2.38670257 4.39167363 2.625 8.125 C2.69976562 9.22070312 2.77453125 10.31640625 2.8515625 11.4453125 C2.90054688 12.28835937 2.94953125 13.13140625 3 14 C4.65 14 6.3 14 8 14 C8 14.33 8 14.66 8 15 C6.824375 15.185625 6.824375 15.185625 5.625 15.375 C2.85942178 15.79117993 2.85942178 15.79117993 1 18 C-0.32594359 12.03325384 -0.0884587 6.07416385 0 0 Z " fill="#0B0B0B" transform="translate(85,43)"/>
<path d="M0 0 C0.99 0 1.98 0 3 0 C2.49396008 2.16874252 2.00016187 3.99967627 1 6 C1.66 6.33 2.32 6.66 3 7 C-2.625 10 -2.625 10 -6 10 C-6 8.35 -6 6.7 -6 5 C-5.34 4.67 -4.68 4.34 -4 4 C-4 4.66 -4 5.32 -4 6 C-2.68 6 -1.36 6 0 6 C0 4.02 0 2.04 0 0 Z " fill="#1B1B1B" transform="translate(44,25)"/>
<path d="M0 0 C0.33 0.99 0.66 1.98 1 3 C0.360625 3.433125 -0.27875 3.86625 -0.9375 4.3125 C-3.26746003 5.91239177 -3.26746003 5.91239177 -4 9 C-6.0625 9.6875 -6.0625 9.6875 -8 10 C-7.52153935 5.69385411 -6.34073619 3.75119451 -3 1 C-2.01 0.67 -1.02 0.34 0 0 Z " fill="#222222" transform="translate(81,75)"/>
<path d="M0 0 C0.99 0 1.98 0 3 0 C6 3.33333333 6 3.33333333 6 6 C5.01 6 4.02 6 3 6 C3 7.98 3 9.96 3 12 C2.34 12 1.68 12 1 12 C0.67 8.04 0.34 4.08 0 0 Z " fill="#0B0B0B" transform="translate(62,72)"/>
<path d="M0 0 C0.99 0 1.98 0 3 0 C3 1.98 3 3.96 3 6 C3.99 6.33 4.98 6.66 6 7 C5.34 7 4.68 7 4 7 C4 7.99 4 8.98 4 10 C2.68 9.34 1.36 8.68 0 8 C0 5.36 0 2.72 0 0 Z " fill="#DEDEDE" transform="translate(41,76)"/>
<path d="M0 0 C2.74086056 -0.22223194 4.43963721 -0.34781139 6.8125 1.125 C8.49106106 3.77535957 8.20450238 5.93246424 8 9 C6.68 8.67 5.36 8.34 4 8 C4 6.68 4 5.36 4 4 C2.68 3.67 1.36 3.34 0 3 C0 2.01 0 1.02 0 0 Z " fill="#D1D1D1" transform="translate(57,44)"/>
<path d="M0 0 C1.65 0.33 3.3 0.66 5 1 C4.67 2.65 4.34 4.3 4 6 C2.35 5.67 0.7 5.34 -1 5 C-0.67 3.35 -0.34 1.7 0 0 Z " fill="#C6C6C6" transform="translate(89,50)"/>
<path d="M0 0 C1.65 0.33 3.3 0.66 5 1 C4.67 2.65 4.34 4.3 4 6 C2.35 5.67 0.7 5.34 -1 5 C-0.67 3.35 -0.34 1.7 0 0 Z " fill="#C4C4C4" transform="translate(10,50)"/>
<path d="M0 0 C1.54897985 3.0979597 0.83239539 6.26216552 0.5625 9.625 C0.51029297 10.33140625 0.45808594 11.0378125 0.40429688 11.765625 C0.27458793 13.51079987 0.13795046 15.25545725 0 17 C-1.74565111 13.78360346 -2.204437 11.67986596 -2 8 C-2.66 7.67 -3.32 7.34 -4 7 C-1.125 1.125 -1.125 1.125 0 0 Z " fill="#0D0D0D" transform="translate(18,42)"/>
<path d="M0 0 C1.65 0.33 3.3 0.66 5 1 C4.67 2.65 4.34 4.3 4 6 C2.35 5.67 0.7 5.34 -1 5 C-0.67 3.35 -0.34 1.7 0 0 Z " fill="#BBBBBB" transform="translate(79,21)"/>
<path d="M0 0 C2.97 0 5.94 0 9 0 C8.34 1.98 7.68 3.96 7 6 C5.35 6 3.7 6 2 6 C3.32 5.67 4.64 5.34 6 5 C6 4.34 6 3.68 6 3 C4.02 3 2.04 3 0 3 C0 2.01 0 1.02 0 0 Z " fill="#C6C6C6" transform="translate(74,43)"/>
<path d="M0 0 C1.60379341 -0.05416188 3.20811406 -0.09286638 4.8125 -0.125 C5.70582031 -0.14820312 6.59914063 -0.17140625 7.51953125 -0.1953125 C10 0 10 0 13 2 C12.01 2 11.02 2 10 2 C9.67 2.66 9.34 3.32 9 4 C6.69 4 4.38 4 2 4 C2 3.34 2 2.68 2 2 C1.34 2 0.68 2 0 2 C0 1.34 0 0.68 0 0 Z " fill="#2F2F2F" transform="translate(63,20)"/>
<path d="M0 0 C0.99 0 1.98 0 3 0 C2.67 3.96 2.34 7.92 2 12 C1.34 12 0.68 12 0 12 C-0.19477739 10.37585622 -0.38059458 8.75063577 -0.5625 7.125 C-0.66691406 6.22007813 -0.77132812 5.31515625 -0.87890625 4.3828125 C-1 2 -1 2 0 0 Z " fill="#0C0C0C" transform="translate(38,72)"/>
<path d="M0 0 C4.19833317 0.42694914 5.70724864 1.48505929 8.6875 4.375 C6.875 5 6.875 5 4.6875 5.375 C3.6975 4.715 2.7075 4.055 1.6875 3.375 C-0.63637947 2.98112212 -2.97043749 2.64013915 -5.3125 2.375 C-3.3125 0.375 -3.3125 0.375 0 0 Z " fill="#1C1C1C" transform="translate(45.3125,41.625)"/>
<path d="M0 0 C0.90105469 0.00902344 1.80210938 0.01804688 2.73046875 0.02734375 C3.41753906 0.03894531 4.10460937 0.05054688 4.8125 0.0625 C5.1425 1.0525 5.4725 2.0425 5.8125 3.0625 C1.1925 3.0625 -3.4275 3.0625 -8.1875 3.0625 C-8.1875 2.4025 -8.1875 1.7425 -8.1875 1.0625 C-5.17259443 0.05753148 -3.14568308 -0.04085303 0 0 Z " fill="#010101" transform="translate(78.1875,38.9375)"/>
<path d="M0 0 C1.80397977 3.60795953 1.00913492 7.86915355 0.9375 11.8359375 C0.98946187 14.46650699 1.21575953 16.51248727 2 19 C0.68 19 -0.64 19 -2 19 C-1.85982174 16.02046641 -1.71313658 13.04150696 -1.5625 10.0625 C-1.52318359 9.21236328 -1.48386719 8.36222656 -1.44335938 7.48632812 C-1.40146484 6.67744141 -1.35957031 5.86855469 -1.31640625 5.03515625 C-1.27974854 4.2862915 -1.24309082 3.53742676 -1.20532227 2.76586914 C-1 1 -1 1 0 0 Z " fill="#595959" transform="translate(31,45)"/>
<path d="M0 0 C2.53926173 1.82671379 4.9050512 3.66877878 7 6 C7.4375 9.375 7.4375 9.375 7 12 C5.35 12.33 3.7 12.66 2 13 C2.66 11.68 3.32 10.36 4 9 C4.33 9.33 4.66 9.66 5 10 C4.45275433 6.1692803 2.71844729 4.63075544 0 2 C0 1.34 0 0.68 0 0 Z " fill="#ACACAC" transform="translate(75,26)"/>
<path d="M0 0 C1.32 0 2.64 0 4 0 C4.33 2.31 4.66 4.62 5 7 C2.04335481 8.4783226 -0.74229737 8.06032783 -4 8 C-4 7.67 -4 7.34 -4 7 C-2.35 7 -0.7 7 1 7 C1 6.34 1 5.68 1 5 C0.01 4.67 -0.98 4.34 -2 4 C-0.35 4 1.3 4 3 4 C3 3.01 3 2.02 3 1 C2.01 0.67 1.02 0.34 0 0 Z " fill="#AAAAAA" transform="translate(34,79)"/>
<path d="M0 0 C0.99 0 1.98 0 3 0 C3 2.64 3 5.28 3 8 C2.01 8.495 2.01 8.495 1 9 C1 8.34 1 7.68 1 7 C-0.32 6.67 -1.64 6.34 -3 6 C-2.01 6 -1.02 6 0 6 C0 4.02 0 2.04 0 0 Z " fill="#DDDDDD" transform="translate(59,76)"/>
<path d="M0 0 C0.99 0.33 1.98 0.66 3 1 C3.04241723 3.33294775 3.04092937 5.66702567 3 8 C2 9 2 9 -1.5625 9.0625 C-2.696875 9.041875 -3.83125 9.02125 -5 9 C-1.25 7 -1.25 7 1 7 C0.67 4.69 0.34 2.38 0 0 Z " fill="#1A1A1A" transform="translate(83,78)"/>
<path d="M0 0 C1.98 0.495 1.98 0.495 4 1 C3.67 2.65 3.34 4.3 3 6 C1.68 5.67 0.36 5.34 -1 5 C-0.67 3.35 -0.34 1.7 0 0 Z " fill="#D6D6D6" transform="translate(50,11)"/>
<path d="M0 0 C1.65 0 3.3 0 5 0 C5 1.65 5 3.3 5 5 C3.35 5 1.7 5 0 5 C0 3.35 0 1.7 0 0 Z " fill="#CFCFCF" transform="translate(20,80)"/>
<path d="M0 0 C0.99 0.33 1.98 0.66 3 1 C2.34 2.65 1.68 4.3 1 6 C-1.31 6 -3.62 6 -6 6 C-6 5.34 -6 4.68 -6 4 C-4.02 4 -2.04 4 0 4 C0 2.68 0 1.36 0 0 Z " fill="#191919" transform="translate(29,42)"/>
<path d="M0 0 C1.485 0.99 1.485 0.99 3 2 C3.1875 5.625 3.1875 5.625 3 9 C2.01 9 1.02 9 0 9 C0 6.03 0 3.06 0 0 Z " fill="#E2E2E2" transform="translate(59,21)"/>
<path d="M0 0 C1.98 0 3.96 0 6 0 C6.33 0.66 6.66 1.32 7 2 C5.68 2 4.36 2 3 2 C3.33 3.32 3.66 4.64 4 6 C3.67 5.34 3.34 4.68 3 4 C1.68 4.33 0.36 4.66 -1 5 C-0.67 3.35 -0.34 1.7 0 0 Z " fill="#C0C0C0" transform="translate(66,23)"/>
<path d="M0 0 C2.475 0.495 2.475 0.495 5 1 C5 2.32 5 3.64 5 5 C3.35 5 1.7 5 0 5 C0 3.35 0 1.7 0 0 Z " fill="#D5D5D5" transform="translate(20,21)"/>
<path d="M0 0 C0.28875 0.639375 0.5775 1.27875 0.875 1.9375 C1.82823451 4.15206079 1.82823451 4.15206079 4 5 C1.525 6.485 1.525 6.485 -1 8 C-1 7.34 -1 6.68 -1 6 C-2.32 5.67 -3.64 5.34 -5 5 C-5 4.67 -5 4.34 -5 4 C-3.35 4 -1.7 4 0 4 C0 2.68 0 1.36 0 0 Z " fill="#4E4E4E" transform="translate(25,22)"/>
<path d="M0 0 C0.66 0 1.32 0 2 0 C2.33 1.65 2.66 3.3 3 5 C4.65 5 6.3 5 8 5 C8 5.66 8 6.32 8 7 C5.69 6.67 3.38 6.34 1 6 C0.67 4.02 0.34 2.04 0 0 Z " fill="#131313" transform="translate(46,91)"/>
<path d="M0 0 C2.475 0.495 2.475 0.495 5 1 C4.01 1.495 4.01 1.495 3 2 C3.66 2.66 4.32 3.32 5 4 C5.125 6.625 5.125 6.625 5 9 C4.01 9 3.02 9 2 9 C1.34 6.03 0.68 3.06 0 0 Z " fill="#2F2F2F" transform="translate(42,73)"/>
<path d="M0 0 C0.33 0 0.66 0 1 0 C1 2.31 1 4.62 1 7 C2.32 7 3.64 7 5 7 C5 7.66 5 8.32 5 9 C3.02 9 1.04 9 -1 9 C-0.67 6.03 -0.34 3.06 0 0 Z " fill="#0A0A0A" transform="translate(74,51)"/>
<path d="M0 0 C0 0.99 0 1.98 0 3 C-1.32 3 -2.64 3 -4 3 C-4.33 3.99 -4.66 4.98 -5 6 C-5.33 5.34 -5.66 4.68 -6 4 C-5.67 3.34 -5.34 2.68 -5 2 C-5.99 1.67 -6.98 1.34 -8 1 C-5.07175348 0.02391783 -3.04386724 -0.08226668 0 0 Z " fill="#484848" transform="translate(35,20)"/>
<path d="M0 0 C2.97 0 5.94 0 9 0 C9.33 0.66 9.66 1.32 10 2 C9.2575 1.95875 8.515 1.9175 7.75 1.875 C4.88344047 2.00529816 3.46916578 2.63770164 1 4 C0.34 4 -0.32 4 -1 4 C-0.67 2.68 -0.34 1.36 0 0 Z " fill="#4E4E4E" transform="translate(55,41)"/>
<path d="M0 0 C0.99 0.33 1.98 0.66 3 1 C2.67 2.32 2.34 3.64 2 5 C0.68 4.67 -0.64 4.34 -2 4 C-2 3.01 -2 2.02 -2 1 C-1.34 0.67 -0.68 0.34 0 0 Z " fill="#E9E9E9" transform="translate(51,90)"/>
<path d="M0 0 C3.26460973 1.80412643 4.88929795 2.83394693 7 6 C4 6 4 6 1 5 C0.67 3.35 0.34 1.7 0 0 Z " fill="#131313" transform="translate(20,74)"/>
<path d="M0 0 C3 3.625 3 3.625 3 7 C2.34 7 1.68 7 1 7 C0.67 7.99 0.34 8.98 0 10 C-0.99 9.34 -1.98 8.68 -3 8 C-2.34 7.34 -1.68 6.68 -1 6 C-0.60235737 4.01178687 -0.26224651 2.01055661 0 0 Z " fill="#2E2E2E" transform="translate(85,55)"/>
<path d="M0 0 C2 2 2 2 2.125 4.625 C2.08375 5.40875 2.0425 6.1925 2 7 C0.35 7 -1.3 7 -3 7 C-2.690625 6.401875 -2.38125 5.80375 -2.0625 5.1875 C-0.89790296 2.91043228 -0.89790296 2.91043228 0 0 Z " fill="#5E5E5E" transform="translate(36,72)"/>
<path d="M0 0 C0.33 0 0.66 0 1 0 C1.66 2.97 2.32 5.94 3 9 C1.35 9 -0.3 9 -2 9 C-1.01 8.67 -0.02 8.34 1 8 C0.01 6.35 -0.98 4.7 -2 3 C-1.34 2.01 -0.68 1.02 0 0 Z " fill="#929292" transform="translate(67,70)"/>
<path d="M0 0 C2.97 0.495 2.97 0.495 6 1 C6.33 1.99 6.66 2.98 7 4 C1.25 4.125 1.25 4.125 -1 3 C-0.67 2.01 -0.34 1.02 0 0 Z " fill="#3E3E3E" transform="translate(8,55)"/>
<path d="M0 0 C0.78375 0.04125 1.5675 0.0825 2.375 0.125 C1.385 0.455 0.395 0.785 -0.625 1.125 C-0.625 2.445 -0.625 3.765 -0.625 5.125 C-1.615 5.125 -2.605 5.125 -3.625 5.125 C-3.955 4.135 -4.285 3.145 -4.625 2.125 C-2.625 0.125 -2.625 0.125 0 0 Z " fill="#4B4B4B" transform="translate(78.625,65.875)"/>
<path d="M0 0 C2.475 0.495 2.475 0.495 5 1 C5 2.32 5 3.64 5 5 C2.5 3.625 2.5 3.625 0 2 C0 1.34 0 0.68 0 0 Z " fill="#414141" transform="translate(44,62)"/>
<path d="M0 0 C0.99 0 1.98 0 3 0 C3.66 1.65 4.32 3.3 5 5 C3.68 5 2.36 5 1 5 C0.67 3.35 0.34 1.7 0 0 Z " fill="#373737" transform="translate(15,59)"/>
<path d="M0 0 C0.99 0.495 0.99 0.495 2 1 C2 1.99 2 2.98 2 4 C2.66 3.67 3.32 3.34 4 3 C4.33 4.32 4.66 5.64 5 7 C3.35 6.67 1.7 6.34 0 6 C0 4.02 0 2.04 0 0 Z " fill="#BFBFBF" transform="translate(21,32)"/>
</svg>
