<?xml version="1.0" encoding="UTF-8"?>
<svg version="1.1" xmlns="http://www.w3.org/2000/svg" width="114" height="114">
<path d="M0 0 C2.60964149 1.03012164 3.83498357 1.58694861 5.375 3.9375 C5.5625 7.125 5.5625 7.125 5.375 9.9375 C6.1175 10.081875 6.86 10.22625 7.625 10.375 C9.17473751 10.69199176 10.72158548 11.02992279 12.25 11.4375 C14.60824807 12.0274741 14.60824807 12.0274741 18 12.4375 C21.375 12.9375 21.375 12.9375 23.375 13.9375 C23.705 12.9475 24.035 11.9575 24.375 10.9375 C25.65375 10.875625 26.9325 10.81375 28.25 10.75 C28.96929687 10.71519531 29.68859375 10.68039063 30.4296875 10.64453125 C31.07164063 10.74121094 31.71359375 10.83789062 32.375 10.9375 C34.70036063 14.42554095 34.70957898 15.83890754 34.375 19.9375 C34.0346875 20.55625 33.694375 21.175 33.34375 21.8125 C32.13573451 24.46234044 32.29542553 26.12489644 32.625 29 C32.71265625 29.85722656 32.8003125 30.71445312 32.890625 31.59765625 C33.27591073 34.19459125 33.27591073 34.19459125 35.375 36.9375 C35.375 37.9275 35.375 38.9175 35.375 39.9375 C36.303125 39.875625 37.23125 39.81375 38.1875 39.75 C41.375 39.9375 41.375 39.9375 43.25 41.0625 C44.90354531 43.81840884 44.76865568 45.78825452 44.375 48.9375 C43.25 50.8125 43.25 50.8125 41.375 51.9375 C38.1875 52.125 38.1875 52.125 35.375 51.9375 C35.230625 52.741875 35.08625 53.54625 34.9375 54.375 C34.375 56.9375 34.375 56.9375 33.375 57.9375 C33.08754362 59.90904429 32.86915877 61.89090874 32.6875 63.875 C32.52701172 65.49728516 32.52701172 65.49728516 32.36328125 67.15234375 C32.04874673 70.08066363 32.04874673 70.08066363 34.375 71.9375 C34.8125 75.375 34.8125 75.375 34.375 78.9375 C32.25 81 32.25 81 29.375 81.9375 C26.43755722 81.24633699 24.06080071 80.28040035 21.375 78.9375 C20.385 79.4325 20.385 79.4325 19.375 79.9375 C18.09625 79.89625 16.8175 79.855 15.5 79.8125 C11.80585033 79.745577 10.14496255 80.38061149 7.375 82.9375 C6.715 82.9375 6.055 82.9375 5.375 82.9375 C5.4575 83.68 5.54 84.4225 5.625 85.1875 C5.375 87.9375 5.375 87.9375 3.6875 90.25 C1.375 91.9375 1.375 91.9375 -1.125 92.4375 C-4.4626027 91.76997946 -5.63100369 90.67001347 -7.625 87.9375 C-7.875 85.1875 -7.875 85.1875 -7.625 82.9375 C-8.40875 82.64875 -9.1925 82.36 -10 82.0625 C-12.625 80.9375 -12.625 80.9375 -14.625 78.9375 C-14.75 75.3125 -14.75 75.3125 -14.625 71.9375 C-16.605 72.4325 -16.605 72.4325 -18.625 72.9375 C-18.625 68.9375 -18.625 68.9375 -16.625 65.9375 C-17.12 65.48375 -17.615 65.03 -18.125 64.5625 C-19.625 62.9375 -19.625 62.9375 -19.625 60.9375 C-20.388125 61.4325 -21.15125 61.9275 -21.9375 62.4375 C-24.625 63.9375 -24.625 63.9375 -27.625 63.9375 C-27.625 62.9475 -27.625 61.9575 -27.625 60.9375 C-29.11 61.4325 -29.11 61.4325 -30.625 61.9375 C-30.12018575 66.19130243 -28.92963662 68.15649035 -25.875 71.125 C-24.86179687 72.13626953 -24.86179687 72.13626953 -23.828125 73.16796875 C-21.51190061 75.02834046 -19.42351758 75.98345992 -16.625 76.9375 C-16.625 77.9275 -16.625 78.9175 -16.625 79.9375 C-17.8625 79.710625 -19.1 79.48375 -20.375 79.25 C-23.79415511 78.73696077 -23.79415511 78.73696077 -26.75 80.4375 C-27.36875 80.9325 -27.9875 81.4275 -28.625 81.9375 C-31.75 81.8125 -31.75 81.8125 -34.625 80.9375 C-37.21272586 77.0559112 -36.50219799 75.40323523 -35.625 70.9375 C-35.295 69.9475 -34.965 68.9575 -34.625 67.9375 C-34.64590012 65.51690185 -34.64590012 65.51690185 -34.9375 62.9375 C-35.01613281 62.07125 -35.09476563 61.205 -35.17578125 60.3125 C-35.51321972 57.68223687 -35.51321972 57.68223687 -37.625 54.9375 C-37.625 53.9475 -37.625 52.9575 -37.625 51.9375 C-38.553125 51.999375 -39.48125 52.06125 -40.4375 52.125 C-43.625 51.9375 -43.625 51.9375 -45.5 50.8125 C-47.15354531 48.05659116 -47.01865568 46.08674548 -46.625 42.9375 C-45.5 41.0625 -45.5 41.0625 -43.625 39.9375 C-40.4375 39.75 -40.4375 39.75 -37.625 39.9375 C-37.480625 39.133125 -37.33625 38.32875 -37.1875 37.5 C-36.625 34.9375 -36.625 34.9375 -35.625 33.9375 C-35.33754362 31.96595571 -35.11915877 29.98409126 -34.9375 28 C-34.83050781 26.91847656 -34.72351562 25.83695313 -34.61328125 24.72265625 C-34.29874673 21.79433637 -34.29874673 21.79433637 -36.625 19.9375 C-36.96990322 15.88488713 -36.92663882 14.38995824 -34.625 10.9375 C-27.47606383 10.37012411 -27.47606383 10.37012411 -23.625 12.9375 C-20.48278033 12.62243373 -20.48278033 12.62243373 -17.625 11.9375 C-17.625 13.2575 -17.625 14.5775 -17.625 15.9375 C-18.65625 16.453125 -19.6875 16.96875 -20.75 17.5 C-24.78293117 19.81276257 -28.37792798 22.80578694 -30.625 26.9375 C-30.36217508 29.11777085 -30.36217508 29.11777085 -29.625 30.9375 C-28.965 30.9375 -28.305 30.9375 -27.625 30.9375 C-27.625 29.9475 -27.625 28.9575 -27.625 27.9375 C-24.69620629 28.56509865 -22.26404371 29.52372659 -19.625 30.9375 C-19.625 30.2775 -19.625 29.6175 -19.625 28.9375 C-18.125 27.3125 -18.125 27.3125 -16.625 25.9375 C-17.12 25.31875 -17.615 24.7 -18.125 24.0625 C-19.625 21.9375 -19.625 21.9375 -19.625 19.9375 C-18.635 19.6075 -17.645 19.2775 -16.625 18.9375 C-15.965 19.2675 -15.305 19.5975 -14.625 19.9375 C-14.7075 19.03 -14.79 18.1225 -14.875 17.1875 C-14.625 13.9375 -14.625 13.9375 -12.8125 11.5625 C-10.625 9.9375 -10.625 9.9375 -7.625 9.9375 C-7.7796875 8.57625 -7.7796875 8.57625 -7.9375 7.1875 C-7.625 3.9375 -7.625 3.9375 -5.4375 1.5 C-2.625 -0.0625 -2.625 -0.0625 0 0 Z M-2.625 3.9375 C-2.955 5.2575 -3.285 6.5775 -3.625 7.9375 C-2.305 8.2675 -0.985 8.5975 0.375 8.9375 C0.705 7.6175 1.035 6.2975 1.375 4.9375 C0.055 4.6075 -1.265 4.2775 -2.625 3.9375 Z M-10.58203125 14.23046875 C-12.28360479 17.01544117 -11.80436042 19.76879925 -11.625 22.9375 C-10.635 22.9375 -9.645 22.9375 -8.625 22.9375 C-8.625 20.9575 -8.625 18.9775 -8.625 16.9375 C-7.635 16.9375 -6.645 16.9375 -5.625 16.9375 C-5.625 18.5875 -5.625 20.2375 -5.625 21.9375 C-2.655 21.9375 0.315 21.9375 3.375 21.9375 C3.375 20.2875 3.375 18.6375 3.375 16.9375 C4.365 16.9375 5.355 16.9375 6.375 16.9375 C6.375 18.9175 6.375 20.8975 6.375 22.9375 C7.365 22.9375 8.355 22.9375 9.375 22.9375 C9.79398261 18.39212021 9.79398261 18.39212021 8.33203125 14.23046875 C5.34794718 12.25894814 2.32822695 12.50330182 -1.125 12.5625 C-1.80175781 12.55089844 -2.47851562 12.53929687 -3.17578125 12.52734375 C-6.06550027 12.54444268 -8.13622397 12.61457611 -10.58203125 14.23046875 Z M-31.625 13.9375 C-31.955 15.5875 -32.285 17.2375 -32.625 18.9375 C-31.305 18.9375 -29.985 18.9375 -28.625 18.9375 C-28.295 17.9475 -27.965 16.9575 -27.625 15.9375 C-28.945 15.2775 -30.265 14.6175 -31.625 13.9375 Z M27.375 13.9375 C27.045 15.5875 26.715 17.2375 26.375 18.9375 C27.695 18.9375 29.015 18.9375 30.375 18.9375 C30.045 17.2875 29.715 15.6375 29.375 13.9375 C28.715 13.9375 28.055 13.9375 27.375 13.9375 Z M14.375 15.9375 C13.715 17.2575 13.055 18.5775 12.375 19.9375 C14.025 19.9375 15.675 19.9375 17.375 19.9375 C15.395 22.9075 15.395 22.9075 13.375 25.9375 C14.695 27.5875 16.015 29.2375 17.375 30.9375 C20.30379371 30.30990135 22.73595629 29.35127341 25.375 27.9375 C25.045 29.2575 24.715 30.5775 24.375 31.9375 C25.695 31.9375 27.015 31.9375 28.375 31.9375 C29.16942519 29.64305566 29.16942519 29.64305566 29.375 26.9375 C28.13095802 24.71409148 28.13095802 24.71409148 26.1875 22.8125 C25.57519531 22.14992188 24.96289062 21.48734375 24.33203125 20.8046875 C20.12201241 16.67871471 20.12201241 16.67871471 14.375 15.9375 Z M-19.27734375 34.9375 C-22.62746039 39.90926731 -22.08613382 46.16913517 -21.625 51.9375 C-19.4694099 58.06391397 -15.47249071 62.07845954 -9.875 65.25 C-5.38688248 67.29691715 -1.48523383 67.87394633 3.375 66.9375 C7.17727732 65.51410862 10.7796495 63.81917877 14.375 61.9375 C14.18035156 62.72769531 13.98570313 63.51789063 13.78515625 64.33203125 C13.64980469 65.19183594 13.51445313 66.05164063 13.375 66.9375 C14.75014541 68.6462646 14.75014541 68.6462646 16.375 69.9375 C16.375 70.5975 16.375 71.2575 16.375 71.9375 C15.055 71.9375 13.735 71.9375 12.375 71.9375 C13.035 73.2575 13.695 74.5775 14.375 75.9375 C17.73464787 76.33660711 19.03001442 76.19290062 21.796875 74.14453125 C22.56515625 73.35433594 23.3334375 72.56414062 24.125 71.75 C24.90359375 70.97269531 25.6821875 70.19539063 26.484375 69.39453125 C28.49687542 66.77911232 29.22054057 65.21976283 29.375 61.9375 C28.715 61.2775 28.055 60.6175 27.375 59.9375 C26.385 60.2675 25.395 60.5975 24.375 60.9375 C24.705 61.9275 25.035 62.9175 25.375 63.9375 C24.6325 63.463125 23.89 62.98875 23.125 62.5 C20.73321432 61.14103086 19.00826146 60.51704259 16.375 59.9375 C16.5915625 59.40382812 16.808125 58.87015625 17.03125 58.3203125 C19.7416573 51.06746335 20.41508297 44.77280595 18.375 37.25 C15.26502192 32.0990988 11.10133419 28.54533811 5.9375 25.5 C-5.08642406 23.08011423 -12.11237326 26.58108795 -19.27734375 34.9375 Z M-33.37109375 37.57421875 C-34.956685 40.56263839 -34.95846609 42.63214323 -34.875 46 C-34.85953125 47.04285156 -34.8440625 48.08570313 -34.828125 49.16015625 C-34.73332623 52.02283284 -34.73332623 52.02283284 -33.625 54.9375 C-31.33794169 56.08102916 -30.03235238 56.04084439 -27.5 56 C-26.22125 55.979375 -24.9425 55.95875 -23.625 55.9375 C-23.625 55.2775 -23.625 54.6175 -23.625 53.9375 C-25.605 53.9375 -27.585 53.9375 -29.625 53.9375 C-29.295 52.9475 -28.965 51.9575 -28.625 50.9375 C-27.635 50.6075 -26.645 50.2775 -25.625 49.9375 C-25.625 47.2975 -25.625 44.6575 -25.625 41.9375 C-26.945 41.9375 -28.265 41.9375 -29.625 41.9375 C-29.625 40.6175 -29.625 39.2975 -29.625 37.9375 C-27.645 37.9375 -25.665 37.9375 -23.625 37.9375 C-23.625 37.2775 -23.625 36.6175 -23.625 35.9375 C-24.883125 35.855 -26.14125 35.7725 -27.4375 35.6875 C-28.14519531 35.64109375 -28.85289063 35.5946875 -29.58203125 35.546875 C-31.7638581 35.77533172 -31.7638581 35.77533172 -33.37109375 37.57421875 Z M21.375 35.9375 C21.375 36.5975 21.375 37.2575 21.375 37.9375 C23.355 37.9375 25.335 37.9375 27.375 37.9375 C27.375 39.2575 27.375 40.5775 27.375 41.9375 C26.055 41.9375 24.735 41.9375 23.375 41.9375 C23.375 44.5775 23.375 47.2175 23.375 49.9375 C24.365 50.2675 25.355 50.5975 26.375 50.9375 C26.705 51.9275 27.035 52.9175 27.375 53.9375 C25.725 53.9375 24.075 53.9375 22.375 53.9375 C22.045 54.5975 21.715 55.2575 21.375 55.9375 C22.83242463 56.01846803 24.29112807 56.07667774 25.75 56.125 C26.96816406 56.17720703 26.96816406 56.17720703 28.2109375 56.23046875 C28.92507812 56.13378906 29.63921875 56.03710938 30.375 55.9375 C32.82008878 52.26986683 32.67385724 50.30318225 32.6875 45.9375 C32.70425781 44.7 32.72101563 43.4625 32.73828125 42.1875 C32.63046208 39.0128418 32.63046208 39.0128418 31.1171875 37.01171875 C28.966614 35.68569249 27.69486805 35.62668682 25.1875 35.75 C23.929375 35.811875 22.67125 35.87375 21.375 35.9375 Z M-41.625 42.9375 C-42.285 44.2575 -42.945 45.5775 -43.625 46.9375 C-41.645 47.9275 -41.645 47.9275 -39.625 48.9375 C-38.965 47.6175 -38.305 46.2975 -37.625 44.9375 C-38.945 44.2775 -40.265 43.6175 -41.625 42.9375 Z M37.375 42.9375 C36.715 44.2575 36.055 45.5775 35.375 46.9375 C37.355 47.9275 37.355 47.9275 39.375 48.9375 C40.035 47.6175 40.695 46.2975 41.375 44.9375 C40.055 44.2775 38.735 43.6175 37.375 42.9375 Z M-11.625 68.9375 C-12.03508502 73.47089833 -12.03508502 73.47089833 -10.6171875 77.64453125 C-7.47528125 79.68369001 -4.18227151 79.3701091 -0.5625 79.3125 C0.17033203 79.32410156 0.90316406 79.33570312 1.65820312 79.34765625 C4.03479431 79.37172648 4.03479431 79.37172648 7.375 78.9375 C9.8044516 75.2933226 9.53679575 73.22508728 9.375 68.9375 C8.385 69.2675 7.395 69.5975 6.375 69.9375 C6.375 71.5875 6.375 73.2375 6.375 74.9375 C5.385 74.9375 4.395 74.9375 3.375 74.9375 C3.045 73.2875 2.715 71.6375 2.375 69.9375 C0.065 69.9375 -2.245 69.9375 -4.625 69.9375 C-4.955 71.5875 -5.285 73.2375 -5.625 74.9375 C-6.615 74.9375 -7.605 74.9375 -8.625 74.9375 C-8.625 72.9575 -8.625 70.9775 -8.625 68.9375 C-9.615 68.9375 -10.605 68.9375 -11.625 68.9375 Z M-31.625 72.9375 C-31.955 74.5875 -32.285 76.2375 -32.625 77.9375 C-31.305 77.9375 -29.985 77.9375 -28.625 77.9375 C-28.295 76.9475 -27.965 75.9575 -27.625 74.9375 C-27.955 74.2775 -28.285 73.6175 -28.625 72.9375 C-29.615 72.9375 -30.605 72.9375 -31.625 72.9375 Z M26.375 72.9375 C26.375 74.5875 26.375 76.2375 26.375 77.9375 C27.695 77.9375 29.015 77.9375 30.375 77.9375 C30.375 76.2875 30.375 74.6375 30.375 72.9375 C29.055 72.9375 27.735 72.9375 26.375 72.9375 Z M-2.625 82.9375 C-2.955 84.2575 -3.285 85.5775 -3.625 86.9375 C-2.305 87.2675 -0.985 87.5975 0.375 87.9375 C0.705 86.6175 1.035 85.2975 1.375 83.9375 C0.055 83.6075 -1.265 83.2775 -2.625 82.9375 Z " fill="#2A2A2A" transform="translate(58.625,11.0625)"/>
<path d="M0 0 C2.60964149 1.03012164 3.83498357 1.58694861 5.375 3.9375 C5.5625 7.125 5.5625 7.125 5.375 9.9375 C6.1175 10.081875 6.86 10.22625 7.625 10.375 C9.17473751 10.69199176 10.72158548 11.02992279 12.25 11.4375 C14.60824807 12.0274741 14.60824807 12.0274741 18 12.4375 C21.375 12.9375 21.375 12.9375 23.375 13.9375 C23.705 12.9475 24.035 11.9575 24.375 10.9375 C25.65375 10.875625 26.9325 10.81375 28.25 10.75 C29.32894531 10.69779297 29.32894531 10.69779297 30.4296875 10.64453125 C31.07164063 10.74121094 31.71359375 10.83789062 32.375 10.9375 C34.70036063 14.42554095 34.70957898 15.83890754 34.375 19.9375 C34.0346875 20.55625 33.694375 21.175 33.34375 21.8125 C32.13573451 24.46234044 32.29542553 26.12489644 32.625 29 C32.71265625 29.85722656 32.8003125 30.71445312 32.890625 31.59765625 C33.27591073 34.19459125 33.27591073 34.19459125 35.375 36.9375 C35.375 37.9275 35.375 38.9175 35.375 39.9375 C36.303125 39.875625 37.23125 39.81375 38.1875 39.75 C41.375 39.9375 41.375 39.9375 43.25 41.0625 C44.90354531 43.81840884 44.76865568 45.78825452 44.375 48.9375 C43.3125 50.8125 43.3125 50.8125 41.375 51.9375 C37.6875 52.125 37.6875 52.125 34.375 51.9375 C33.88 52.9275 33.88 52.9275 33.375 53.9375 C33.25382812 52.87789062 33.13265625 51.81828125 33.0078125 50.7265625 C32.83899248 49.33848676 32.66969692 47.95046881 32.5 46.5625 C32.42136719 45.86382812 32.34273438 45.16515625 32.26171875 44.4453125 C31.82279555 40.24677841 31.82279555 40.24677841 29.375 36.9375 C26.71962628 36.37229997 24.08355287 36.19961802 21.375 35.9375 C21.375 36.5975 21.375 37.2575 21.375 37.9375 C23.355 37.9375 25.335 37.9375 27.375 37.9375 C27.375 39.2575 27.375 40.5775 27.375 41.9375 C26.055 41.9375 24.735 41.9375 23.375 41.9375 C23.375 44.5775 23.375 47.2175 23.375 49.9375 C24.365 49.9375 25.355 49.9375 26.375 49.9375 C26.375 50.9275 26.375 51.9175 26.375 52.9375 C24.395 52.9375 22.415 52.9375 20.375 52.9375 C20.045 47.3275 19.715 41.7175 19.375 35.9375 C18.385 35.9375 17.395 35.9375 16.375 35.9375 C15.015625 34.51171875 15.015625 34.51171875 13.625 32.625 C10.13820027 28.3928647 6.73788515 26.42311518 1.2109375 25.625 C-4.45030619 25.31372887 -9.04369527 26.53747339 -13.625 29.9375 C-14.32625 31.030625 -15.0275 32.12375 -15.75 33.25 C-18.625 35.9375 -18.625 35.9375 -22.04296875 36.09765625 C-25.5999035 35.8372187 -29.09801897 35.46249041 -32.625 34.9375 C-32.81991452 33.48013913 -33.00569358 32.02155407 -33.1875 30.5625 C-33.29191406 29.75039063 -33.39632812 28.93828125 -33.50390625 28.1015625 C-33.625 25.9375 -33.625 25.9375 -32.625 23.9375 C-31.965 24.2675 -31.305 24.5975 -30.625 24.9375 C-30.625 26.5875 -30.625 28.2375 -30.625 29.9375 C-29.635 30.2675 -28.645 30.5975 -27.625 30.9375 C-27.625 29.9475 -27.625 28.9575 -27.625 27.9375 C-24.69620629 28.56509865 -22.26404371 29.52372659 -19.625 30.9375 C-19.625 30.2775 -19.625 29.6175 -19.625 28.9375 C-18.125 27.3125 -18.125 27.3125 -16.625 25.9375 C-17.12 25.31875 -17.615 24.7 -18.125 24.0625 C-19.625 21.9375 -19.625 21.9375 -19.625 19.9375 C-18.635 19.6075 -17.645 19.2775 -16.625 18.9375 C-15.965 19.2675 -15.305 19.5975 -14.625 19.9375 C-14.7075 19.03 -14.79 18.1225 -14.875 17.1875 C-14.625 13.9375 -14.625 13.9375 -12.8125 11.5625 C-10.625 9.9375 -10.625 9.9375 -7.625 9.9375 C-7.728125 9.03 -7.83125 8.1225 -7.9375 7.1875 C-7.625 3.9375 -7.625 3.9375 -5.4375 1.5 C-2.625 -0.0625 -2.625 -0.0625 0 0 Z M-2.625 3.9375 C-2.955 5.2575 -3.285 6.5775 -3.625 7.9375 C-2.305 8.2675 -0.985 8.5975 0.375 8.9375 C0.705 7.6175 1.035 6.2975 1.375 4.9375 C0.055 4.6075 -1.265 4.2775 -2.625 3.9375 Z M-10.58203125 14.23046875 C-12.28360479 17.01544117 -11.80436042 19.76879925 -11.625 22.9375 C-10.635 22.9375 -9.645 22.9375 -8.625 22.9375 C-8.625 20.9575 -8.625 18.9775 -8.625 16.9375 C-7.635 16.9375 -6.645 16.9375 -5.625 16.9375 C-5.625 18.5875 -5.625 20.2375 -5.625 21.9375 C-2.655 21.9375 0.315 21.9375 3.375 21.9375 C3.375 20.2875 3.375 18.6375 3.375 16.9375 C4.365 16.9375 5.355 16.9375 6.375 16.9375 C6.375 18.9175 6.375 20.8975 6.375 22.9375 C7.365 22.9375 8.355 22.9375 9.375 22.9375 C9.79398261 18.39212021 9.79398261 18.39212021 8.33203125 14.23046875 C5.34794718 12.25894814 2.32822695 12.50330182 -1.125 12.5625 C-1.80175781 12.55089844 -2.47851562 12.53929687 -3.17578125 12.52734375 C-6.06550027 12.54444268 -8.13622397 12.61457611 -10.58203125 14.23046875 Z M27.375 13.9375 C27.045 15.5875 26.715 17.2375 26.375 18.9375 C27.695 18.9375 29.015 18.9375 30.375 18.9375 C30.045 17.2875 29.715 15.6375 29.375 13.9375 C28.715 13.9375 28.055 13.9375 27.375 13.9375 Z M14.375 15.9375 C13.715 17.2575 13.055 18.5775 12.375 19.9375 C14.025 19.9375 15.675 19.9375 17.375 19.9375 C15.395 22.9075 15.395 22.9075 13.375 25.9375 C14.695 27.5875 16.015 29.2375 17.375 30.9375 C20.30379371 30.30990135 22.73595629 29.35127341 25.375 27.9375 C25.045 29.2575 24.715 30.5775 24.375 31.9375 C25.695 31.9375 27.015 31.9375 28.375 31.9375 C29.16942519 29.64305566 29.16942519 29.64305566 29.375 26.9375 C28.13095802 24.71409148 28.13095802 24.71409148 26.1875 22.8125 C25.57519531 22.14992188 24.96289062 21.48734375 24.33203125 20.8046875 C20.12201241 16.67871471 20.12201241 16.67871471 14.375 15.9375 Z M37.375 42.9375 C36.715 44.2575 36.055 45.5775 35.375 46.9375 C37.355 47.9275 37.355 47.9275 39.375 48.9375 C40.035 47.6175 40.695 46.2975 41.375 44.9375 C40.055 44.2775 38.735 43.6175 37.375 42.9375 Z " fill="#383838" transform="translate(58.625,11.0625)"/>
<path d="M0 0 C0.66 0 1.32 0 2 0 C3.18681726 3.56045177 3.09689832 6.43808337 3.0625 10.1875 C3.05347656 11.45980469 3.04445313 12.73210938 3.03515625 14.04296875 C3.02355469 15.01878906 3.01195313 15.99460937 3 17 C4.98 17 6.96 17 9 17 C9.33 16.34 9.66 15.68 10 15 C10 15.99 10 16.98 10 18 C8.35 18.33 6.7 18.66 5 19 C7.64 19 10.28 19 13 19 C13.66 16.69 14.32 14.38 15 12 C16.5625 13.6875 16.5625 13.6875 18 16 C17.58974359 20.41025641 17.58974359 20.41025641 16 22 C15.71254362 23.97154429 15.49415877 25.95340874 15.3125 27.9375 C15.20550781 29.01902344 15.09851563 30.10054687 14.98828125 31.21484375 C14.67374673 34.14316363 14.67374673 34.14316363 17 36 C17.4375 39.4375 17.4375 39.4375 17 43 C14.875 45.0625 14.875 45.0625 12 46 C9.06255722 45.30883699 6.68580071 44.34290035 4 43 C3.01 43.495 3.01 43.495 2 44 C-0.00781522 43.96761588 -2.01562993 43.93519878 -4.0234375 43.90234375 C-6.40887491 44.02020133 -8.01914436 44.67942957 -10 46 C-10 45.67 -10 45.34 -10 45 C-15.61 44.67 -21.22 44.34 -27 44 C-26.67 43.34 -26.34 42.68 -26 42 C-20.72 42 -15.44 42 -10 42 C-9.34 39.03 -8.68 36.06 -8 33 C-8.99 33.495 -8.99 33.495 -10 34 C-10.65555119 36.52733235 -10.65555119 36.52733235 -11 39 C-11.99 39 -12.98 39 -14 39 C-14.66 37.02 -15.32 35.04 -16 33 C-15.01 33.33 -14.02 33.66 -13 34 C-12.67 33.34 -12.34 32.68 -12 32 C-16.29 32 -20.58 32 -25 32 C-25 31.34 -25 30.68 -25 30 C-24.31035156 30.04640625 -23.62070312 30.0928125 -22.91015625 30.140625 C-16.68682989 30.37965537 -12.31850324 29.76081182 -6.77734375 26.875 C-5 26 -5 26 -3 26 C-3.0928125 27.1446875 -3.0928125 27.1446875 -3.1875 28.3125 C-3.25898085 31.04525312 -3.25898085 31.04525312 -1.5 32.8125 C-1.005 33.204375 -0.51 33.59625 0 34 C-0.33 34.99 -0.66 35.98 -1 37 C-2.32 36.67 -3.64 36.34 -5 36 C-4.34 36.99 -3.68 37.98 -3 39 C-0.59631455 39.55812839 -0.59631455 39.55812839 2 39 C4.28810664 37.46487331 4.28810664 37.46487331 6.25 35.3125 C6.93578125 34.62800781 7.6215625 33.94351563 8.328125 33.23828125 C10.16873581 30.77409903 10.63983377 29.02433703 11 26 C10.01 25.67 9.02 25.34 8 25 C8 25.99 8 26.98 8 28 C4.33118845 27.29445932 1.29549466 25.72264494 -2 24 C-1.7834375 23.46632813 -1.566875 22.93265625 -1.34375 22.3828125 C1.4280981 14.9655523 2.06114101 7.72927879 0 0 Z M9 37 C9 38.65 9 40.3 9 42 C10.32 42 11.64 42 13 42 C13 40.35 13 38.7 13 37 C11.68 37 10.36 37 9 37 Z " fill="#363636" transform="translate(76,47)"/>
<path d="M0 0 C2.60964149 1.03012164 3.83498357 1.58694861 5.375 3.9375 C5.5625 7.125 5.5625 7.125 5.375 9.9375 C6.1175 10.081875 6.86 10.22625 7.625 10.375 C9.17473751 10.69199176 10.72158548 11.02992279 12.25 11.4375 C14.60824807 12.0274741 14.60824807 12.0274741 18 12.4375 C21.375 12.9375 21.375 12.9375 23.375 13.9375 C23.705 12.9475 24.035 11.9575 24.375 10.9375 C25.65375 10.875625 26.9325 10.81375 28.25 10.75 C29.32894531 10.69779297 29.32894531 10.69779297 30.4296875 10.64453125 C31.07164063 10.74121094 31.71359375 10.83789062 32.375 10.9375 C34.67519361 14.38779042 34.80632515 15.88304358 34.375 19.9375 C33.385 20.5975 32.395 21.2575 31.375 21.9375 C31.375 21.2775 31.375 20.6175 31.375 19.9375 C30.77171875 19.97230469 30.1684375 20.00710937 29.546875 20.04296875 C24.56509836 20.21170635 22.33688473 20.07968444 18.375 16.9375 C15.18264728 17.16323891 15.18264728 17.16323891 12.375 17.9375 C11.385 16.2875 10.395 14.6375 9.375 12.9375 C9.705 13.5975 10.035 14.2575 10.375 14.9375 C10.44450541 16.47773996 10.45952357 18.02084988 10.4375 19.5625 C10.42847656 20.37976563 10.41945313 21.19703125 10.41015625 22.0390625 C10.39855469 22.66554688 10.38695313 23.29203125 10.375 23.9375 C9.055 23.6075 7.735 23.2775 6.375 22.9375 C7.365 22.9375 8.355 22.9375 9.375 22.9375 C9.04539784 17.92214948 9.04539784 17.92214948 6.375 13.9375 C3.82964859 13.73900929 1.41783241 13.65898225 -1.125 13.6875 C-2.15947266 13.67589844 -2.15947266 13.67589844 -3.21484375 13.6640625 C-7.37714386 13.5613695 -7.37714386 13.5613695 -10.625 15.9375 C-11.02547444 18.26025177 -11.3647104 20.59489357 -11.625 22.9375 C-10.635 23.2675 -9.645 23.5975 -8.625 23.9375 C-9.945 23.9375 -11.265 23.9375 -12.625 23.9375 C-12.96679688 20.91015625 -12.96679688 20.91015625 -13.30859375 17.8828125 C-13.53792961 15.86345684 -13.53792961 15.86345684 -14.625 13.9375 C-12.8125 11.9375 -12.8125 11.9375 -10.625 9.9375 C-9.635 9.9375 -8.645 9.9375 -7.625 9.9375 C-7.728125 9.03 -7.83125 8.1225 -7.9375 7.1875 C-7.625 3.9375 -7.625 3.9375 -5.4375 1.5 C-2.625 -0.0625 -2.625 -0.0625 0 0 Z M-2.625 3.9375 C-2.955 5.2575 -3.285 6.5775 -3.625 7.9375 C-2.305 8.2675 -0.985 8.5975 0.375 8.9375 C0.705 7.6175 1.035 6.2975 1.375 4.9375 C0.055 4.6075 -1.265 4.2775 -2.625 3.9375 Z M27.375 13.9375 C27.045 15.5875 26.715 17.2375 26.375 18.9375 C27.695 18.9375 29.015 18.9375 30.375 18.9375 C30.045 17.2875 29.715 15.6375 29.375 13.9375 C28.715 13.9375 28.055 13.9375 27.375 13.9375 Z " fill="#515151" transform="translate(58.625,11.0625)"/>
<path d="M0 0 C7.14893617 -0.56737589 7.14893617 -0.56737589 11 2 C14.14221967 1.68493373 14.14221967 1.68493373 17 1 C17 2.32 17 3.64 17 5 C15.96875 5.515625 14.9375 6.03125 13.875 6.5625 C9.6503484 8.94585742 6.92248005 12.18900038 4 16 C3.34 15.01 2.68 14.02 2 13 C2 16.63 2 20.26 2 24 C3.77375 23.95875 5.5475 23.9175 7.375 23.875 C10.3984375 23.8046875 10.3984375 23.8046875 13 24 C13.66 24.66 14.32 25.32 15 26 C14.6328125 27.78515625 14.6328125 27.78515625 14 30 C13.9082529 31.81065591 13.86997095 33.62452811 13.875 35.4375 C13.87242188 36.36433594 13.86984375 37.29117188 13.8671875 38.24609375 C13.99655948 40.92865981 14.40217166 43.38568718 15 46 C14.01 46 13.02 46 12 46 C10.80697266 46.01740234 10.80697266 46.01740234 9.58984375 46.03515625 C8.71457031 46.04417969 7.83929688 46.05320313 6.9375 46.0625 C6.05964844 46.07410156 5.18179687 46.08570313 4.27734375 46.09765625 C2 46 2 46 0 45 C0.33 43.68 0.66 42.36 1 41 C1 41.99 1 42.98 1 44 C4.3 44.33 7.6 44.66 11 45 C11 44.34 11 43.68 11 43 C9.02 43 7.04 43 5 43 C5.33 41.68 5.66 40.36 6 39 C6.99 39 7.98 39 9 39 C9 36.36 9 33.72 9 31 C7.68 31 6.36 31 5 31 C5 29.68 5 28.36 5 27 C6.98 27 8.96 27 11 27 C11 26.34 11 25.68 11 25 C5.6092003 25.23004734 5.6092003 25.23004734 1 27.5625 C0.67 28.036875 0.34 28.51125 0 29 C0 27.68 0 26.36 0 25 C-0.66 25.33 -1.32 25.66 -2 26 C-1.84402344 25.18015625 -1.68804688 24.3603125 -1.52734375 23.515625 C-1.23537109 21.89914063 -1.23537109 21.89914063 -0.9375 20.25 C-0.64166016 18.64898437 -0.64166016 18.64898437 -0.33984375 17.015625 C-0.02706357 14.24015026 -0.03944571 12.58564299 -1 10 C-1.33 9.67 -1.66 9.34 -2 9 C-2.26293056 4.96839809 -2.29404844 3.44107266 0 0 Z M3 3 C2.67 4.65 2.34 6.3 2 8 C3.32 8 4.64 8 6 8 C6.33 7.01 6.66 6.02 7 5 C5.68 4.34 4.36 3.68 3 3 Z " fill="#4F4F4F" transform="translate(24,22)"/>
<path d="M0 0 C0.71027344 0.19335938 1.42054687 0.38671875 2.15234375 0.5859375 C4.08139422 1.22262828 4.08139422 1.22262828 6 0 C12.97142857 -0.68571429 12.97142857 -0.68571429 17 2 C19.04700434 5.0705065 19.86116683 7.16970126 19.609375 10.890625 C18.36268613 15.20608646 15.17792691 17.9779714 12 21 C11.31679687 21.6909375 10.63359375 22.381875 9.9296875 23.09375 C6.04197752 26.81885614 6.04197752 26.81885614 4 28 C0.62896408 27.74653865 -0.6971503 27.25373894 -3.3125 25.0625 C-5 23 -5 23 -5 21 C-4.01 20.67 -3.02 20.34 -2 20 C-1.38125 20.7734375 -1.38125 20.7734375 -0.75 21.5625 C0.85851322 23.22354102 0.85851322 23.22354102 2.81640625 22.8515625 C5.74996286 21.7075279 7.45092572 20.01949974 9.6875 17.8125 C10.47511719 17.05582031 11.26273438 16.29914062 12.07421875 15.51953125 C14.31059295 12.59364613 14.78782138 10.64745147 15 7 C14.08333333 4.91666667 14.08333333 4.91666667 12 4 C8.35265021 4.22330713 6.61627165 4.38372835 4 7 C1.06546739 6.63318342 0.13562754 6.13562754 -2 4 C-4.83386167 3.6366844 -6.40522151 3.6431329 -8.875 5.125 C-10.27264269 7.06499992 -10.27264269 7.06499992 -9.875 10 C-8.97941411 13.07058019 -8.27347492 13.92421855 -6 16 C-6 16.99 -6 17.98 -6 19 C-8.93170364 18.6858889 -10.04249331 17.9610478 -12.25 15.9375 C-14.50850351 12.14644054 -14.97292915 9.30868623 -14 5 C-10.31956327 -0.69874074 -6.23043896 -0.78019808 0 0 Z " fill="#3A3A3A" transform="translate(55,45)"/>
<path d="M0 0 C7.14893617 -0.56737589 7.14893617 -0.56737589 11 2 C14.14221967 1.68493373 14.14221967 1.68493373 17 1 C17 2.32 17 3.64 17 5 C15.906875 5.598125 14.81375 6.19625 13.6875 6.8125 C11.49467938 8.03802849 10.11258211 8.86396328 8.5 10.8125 C7 12 7 12 3.4375 11.8125 C0 11 0 11 -2 9 C-2.34490322 4.94738713 -2.30163882 3.45245824 0 0 Z M3 3 C2.67 4.65 2.34 6.3 2 8 C3.32 8 4.64 8 6 8 C6.33 7.01 6.66 6.02 7 5 C5.68 4.34 4.36 3.68 3 3 Z " fill="#414141" transform="translate(24,22)"/>
<path d="M0 0 C1.8125 1.125 1.8125 1.125 3 3 C3.1875 6.6875 3.1875 6.6875 3 10 C3.66 10.33 4.32 10.66 5 11 C-0.61 11 -6.22 11 -12 11 C-9.58273381 2.66043165 -9.58273381 2.66043165 -7.125 -0.125 C-4.2911429 -1.29188234 -2.86518411 -1.02852763 0 0 Z M-5 3 C-5.33 4.32 -5.66 5.64 -6 7 C-4.68 7.33 -3.36 7.66 -2 8 C-1.67 6.68 -1.34 5.36 -1 4 C-2.32 3.67 -3.64 3.34 -5 3 Z " fill="#414141" transform="translate(61,12)"/>
<path d="M0 0 C0.66 0 1.32 0 2 0 C2.33 4.62 2.66 9.24 3 14 C5.475 14.99 5.475 14.99 8 16 C9.3125 18.125 9.3125 18.125 10 20 C10.99 20 11.98 20 13 20 C13.33 19.34 13.66 18.68 14 18 C15.65 18.66 17.3 19.32 19 20 C19 20.99 19 21.98 19 23 C17.14375 22.6596875 17.14375 22.6596875 15.25 22.3125 C11.83084489 21.79946077 11.83084489 21.79946077 8.875 23.5 C8.25625 23.995 7.6375 24.49 7 25 C3.875 24.875 3.875 24.875 1 24 C-1.58772586 20.1184112 -0.87719799 18.46573523 0 14 C0.33 13.01 0.66 12.02 1 11 C0.91478259 9.10047654 0.76270916 7.20336427 0.5625 5.3125 C0.46066406 4.31863281 0.35882812 3.32476562 0.25390625 2.30078125 C0.17011719 1.54152344 0.08632813 0.78226562 0 0 Z M4 16 C3.67 17.65 3.34 19.3 3 21 C4.32 21 5.64 21 7 21 C7.33 20.01 7.66 19.02 8 18 C7.67 17.34 7.34 16.68 7 16 C6.01 16 5.02 16 4 16 Z " fill="#4E4E4E" transform="translate(23,68)"/>
<path d="M0 0 C2.64 0.33 5.28 0.66 8 1 C8 5.95 8 10.9 8 16 C3.38 16 -1.24 16 -6 16 C-6 15.34 -6 14.68 -6 14 C-5.01 14 -4.02 14 -3 14 C-2.67 12.68 -2.34 11.36 -2 10 C-0.68 9.67 0.64 9.34 2 9 C2 9.99 2 10.98 2 12 C2.99 12.33 3.98 12.66 5 13 C4.5988758 7.78538534 3.94972654 5.44008441 0 2 C0 1.34 0 0.68 0 0 Z " fill="#242424" transform="translate(82,30)"/>
<path d="M0 0 C5.61 0 11.22 0 17 0 C16.01 0.495 16.01 0.495 15 1 C15.12375 2.11375 15.12375 2.11375 15.25 3.25 C15 6 15 6 13.3125 8.3125 C11 10 11 10 8.5 10.5 C5.1623973 9.83247946 3.99399631 8.73251347 2 6 C1.75 3.25 1.75 3.25 2 1 C1.34 0.67 0.68 0.34 0 0 Z M7 1 C6.67 2.32 6.34 3.64 6 5 C7.32 5.33 8.64 5.66 10 6 C10.33 4.68 10.66 3.36 11 2 C9.68 1.67 8.36 1.34 7 1 Z " fill="#484848" transform="translate(49,93)"/>
<path d="M0 0 C2.97 0.33 5.94 0.66 9 1 C9 1.66 9 2.32 9 3 C9.66 3.33 10.32 3.66 11 4 C10.34 4.66 9.68 5.32 9 6 C8.01 6 7.02 6 6 6 C6 5.01 6 4.02 6 3 C5.01 3.33 4.02 3.66 3 4 C3.12568055 8.14745817 4.68089043 9.88863285 7.5625 12.625 C8.20316406 13.19476563 8.84382813 13.76453125 9.50390625 14.3515625 C11 16 11 16 11 19 C9.68 19.33 8.36 19.66 7 20 C6.773125 19.195625 6.54625 18.39125 6.3125 17.5625 C5.879375 16.716875 5.44625 15.87125 5 15 C3.35 14.67 1.7 14.34 0 14 C0 9.38 0 4.76 0 0 Z " fill="#2C2C2C" transform="translate(25,69)"/>
<path d="M0 0 C1.27875 -0.061875 2.5575 -0.12375 3.875 -0.1875 C4.95394531 -0.23970703 4.95394531 -0.23970703 6.0546875 -0.29296875 C6.69664063 -0.19628906 7.33859375 -0.09960938 8 0 C10.30019361 3.45029042 10.43132515 4.94554358 10 9 C9.01 9.66 8.02 10.32 7 11 C7 10.34 7 9.68 7 9 C6.06027344 9.03480469 6.06027344 9.03480469 5.1015625 9.0703125 C3.87566406 9.09738281 3.87566406 9.09738281 2.625 9.125 C1.81289062 9.14820313 1.00078125 9.17140625 0.1640625 9.1953125 C-2 9 -2 9 -4 7 C-4 6.01 -4 5.02 -4 4 C-3.01 4 -2.02 4 -1 4 C-0.67 2.68 -0.34 1.36 0 0 Z M3 3 C2.67 4.65 2.34 6.3 2 8 C3.32 8 4.64 8 6 8 C5.67 6.35 5.34 4.7 5 3 C4.34 3 3.68 3 3 3 Z " fill="#414141" transform="translate(83,22)"/>
<path d="M0 0 C1.18851563 0.10183594 2.37703125 0.20367187 3.6015625 0.30859375 C4.51679687 0.39238281 5.43203125 0.47617188 6.375 0.5625 C6.375 3.8625 6.375 7.1625 6.375 10.5625 C5.715 10.5625 5.055 10.5625 4.375 10.5625 C3.715 8.5825 3.055 6.6025 2.375 4.5625 C1.715 4.5625 1.055 4.5625 0.375 4.5625 C0.375 5.5525 0.375 6.5425 0.375 7.5625 C-3.29381155 6.85695932 -6.32950534 5.28514494 -9.625 3.5625 C-9.295 2.5725 -8.965 1.5825 -8.625 0.5625 C-5.68113377 -0.90943312 -3.25109964 -0.28686173 0 0 Z " fill="#1D1D1D" transform="translate(83.625,67.4375)"/>
<path d="M0 0 C0.66 0.33 1.32 0.66 2 1 C2 2.65 2 4.3 2 6 C2.99 6.33 3.98 6.66 5 7 C5 6.01 5 5.02 5 4 C6.32 4.33 7.64 4.66 9 5 C9.33 6.32 9.66 7.64 10 9 C10.99 9 11.98 9 13 9 C13 9.99 13 10.98 13 12 C8.71 11.67 4.42 11.34 0 11 C-1.125 2.25 -1.125 2.25 0 0 Z " fill="#0A0A0A" transform="translate(26,35)"/>
<path d="M0 0 C0 0.66 0 1.32 0 2 C0.66 2.33 1.32 2.66 2 3 C1.484375 3.37125 0.96875 3.7425 0.4375 4.125 C-1.32087268 6.0037168 -1.32087268 6.0037168 -0.875 9 C0.02058589 12.07058019 0.72652508 12.92421855 3 15 C3 15.99 3 16.98 3 18 C0.06829636 17.6858889 -1.04249331 16.9610478 -3.25 14.9375 C-5.67862469 10.86087999 -5.52345593 8.71110333 -5 4 C-2.8 0 -2.8 0 0 0 Z " fill="#3E3E3E" transform="translate(46,46)"/>
<path d="M0 0 C0.33 1.32 0.66 2.64 1 4 C-0.98 4 -2.96 4 -5 4 C-4.67 4.99 -4.34 5.98 -4 7 C-4.33 7.99 -4.66 8.98 -5 10 C-3.68 10 -2.36 10 -1 10 C-1.33 8.68 -1.66 7.36 -2 6 C-1.01 6.33 -0.02 6.66 1 7 C0.835 7.763125 0.67 8.52625 0.5 9.3125 C-0.09145396 12.03596236 -0.09145396 12.03596236 0 15 C-5.4 15.36 -5.4 15.36 -7.875 13.875 C-9.52854531 11.11909116 -9.39365568 9.14924548 -9 6 C-7.875 4.125 -7.875 4.125 -6 3 C-2.8125 2.8125 -2.8125 2.8125 0 3 C0 2.01 0 1.02 0 0 Z " fill="#444444" transform="translate(21,48)"/>
<path d="M0 0 C0.33 0.99 0.66 1.98 1 3 C1.928125 2.938125 2.85625 2.87625 3.8125 2.8125 C7 3 7 3 8.875 4.125 C10.52854531 6.88090884 10.39365568 8.85075452 10 12 C8.875 13.875 8.875 13.875 7 15 C3.8125 15.1875 3.8125 15.1875 1 15 C1 12 1 12 2 10 C3.32 10 4.64 10 6 10 C5.67 8.02 5.34 6.04 5 4 C3.35 4 1.7 4 0 4 C0 2.68 0 1.36 0 0 Z " fill="#414141" transform="translate(93,48)"/>
<path d="M0 0 C0.99 0 1.98 0 3 0 C3 0.66 3 1.32 3 2 C7.29 2 11.58 2 16 2 C16 3.98 16 5.96 16 8 C15.71125 7.360625 15.4225 6.72125 15.125 6.0625 C14.17176549 3.84793921 14.17176549 3.84793921 12 3 C12 3.66 12 4.32 12 5 C10.02 5 8.04 5 6 5 C5.67 6.32 5.34 7.64 5 9 C4.01 9 3.02 9 2 9 C1.34 6.03 0.68 3.06 0 0 Z " fill="#272727" transform="translate(48,77)"/>
<path d="M0 0 C0.99 0.495 0.99 0.495 2 1 C2 2.32 2 3.64 2 5 C3.65 5 5.3 5 7 5 C7 5.66 7 6.32 7 7 C6.01 7.66 5.02 8.32 4 9 C4 10.32 4 11.64 4 13 C5.32 13.66 6.64 14.32 8 15 C6.824375 15.185625 6.824375 15.185625 5.625 15.375 C2.85942178 15.79117993 2.85942178 15.79117993 1 18 C-0.32594359 12.03325384 -0.0884587 6.07416385 0 0 Z " fill="#0C0C0C" transform="translate(91,47)"/>
<path d="M0 0 C2 1.1875 2 1.1875 4 3 C4.25 5.6875 4.25 5.6875 4 8 C4.99 7.67 5.98 7.34 7 7 C7.66 7.33 8.32 7.66 9 8 C8.1875 9.9375 8.1875 9.9375 7 12 C6.01 12.33 5.02 12.66 4 13 C4 13.66 4 14.32 4 15 C2.35 14.67 0.7 14.34 -1 14 C-0.01 13.67 0.98 13.34 2 13 C1.85851011 11.3954444 1.71164314 9.79136233 1.5625 8.1875 C1.48128906 7.29417969 1.40007812 6.40085937 1.31640625 5.48046875 C1.06510233 2.87256441 1.06510233 2.87256441 0 0 Z " fill="#080808" transform="translate(67,23)"/>
<path d="M0 0 C0.66 0 1.32 0 2 0 C3.18681726 3.56045177 3.09689832 6.43808337 3.0625 10.1875 C3.05347656 11.45980469 3.04445313 12.73210938 3.03515625 14.04296875 C3.02355469 15.01878906 3.01195313 15.99460937 3 17 C4.98 17 6.96 17 9 17 C9.33 16.34 9.66 15.68 10 15 C10 15.99 10 16.98 10 18 C8.35 18.33 6.7 18.66 5 19 C7.31 19.33 9.62 19.66 12 20 C12 20.33 12 20.66 12 21 C8.04 21 4.08 21 0 21 C0.165 20.21625 0.33 19.4325 0.5 18.625 C1.35143077 12.45212692 1.61866062 6.06997732 0 0 Z " fill="#696969" transform="translate(76,47)"/>
<path d="M0 0 C0.5775 0.515625 1.155 1.03125 1.75 1.5625 C3.85856105 3.24398896 3.85856105 3.24398896 6.125 2.75 C8.04498297 2.0121108 8.04498297 2.0121108 10 1 C10.33 2.32 10.66 3.64 11 5 C8.73367014 7.09845357 7.64750486 8.01618762 4.5 7.9375 C1.50875309 6.81578241 0.01234924 5.45953796 -2 3 C-2 2.34 -2 1.68 -2 1 C-1.34 0.67 -0.68 0.34 0 0 Z " fill="#414141" transform="translate(52,65)"/>
<path d="M0 0 C0.99 0 1.98 0 3 0 C3 2.31 3 4.62 3 7 C-1.62 7 -6.24 7 -11 7 C-11 5.35 -11 3.7 -11 2 C-10.34 2 -9.68 2 -9 2 C-9 2.99 -9 3.98 -9 5 C-6.03 5 -3.06 5 0 5 C0 3.35 0 1.7 0 0 Z " fill="#212121" transform="translate(62,28)"/>
<path d="M0 0 C0 0.66 0 1.32 0 2 C-0.99 2 -1.98 2 -3 2 C-3 2.66 -3 3.32 -3 4 C-2.34 4.33 -1.68 4.66 -1 5 C-1.99 5.495 -1.99 5.495 -3 6 C-3.65555119 8.52733235 -3.65555119 8.52733235 -4 11 C-4.99 11 -5.98 11 -7 11 C-7.66 9.02 -8.32 7.04 -9 5 C-8.01 5.33 -7.02 5.66 -6 6 C-5.67 5.34 -5.34 4.68 -5 4 C-9.29 4 -13.58 4 -18 4 C-18 3.34 -18 2.68 -18 2 C-17.26394531 2.02320312 -16.52789062 2.04640625 -15.76953125 2.0703125 C-14.30580078 2.09738281 -14.30580078 2.09738281 -12.8125 2.125 C-11.36810547 2.15980469 -11.36810547 2.15980469 -9.89453125 2.1953125 C-6.33106069 1.95486239 -3.47184265 0 0 0 Z " fill="#4C4C4C" transform="translate(69,75)"/>
<path d="M0 0 C0.33 0 0.66 0 1 0 C1.06058594 0.73605469 1.12117188 1.47210938 1.18359375 2.23046875 C1.26738281 3.20628906 1.35117187 4.18210937 1.4375 5.1875 C1.51871094 6.15042969 1.59992187 7.11335938 1.68359375 8.10546875 C1.97666151 10.78649602 2.42703754 13.3662986 3 16 C2.01 16 1.02 16 0 16 C-0.79535156 16.01160156 -1.59070313 16.02320312 -2.41015625 16.03515625 C-3.72306641 16.04869141 -3.72306641 16.04869141 -5.0625 16.0625 C-5.94035156 16.07410156 -6.81820313 16.08570312 -7.72265625 16.09765625 C-10 16 -10 16 -12 15 C-11.67 13.68 -11.34 12.36 -11 11 C-11 11.99 -11 12.98 -11 14 C-7.7 14.33 -4.4 14.66 -1 15 C-1 14.34 -1 13.68 -1 13 C-2.98 13 -4.96 13 -7 13 C-6.67 12.01 -6.34 11.02 -6 10 C-6 10.66 -6 11.32 -6 12 C-4.02 12 -2.04 12 0 12 C0 8.04 0 4.08 0 0 Z " fill="#6B6B6B" transform="translate(36,52)"/>
<path d="M0 0 C2.97 0 5.94 0 9 0 C9.33 0.99 9.66 1.98 10 3 C10.99 3 11.98 3 13 3 C13 4.32 13 5.64 13 7 C10.13275314 6.42655063 9.1385485 6.1385485 7 4 C4.67724823 3.59952556 2.34260643 3.2602896 0 3 C0 2.01 0 1.02 0 0 Z " fill="#343434" transform="translate(46,45)"/>
<path d="M0 0 C1.5625 1.6875 1.5625 1.6875 3 4 C2.58974359 8.41025641 2.58974359 8.41025641 1 10 C0.71693766 12.54756104 0.55184214 15.09510022 0.37890625 17.65234375 C0 20 0 20 -2 22 C-2 21.34 -2 20.68 -2 20 C-3.32 20.33 -4.64 20.66 -6 21 C-5.01 19.68 -4.02 18.36 -3 17 C-3 17.66 -3 18.32 -3 19 C-2.34 19 -1.68 19 -1 19 C-1 15.7 -1 12.4 -1 9 C-1.66 8.67 -2.32 8.34 -3 8 C-2.34 7.01 -1.68 6.02 -1 5 C-0.61500109 3.34450469 -0.27206865 1.6777567 0 0 Z " fill="#4A4A4A" transform="translate(91,59)"/>
<path d="M0 0 C0.33 1.32 0.66 2.64 1 4 C0.030625 4.268125 -0.93875 4.53625 -1.9375 4.8125 C-2.948125 5.204375 -3.95875 5.59625 -5 6 C-5.33 6.99 -5.66 7.98 -6 9 C-8.0625 9.6875 -8.0625 9.6875 -10 10 C-9.52153935 5.69385411 -8.34073619 3.75119451 -5 1 C-2 0 -2 0 0 0 Z " fill="#222222" transform="translate(89,79)"/>
<path d="M0 0 C0.66 0 1.32 0 2 0 C2.33 1.65 2.66 3.3 3 5 C3.62648438 4.97679687 4.25296875 4.95359375 4.8984375 4.9296875 C5.71570312 4.91164063 6.53296875 4.89359375 7.375 4.875 C8.18710937 4.85179687 8.99921875 4.82859375 9.8359375 4.8046875 C12 5 12 5 14 7 C8.39 7 2.78 7 -3 7 C-2.67 6.34 -2.34 5.68 -2 5 C-1.34 5 -0.68 5 0 5 C0 3.35 0 1.7 0 0 Z " fill="#090909" transform="translate(52,16)"/>
<path d="M0 0 C0.66 0.33 1.32 0.66 2 1 C2 1.66 2 2.32 2 3 C2.99 3.33 3.98 3.66 5 4 C5 4.66 5 5.32 5 6 C5.99 6 6.98 6 8 6 C8 6.66 8 7.32 8 8 C7.01 8 6.02 8 5 8 C4.67 8.99 4.34 9.98 4 11 C2.99406757 9.8803014 1.9954151 8.7540588 1 7.625 C0.443125 6.99851562 -0.11375 6.37203125 -0.6875 5.7265625 C-2 4 -2 4 -2 2 C-1.34 2 -0.68 2 0 2 C0 1.34 0 0.68 0 0 Z " fill="#454545" transform="translate(71,36)"/>
<path d="M0 0 C3.9126984 1.3042328 6.37310241 2.78934739 9 6 C9 6.99 9 7.98 9 9 C7.68 9.33 6.36 9.66 5 10 C4.773125 9.195625 4.54625 8.39125 4.3125 7.5625 C3.879375 6.716875 3.44625 5.87125 3 5 C0.45224694 4.10613836 0.45224694 4.10613836 -2 4 C-1.34 3.67 -0.68 3.34 0 3 C0 2.01 0 1.02 0 0 Z " fill="#1E1E1E" transform="translate(27,79)"/>
<path d="M0 0 C0.33 0 0.66 0 1 0 C1.125 7.75 1.125 7.75 0 10 C0.66 10.33 1.32 10.66 2 11 C0.02 11.99 0.02 11.99 -2 13 C-2 12.67 -2 12.34 -2 12 C-7.61 11.67 -13.22 11.34 -19 11 C-18.67 10.34 -18.34 9.68 -18 9 C-12.72 9 -7.44 9 -2 9 C-1.34 6.03 -0.68 3.06 0 0 Z " fill="#5E5E5E" transform="translate(68,80)"/>
<path d="M0 0 C3.375 0.25 3.375 0.25 7 1 C8.4375 3.0625 8.4375 3.0625 9 5 C6.26094655 6.36952673 4.02912668 6.12621361 1 6 C0.34 5.67 -0.32 5.34 -1 5 C-0.67 3.35 -0.34 1.7 0 0 Z " fill="#464646" transform="translate(71,85)"/>
<path d="M0 0 C2.46376102 2.46376102 2.35512338 3.53405594 2.625 6.9375 C2.69976562 7.81277344 2.77453125 8.68804687 2.8515625 9.58984375 C2.96246167 11.390496 3 13.19593594 3 15 C2.34 15.66 1.68 16.32 1 17 C0.34 16.34 -0.32 15.68 -1 15 C-3.65537372 14.43479997 -6.29144713 14.26211802 -9 14 C-9 13.67 -9 13.34 -9 13 C-5.7 13 -2.4 13 1 13 C0.67 8.71 0.34 4.42 0 0 Z " fill="#636363" transform="translate(89,33)"/>
<path d="M0 0 C1.9453125 -0.29296875 1.9453125 -0.29296875 4.125 -0.1875 C5.40375 -0.125625 6.6825 -0.06375 8 0 C8.33 0.66 8.66 1.32 9 2 C8.01 2 7.02 2 6 2 C6 2.99 6 3.98 6 5 C5.01 4.67 4.02 4.34 3 4 C2.34 5.32 1.68 6.64 1 8 C0.67 6.68 0.34 5.36 0 4 C-0.33 5.65 -0.66 7.3 -1 9 C-1.33 9 -1.66 9 -2 9 C-2.25 3.375 -2.25 3.375 0 0 Z " fill="#616161" transform="translate(24,22)"/>
<path d="M0 0 C0.33 0 0.66 0 1 0 C1 4.62 1 9.24 1 14 C-0.32 13.01 -1.64 12.02 -3 11 C-2.34 10.34 -1.68 9.68 -1 9 C-1 7.68 -1 6.36 -1 5 C-2.65 4.67 -4.3 4.34 -6 4 C-6 3.34 -6 2.68 -6 2 C-4.02 2 -2.04 2 0 2 C0 1.34 0 0.68 0 0 Z " fill="#0A0A0A" transform="translate(22,50)"/>
<path d="M0 0 C2.25 0.875 2.25 0.875 3.25 2.875 C1.25 3.54166667 -0.75 4.20833333 -2.75 4.875 C-3.74 6.36 -3.74 6.36 -4.75 7.875 C-4.75 6.885 -4.75 5.895 -4.75 4.875 C-5.41 4.875 -6.07 4.875 -6.75 4.875 C-6.75 6.525 -6.75 8.175 -6.75 9.875 C-7.08 9.875 -7.41 9.875 -7.75 9.875 C-8.0625 7.125 -8.0625 7.125 -7.75 3.875 C-5.1792225 1.01041936 -3.90670891 -0.17757768 0 0 Z " fill="#5B5B5B" transform="translate(58.75,11.125)"/>
<path d="M0 0 C0.86476686 2.42134721 1.1422798 3.60873054 0.25 6.0625 C-0.99443419 7.99137299 -2.30547429 9.45952209 -4 11 C-4 10.01 -4 9.02 -4 8 C-4.99 8 -5.98 8 -7 8 C-7 7.34 -7 6.68 -7 6 C-6.01 6 -5.02 6 -4 6 C-4 5.34 -4 4.68 -4 4 C-2.70766393 2.62689293 -1.37562854 1.28965176 0 0 Z " fill="#555555" transform="translate(43,36)"/>
<path d="M0 0 C0.66 0.66 1.32 1.32 2 2 C1.14148438 2.19916016 1.14148438 2.19916016 0.265625 2.40234375 C-1.97650875 2.99380317 -4.08579619 3.73288854 -6.25 4.5625 C-6.95640625 4.83191406 -7.6628125 5.10132813 -8.390625 5.37890625 C-8.92171875 5.58386719 -9.4528125 5.78882813 -10 6 C-10 5.01 -10 4.02 -10 3 C-10.99 2.67 -11.98 2.34 -13 2 C-8.49016424 -0.25491788 -4.94576735 -0.32431261 0 0 Z " fill="#4A4A4A" transform="translate(69,45)"/>
<path d="M0 0 C0.66 0 1.32 0 2 0 C2.33 1.65 2.66 3.3 3 5 C4.65 5 6.3 5 8 5 C8 5.99 8 6.98 8 8 C3.55063291 8.36075949 3.55063291 8.36075949 1.1875 6.8125 C-0.36678206 4.44017475 -0.22537188 2.77958655 0 0 Z " fill="#303030" transform="translate(52,95)"/>
<path d="M0 0 C0.33 0 0.66 0 1 0 C1 1.65 1 3.3 1 5 C1.99 5.33 2.98 5.66 4 6 C4.66 6.66 5.32 7.32 6 8 C4.3125 8.6875 4.3125 8.6875 2 9 C-2.63076923 6.73846154 -2.63076923 6.73846154 -4 4 C-3.01 4 -2.02 4 -1 4 C-0.67 2.68 -0.34 1.36 0 0 Z " fill="#515151" transform="translate(84,84)"/>
<path d="M0 0 C0.99 0.33 1.98 0.66 3 1 C2.67 4.96 2.34 8.92 2 13 C1.34 13 0.68 13 0 13 C-0.19658808 11.58456585 -0.38187546 10.16755969 -0.5625 8.75 C-0.66691406 7.96109375 -0.77132812 7.1721875 -0.87890625 6.359375 C-1.00027349 3.99467126 -0.69633257 2.2488963 0 0 Z " fill="#0B0B0B" transform="translate(44,75)"/>
<path d="M0 0 C0 1.32 0 2.64 0 4 C-1.98 4.66 -3.96 5.32 -6 6 C-6 5.01 -6 4.02 -6 3 C-6.66 3 -7.32 3 -8 3 C-6.23110084 -0.53779831 -3.70375662 0 0 0 Z " fill="#545454" transform="translate(41,23)"/>
<path d="M0 0 C0.33 0 0.66 0 1 0 C1.33820166 1.5823006 1.67035939 3.16589375 2 4.75 C2.185625 5.63171875 2.37125 6.5134375 2.5625 7.421875 C3 10 3 10 3 14 C1.0625 13.1875 1.0625 13.1875 -1 12 C-1.33 11.01 -1.66 10.02 -2 9 C-1.34 9 -0.68 9 0 9 C0 6.03 0 3.06 0 0 Z " fill="#434343" transform="translate(46,79)"/>
<path d="M0 0 C1.98 0.66 3.96 1.32 6 2 C6 2.99 6 3.98 6 5 C3.03 4.67 0.06 4.34 -3 4 C-3 3.34 -3 2.68 -3 2 C-2.01 2 -1.02 2 0 2 C0 1.34 0 0.68 0 0 Z " fill="#525252" transform="translate(36,86)"/>
<path d="M0 0 C1.66611905 -0.042721 3.33382885 -0.04063832 5 0 C6 1 6 1 6.0625 3.5625 C6.041875 4.366875 6.02125 5.17125 6 6 C5.01 6 4.02 6 3 6 C3 5.34 3 4.68 3 4 C2.01 3.67 1.02 3.34 0 3 C0 2.01 0 1.02 0 0 Z " fill="#454545" transform="translate(62,51)"/>
<path d="M0 0 C0.33 0 0.66 0 1 0 C1.268125 0.969375 1.53625 1.93875 1.8125 2.9375 C2.204375 3.948125 2.59625 4.95875 3 6 C3.99 6.33 4.98 6.66 6 7 C6 7.66 6 8.32 6 9 C3.69 8.34 1.38 7.68 -1 7 C-1.04254356 5.00045254 -1.04080783 2.99958364 -1 1 C-0.67 0.67 -0.34 0.34 0 0 Z " fill="#1E1E1E" transform="translate(24,25)"/>
<path d="M0 0 C1.9375 0.375 1.9375 0.375 4 1 C4.33 1.66 4.66 2.32 5 3 C4.34 3 3.68 3 3 3 C3 3.66 3 4.32 3 5 C1.02 5 -0.96 5 -3 5 C-3 4.01 -3 3.02 -3 2 C-2.01 2.33 -1.02 2.66 0 3 C0 2.01 0 1.02 0 0 Z " fill="#595959" transform="translate(31,39)"/>
<path d="M0 0 C3.3 0 6.6 0 10 0 C9.01 0.66 8.02 1.32 7 2 C6.01 3.485 6.01 3.485 5 5 C5 4.01 5 3.02 5 2 C4.34 2 3.68 2 3 2 C2.67 3.32 2.34 4.64 2 6 C2 4.35 2 2.7 2 1 C1.34 0.67 0.68 0.34 0 0 Z " fill="#5F5F5F" transform="translate(49,93)"/>
<path d="M0 0 C0.66 1.32 1.32 2.64 2 4 C0.3125 5.5625 0.3125 5.5625 -2 7 C-4.75 6.6875 -4.75 6.6875 -7 6 C-7 5.67 -7 5.34 -7 5 C-5.35 5 -3.7 5 -2 5 C-1.855625 4.360625 -1.71125 3.72125 -1.5625 3.0625 C-1 1 -1 1 0 0 Z " fill="#505050" transform="translate(61,66)"/>
<path d="M0 0 C0.33 0 0.66 0 1 0 C1 2.31 1 4.62 1 7 C2.32 7 3.64 7 5 7 C5 7.66 5 8.32 5 9 C3.02 9 1.04 9 -1 9 C-0.67 6.03 -0.34 3.06 0 0 Z " fill="#0A0A0A" transform="translate(80,55)"/>
<path d="M0 0 C1.98 0 3.96 0 6 0 C6 0.66 6 1.32 6 2 C6.66 2.33 7.32 2.66 8 3 C7.34 3.66 6.68 4.32 6 5 C5.01 5 4.02 5 3 5 C3 4.01 3 3.02 3 2 C2.01 2 1.02 2 0 2 C0 1.34 0 0.68 0 0 Z " fill="#4B4B4B" transform="translate(28,70)"/>
<path d="M0 0 C0.33 0 0.66 0 1 0 C1 2.64 1 5.28 1 8 C-0.98 8 -2.96 8 -5 8 C-5 7.34 -5 6.68 -5 6 C-3.68 6 -2.36 6 -1 6 C-0.67 4.02 -0.34 2.04 0 0 Z " fill="#0D0D0D" transform="translate(35,56)"/>
<path d="M0 0 C1.65 0 3.3 0 5 0 C5 0.99 5 1.98 5 3 C4.01 2.67 3.02 2.34 2 2 C2 2.99 2 3.98 2 5 C0.0625 4.625 0.0625 4.625 -2 4 C-2.33 3.34 -2.66 2.68 -3 2 C-2.34 2 -1.68 2 -1 2 C-0.67 1.34 -0.34 0.68 0 0 Z " fill="#575757" transform="translate(82,70)"/>
<path d="M0 0 C2.31 0.33 4.62 0.66 7 1 C7 1.66 7 2.32 7 3 C7.66 3 8.32 3 9 3 C9 3.99 9 4.98 9 6 C8.01 6 7.02 6 6 6 C5.7525 5.38125 5.505 4.7625 5.25 4.125 C3.79371361 1.64931313 2.62187494 1.04874998 0 0 Z " fill="#121212" transform="translate(26,23)"/>
<path d="M0 0 C0.66 0 1.32 0 2 0 C2 0.66 2 1.32 2 2 C2.66 2.33 3.32 2.66 4 3 C2.68 3.99 1.36 4.98 0 6 C0 5.34 0 4.68 0 4 C-0.66 4 -1.32 4 -2 4 C-1.34 2.68 -0.68 1.36 0 0 Z " fill="#575757" transform="translate(44,46)"/>
<path d="M0 0 C1.65 0 3.3 0 5 0 C5 0.66 5 1.32 5 2 C4.01 2.66 3.02 3.32 2 4 C1.34 4.99 0.68 5.98 0 7 C0 4.69 0 2.38 0 0 Z " fill="#232323" transform="translate(93,52)"/>
<path d="M0 0 C0.66 0.33 1.32 0.66 2 1 C2 1.66 2 2.32 2 3 C2.99 3 3.98 3 5 3 C5 3.66 5 4.32 5 5 C4.01 5 3.02 5 2 5 C1.67 5.99 1.34 6.98 1 8 C0.34 6.68 -0.32 5.36 -1 4 C-0.34 4 0.32 4 1 4 C0.67 2.68 0.34 1.36 0 0 Z " fill="#606060" transform="translate(74,39)"/>
<path d="M0 0 C0.99 0.33 1.98 0.66 3 1 C1.25 4.875 1.25 4.875 -1 6 C-1.33 4.35 -1.66 2.7 -2 1 C-1.34 0.67 -0.68 0.34 0 0 Z " fill="#505050" transform="translate(73,30)"/>
<path d="M0 0 C1.65 0 3.3 0 5 0 C5 0.99 5 1.98 5 3 C3.02 3 1.04 3 -1 3 C-0.67 2.01 -0.34 1.02 0 0 Z " fill="#3B3B3B" transform="translate(73,23)"/>
</svg>
